<svg xmlns="http://www.w3.org/2000/svg" xmlns:xlink="http://www.w3.org/1999/xlink" width="565" height="245" viewBox="0 0 565 245"><defs><clipPath id="a"><rect width="498" height="170" transform="translate(-0.367 20.582)" fill="none" stroke="#707070" stroke-width="1"/></clipPath></defs><g transform="translate(19 9.111)"><rect width="509" height="200" rx="3" transform="translate(0 -0.111)" fill="#ffbc45"/><rect width="505" height="185" rx="3" transform="translate(11 20.889)" fill="#171d1a" opacity="0.15"/><g transform="translate(6.367 5.306)" clip-path="url(#a)"><rect width="50.425" height="165.419" transform="translate(7.488 20.914)" fill="#171d1a" opacity="0.25"/><rect width="50.425" height="165.419" transform="translate(192.315 20.914)" fill="#171d1a" opacity="0.25"/><rect width="50.425" height="165.419" transform="translate(69.447 20.914)" fill="#171d1a" opacity="0.25"/><rect width="50.425" height="165.419" transform="translate(254.274 20.914)" fill="#171d1a" opacity="0.25"/><rect width="50.425" height="165.419" transform="translate(378.192 20.914)" fill="#171d1a" opacity="0.25"/><rect width="50.425" height="165.419" transform="translate(131.406 20.914)" fill="#171d1a" opacity="0.25"/><rect width="50.425" height="165.419" transform="translate(316.233 20.914)" fill="#171d1a" opacity="0.25"/><rect width="50.425" height="165.419" transform="translate(440.151 20.914)" fill="#171d1a" opacity="0.25"/><path d="M0,157.563H16.583v80.585H0Z" transform="translate(478.054 -138.114)" fill="#171d1a"/><rect width="58.913" height="165.348" rx="1.404" transform="translate(3.244 19.447)" fill="#fcfcfc"/><rect width="58.94" height="165.348" rx="1.404" transform="translate(65.025 19.447)" fill="#fcfcfc"/><rect width="30.149" height="87.021" transform="translate(48.463 8.686)" fill="#171d1a" opacity="0.25"/><rect width="58.94" height="165.348" rx="1.404" transform="translate(126.834 19.447)" fill="#fcfcfc"/><rect width="30.149" height="87.021" transform="translate(110.274 8.686)" fill="#171d1a" opacity="0.25"/><rect width="58.925" height="165.348" rx="1.404" transform="translate(188.642 19.447)" fill="#fcfcfc"/><rect width="58.952" height="165.348" rx="1.404" transform="translate(250.426 19.447)" fill="#fcfcfc"/><rect width="30.149" height="87.021" transform="translate(234.147 8.686)" fill="#171d1a" opacity="0.25"/><rect width="58.94" height="165.348" rx="1.404" transform="translate(312.246 19.447)" fill="#fcfcfc"/><rect width="30.149" height="87.021" transform="translate(295.667 8.686)" fill="#171d1a" opacity="0.25"/><rect width="58.913" height="165.347" rx="1.404" transform="translate(374.055 19.448)" fill="#fcfcfc"/><rect width="36.442" height="72.145" transform="translate(45.32 20.582)" fill="#171d1a"/><path d="M-51.44,358.488a8.411,8.411,0,0,1,8.412,8.412v75.286a8.368,8.368,0,0,1-8.382,8.382H-93.558a8.383,8.383,0,0,1-8.382-8.382V281.829a8.419,8.419,0,0,1,8.442-8.382h25.235a8.411,8.411,0,0,1,8.412,8.412v68.217a8.411,8.411,0,0,0,8.412,8.412Z" transform="translate(537.754 -265.784)" fill="#fcfcfc"/><rect width="36.442" height="72.145" transform="translate(107.127 20.582)" fill="#171d1a"/><rect width="36.457" height="72.145" transform="translate(230.717 20.582)" fill="#171d1a"/><rect width="36.457" height="72.145" transform="translate(292.512 20.582)" fill="#171d1a"/></g><rect width="497" height="24" transform="translate(5 2.889)" fill="#ffbc45"/></g></svg>