<svg xmlns="http://www.w3.org/2000/svg" xmlns:xlink="http://www.w3.org/1999/xlink" width="50.285" height="58.988" viewBox="0 0 50.285 58.988"><defs><linearGradient id="a" x1="0.766" y1="-0.11" x2="0.283" y2="0.961" gradientUnits="objectBoundingBox"><stop offset="0" stop-color="#bbb"/><stop offset="1" stop-color="#fcfcfc"/></linearGradient><clipPath id="b"><rect width="20" height="20" transform="translate(-17892 -17361)" fill="#fff" stroke="#707070" stroke-width="1"/></clipPath></defs><g transform="translate(-437.342 -1510.496)"><g transform="translate(16522.342 19874.531)"><path d="M42.523,0a3,3,0,0,1,2.588,1.482L58.1,23.625a3,3,0,0,1,0,3.036L45.111,48.8a3,3,0,0,1-2.588,1.482H16.465A3,3,0,0,1,13.878,48.8L.89,26.66a3,3,0,0,1,0-3.036L13.878,1.482A3,3,0,0,1,16.465,0Z" transform="translate(-16085 -18305.047) rotate(-90)" fill="#3ab7f7"/><g opacity="0.71" style="mix-blend-mode:multiply;isolation:isolate"><path d="M41.069,0a3,3,0,0,1,2.579,1.468L56.126,22.481a3,3,0,0,1,0,3.063L43.648,46.557a3,3,0,0,1-2.58,1.468h-25.1a3,3,0,0,1-2.58-1.468L.91,25.544a3,3,0,0,1,0-3.063L13.387,1.468A3,3,0,0,1,15.966,0Z" transform="translate(-16083.87 -18306.023) rotate(-90)" fill="url(#a)"/><path d="M15.966.5a2.511,2.511,0,0,0-2.15,1.224L1.339,22.736a2.5,2.5,0,0,0,0,2.553L13.817,46.3a2.511,2.511,0,0,0,2.15,1.224h25.1a2.511,2.511,0,0,0,2.15-1.224L55.7,25.289a2.5,2.5,0,0,0,0-2.553L43.218,1.724A2.511,2.511,0,0,0,41.069.5h-25.1m0-.5h25.1a3,3,0,0,1,2.579,1.468L56.126,22.481a3,3,0,0,1,0,3.063L43.648,46.557a3,3,0,0,1-2.579,1.468h-25.1a3,3,0,0,1-2.579-1.468L.91,25.544a3,3,0,0,1,0-3.063L13.387,1.468A3,3,0,0,1,15.966,0Z" transform="translate(-16083.87 -18306.023) rotate(-90)" fill="#fcfcfc"/></g></g><g transform="translate(18344.482 18884)" clip-path="url(#b)"><g transform="translate(-17887.271 -17359.648)" style="isolation:isolate"><g transform="translate(0 3.01)"><path d="M568.458,3326.794a5.27,5.27,0,0,0-2.878,9.686l.041.027v1.737a2.834,2.834,0,1,0,5.668,0v-1.737l.041-.027a5.268,5.268,0,0,0-2.872-9.686Zm1.982,11.45a1.981,1.981,0,1,1-3.961,0v-.52h3.961Zm.234-2.362-.02.014a.427.427,0,0,0-.214.37v.605h-1.555v-2.828l.063-.02a1.586,1.586,0,0,0,1.1-1.509.427.427,0,0,0-.853,0,.731.731,0,0,1-.728.734h0a.731.731,0,0,1-.73-.729.427.427,0,1,0-.853-.005,1.587,1.587,0,0,0,1.1,1.51l.061.02v2.826h-1.553v-.6a.429.429,0,0,0-.214-.371,4.418,4.418,0,1,1,4.407-.01Z" transform="translate(-563.187 -3326.794)" fill="#fcfcfc"/><path d="M568.458,3326.669a5.393,5.393,0,0,1,2.956,9.906v1.669a2.959,2.959,0,1,1-5.918,0v-1.669a5.4,5.4,0,0,1,2.962-9.906Zm0,14.285a2.712,2.712,0,0,0,2.708-2.71v-1.8l.1-.064a5.144,5.144,0,1,0-5.614,0l.1.063v1.8A2.713,2.713,0,0,0,568.457,3340.954Zm.012-13.434a4.541,4.541,0,0,1,2.273,8.468l-.026.017a.3.3,0,0,0-.151.261v.73h-1.8v-3.044l.15-.047a1.463,1.463,0,0,0,1.008-1.389.3.3,0,0,0-.515-.213.3.3,0,0,0-.088.212.855.855,0,1,1-1.71.005.3.3,0,0,0-.3-.3h-.013a.3.3,0,0,0-.291.3,1.464,1.464,0,0,0,1.01,1.391l.147.047v3.042h-1.8v-.73a.306.306,0,0,0-.152-.263,4.542,4.542,0,0,1-1.684-6.2A4.559,4.559,0,0,1,568.469,3327.52Zm2.118,8.271.025-.017a4.291,4.291,0,1,0-4.283.01.556.556,0,0,1,.277.48v.48h1.3v-2.61a1.714,1.714,0,0,1-1.157-1.62.553.553,0,0,1,.541-.55h.017a.552.552,0,0,1,.546.555.605.605,0,1,0,1.21-.005.552.552,0,0,1,1.1,0,1.713,1.713,0,0,1-1.159,1.619v2.611h1.3v-.48A.551.551,0,0,1,570.587,3335.791Zm-4.233,1.808h4.211v.645a2.106,2.106,0,1,1-4.211,0Zm3.961.25H566.6v.395a1.856,1.856,0,1,0,3.711,0Z" transform="translate(-563.187 -3326.794)" fill="#fcfcfc"/></g><g transform="translate(4.845 0)"><path d="M591.18,3310.361v.91a.423.423,0,0,1-.125.3.4.4,0,0,1-.3.125.429.429,0,0,1-.425-.428v-.909a.427.427,0,1,1,.853,0Z" transform="translate(-590.327 -3309.934)" fill="#fcfcfc"/><path d="M590.754,3309.809a.552.552,0,0,1,.552.552v.91a.547.547,0,0,1-.162.39.518.518,0,0,1-.4.162.555.555,0,0,1-.546-.553v-.909A.552.552,0,0,1,590.754,3309.809Zm.019,1.765a.287.287,0,0,0,.2-.09.3.3,0,0,0,.087-.212v-.91a.3.3,0,1,0-.6,0v.909a.3.3,0,0,0,.3.3h.02Z" transform="translate(-590.327 -3309.934)" fill="#fcfcfc"/></g><g transform="translate(2.586 0.373)"><path d="M578.813,3313.477a.423.423,0,0,1-.237.223.417.417,0,0,1-.327-.011.421.421,0,0,1-.225-.238l-.321-.85a.431.431,0,0,1,.011-.327.42.42,0,0,1,.239-.223.4.4,0,0,1,.152-.029.436.436,0,0,1,.175.038.427.427,0,0,1,.223.239l.321.848A.42.42,0,0,1,578.813,3313.477Z" transform="translate(-577.676 -3312.023)" fill="#fcfcfc"/><path d="M578.425,3313.853a.54.54,0,0,1-.228-.05.548.548,0,0,1-.289-.307l-.321-.85a.556.556,0,0,1,.014-.422.541.541,0,0,1,.31-.29.548.548,0,0,1,.71.322l.321.847a.553.553,0,0,1-.516.749Zm-.32-1.7a.275.275,0,0,0-.1.02.3.3,0,0,0-.172.158.306.306,0,0,0-.007.232l.321.849a.3.3,0,0,0,.159.168.291.291,0,0,0,.231.008.3.3,0,0,0,.176-.39l-.321-.849a.3.3,0,0,0-.281-.2Z" transform="translate(-577.676 -3312.023)" fill="#fcfcfc"/></g><g transform="translate(6.78 0.318)"><path d="M602.316,3312.349l-.32.848a.427.427,0,0,1-.552.248.427.427,0,0,1-.248-.55l.321-.85a.426.426,0,0,1,.223-.24.434.434,0,0,1,.175-.038.406.406,0,0,1,.152.029l.032-.084-.03.084A.427.427,0,0,1,602.316,3312.349Z" transform="translate(-601.168 -3311.713)" fill="#fcfcfc"/><path d="M601.916,3311.643a.528.528,0,0,1,.2.038h0a.553.553,0,0,1,.319.713l-.319.848a.552.552,0,0,1-.713.321.553.553,0,0,1-.321-.711l.321-.849a.549.549,0,0,1,.287-.309A.561.561,0,0,1,601.916,3311.643Zm.132.281-.026-.01a.3.3,0,0,0-.23.007.3.3,0,0,0-.157.168l-.322.851a.3.3,0,0,0,.174.388.3.3,0,0,0,.392-.175l.319-.848A.3.3,0,0,0,602.048,3311.924Z" transform="translate(-601.168 -3311.713)" fill="#fcfcfc"/></g></g></g></g></svg>