<svg xmlns="http://www.w3.org/2000/svg" xmlns:xlink="http://www.w3.org/1999/xlink" width="50.285" height="58.988" viewBox="0 0 50.285 58.988"><defs><linearGradient id="a" x1="0.766" y1="-0.11" x2="0.283" y2="0.961" gradientUnits="objectBoundingBox"><stop offset="0" stop-color="#bbb"/><stop offset="1" stop-color="#fcfcfc"/></linearGradient><clipPath id="b"><rect width="20" height="20" transform="translate(-18018 -17361)" fill="#fff" stroke="#707070" stroke-width="1"/></clipPath></defs><g transform="translate(-255.803 -1510.496)"><g transform="translate(16340.803 19811.543)"><path d="M42.523,0a3,3,0,0,1,2.588,1.482L58.1,23.625a3,3,0,0,1,0,3.036L45.111,48.8a3,3,0,0,1-2.588,1.482H16.465A3,3,0,0,1,13.878,48.8L.89,26.66a3,3,0,0,1,0-3.036L13.878,1.482A3,3,0,0,1,16.465,0Z" transform="translate(-16085 -18242.059) rotate(-90)" fill="#8c8cf2"/><g opacity="0.71" style="mix-blend-mode:multiply;isolation:isolate"><path d="M41.069,0a3,3,0,0,1,2.579,1.468L56.126,22.481a3,3,0,0,1,0,3.063L43.648,46.557a3,3,0,0,1-2.58,1.468h-25.1a3,3,0,0,1-2.58-1.468L.91,25.544a3,3,0,0,1,0-3.063L13.387,1.468A3,3,0,0,1,15.966,0Z" transform="translate(-16083.87 -18243.035) rotate(-90)" fill="url(#a)"/><path d="M15.966.5a2.511,2.511,0,0,0-2.15,1.224L1.339,22.736a2.5,2.5,0,0,0,0,2.553L13.817,46.3a2.511,2.511,0,0,0,2.15,1.224h25.1a2.511,2.511,0,0,0,2.15-1.224L55.7,25.289a2.5,2.5,0,0,0,0-2.553L43.218,1.724A2.511,2.511,0,0,0,41.069.5h-25.1m0-.5h25.1a3,3,0,0,1,2.579,1.468L56.126,22.481a3,3,0,0,1,0,3.063L43.648,46.557a3,3,0,0,1-2.579,1.468h-25.1a3,3,0,0,1-2.579-1.468L.91,25.544a3,3,0,0,1,0-3.063L13.387,1.468A3,3,0,0,1,15.966,0Z" transform="translate(-16083.87 -18243.035) rotate(-90)" fill="#fcfcfc"/></g></g><g transform="translate(18288.627 18884)" clip-path="url(#b)"><g transform="translate(-18016.92 -17359.648)" style="isolation:isolate"><path d="M1132.008,3324.659l2.729,2.727-2.729,2.729a.524.524,0,0,1-.741-.741l1.464-1.464h-3.344a4.823,4.823,0,0,1-3.646-1.664l-2.426-2.8a3.783,3.783,0,0,0-2.858-1.323h-3.037a.524.524,0,0,1,0-1.047h3.047a3.786,3.786,0,0,0,2.843-1.28l2.431-2.8a4.82,4.82,0,0,1,3.646-1.666h3.342l-1.462-1.464a.524.524,0,0,1,0-.741.534.534,0,0,1,.739,0l2.729,2.729-2.729,2.727a.525.525,0,0,1-.741,0,.525.525,0,0,1,0-.739l1.464-1.464h-3.344a3.774,3.774,0,0,0-2.854,1.3l-2.433,2.8a4.7,4.7,0,0,1-1.158.965l-.274.162.272.164a4.944,4.944,0,0,1,1.165.984l2.426,2.8a3.777,3.777,0,0,0,2.856,1.3h3.344l-1.462-1.464a.521.521,0,0,1-.154-.37.513.513,0,0,1,.154-.369A.533.533,0,0,1,1132.008,3324.659Z" transform="translate(-1116.897 -3312.973)" fill="#fcfcfc"/><path d="M1131.638,3330.518h0a.775.775,0,0,1-.547-.231.773.773,0,0,1,0-1.09l1.038-1.037h-2.74a5.073,5.073,0,0,1-3.835-1.75l-2.426-2.8a3.538,3.538,0,0,0-2.671-1.237h-3.036a.774.774,0,0,1,0-1.547h3.047a3.545,3.545,0,0,0,2.655-1.195l2.43-2.8a5.067,5.067,0,0,1,3.835-1.752h2.739l-1.036-1.037a.77.77,0,0,1,.547-1.316.777.777,0,0,1,.547.222l2.906,2.906-2.906,2.9a.773.773,0,0,1-1.094-1.093l1.037-1.037h-2.738a3.525,3.525,0,0,0-2.667,1.218l-2.434,2.8a4.943,4.943,0,0,1-1.135.966,5.193,5.193,0,0,1,1.141.982l2.426,2.8a3.526,3.526,0,0,0,2.667,1.218h2.741l-1.036-1.037a.772.772,0,0,1,1.093-1.092l2.905,2.9-2.906,2.905A.769.769,0,0,1,1131.638,3330.518Zm-14.218-9.191a.274.274,0,0,0,0,.547h3.037a4.037,4.037,0,0,1,3.048,1.411l2.425,2.8a4.573,4.573,0,0,0,3.458,1.578h3.947l-1.891,1.891a.272.272,0,0,0,0,.385.275.275,0,0,0,.2.083.272.272,0,0,0,.191-.081l2.552-2.552-2.552-2.55a.273.273,0,0,0-.193-.075.267.267,0,0,0-.273.268.272.272,0,0,0,.081.193l1.889,1.891h-3.945a4.027,4.027,0,0,1-3.047-1.391l-2.426-2.8a4.69,4.69,0,0,0-1.106-.934l-.63-.379.635-.375a4.451,4.451,0,0,0,1.1-.914l2.434-2.8a4.025,4.025,0,0,1,3.043-1.39h3.947l-1.891,1.891a.267.267,0,0,0-.079.193.271.271,0,0,0,.272.272.276.276,0,0,0,.2-.08l2.551-2.549-2.552-2.552a.273.273,0,0,0-.193-.075.269.269,0,0,0-.191.074.274.274,0,0,0,0,.388l1.889,1.891h-3.945a4.567,4.567,0,0,0-3.457,1.58l-2.432,2.8a4.048,4.048,0,0,1-3.031,1.366Z" transform="translate(-1116.897 -3312.973)" fill="#fcfcfc"/></g></g></g></svg>