<svg xmlns="http://www.w3.org/2000/svg" xmlns:xlink="http://www.w3.org/1999/xlink" width="50.285" height="58.988" viewBox="0 0 50.285 58.988"><defs><linearGradient id="a" x1="0.766" y1="-0.11" x2="0.283" y2="0.961" gradientUnits="objectBoundingBox"><stop offset="0" stop-color="#bbb"/><stop offset="1" stop-color="#fcfcfc"/></linearGradient><clipPath id="b"><rect width="20" height="20" transform="translate(-18198 -17317)" fill="#fff" stroke="#707070" stroke-width="1"/></clipPath></defs><g transform="translate(-753.373 -1510.496)"><g transform="translate(16779.373 19937.52)"><path d="M42.523,0a3,3,0,0,1,2.588,1.482L58.1,23.625a3,3,0,0,1,0,3.036L45.111,48.8a3,3,0,0,1-2.588,1.482H16.465A3,3,0,0,1,13.878,48.8L.89,26.66a3,3,0,0,1,0-3.036L13.878,1.482A3,3,0,0,1,16.465,0Z" transform="translate(-16026 -18368.035) rotate(-90)" fill="#fc7f93"/><g opacity="0.71" style="mix-blend-mode:multiply;isolation:isolate"><path d="M41.069,0a3,3,0,0,1,2.579,1.468L56.126,22.481a3,3,0,0,1,0,3.063L43.648,46.557a3,3,0,0,1-2.58,1.468h-25.1a3,3,0,0,1-2.58-1.468L.91,25.544a3,3,0,0,1,0-3.063L13.387,1.468A3,3,0,0,1,15.966,0Z" transform="translate(-16024.87 -18369.012) rotate(-90)" fill="url(#a)"/><path d="M15.966.5a2.511,2.511,0,0,0-2.15,1.224L1.339,22.736a2.5,2.5,0,0,0,0,2.553L13.817,46.3a2.511,2.511,0,0,0,2.15,1.224h25.1a2.511,2.511,0,0,0,2.15-1.224L55.7,25.289a2.5,2.5,0,0,0,0-2.553L43.218,1.724A2.511,2.511,0,0,0,41.069.5h-25.1m0-.5h25.1a3,3,0,0,1,2.579,1.468L56.126,22.481a3,3,0,0,1,0,3.063L43.648,46.557a3,3,0,0,1-2.579,1.468h-25.1a3,3,0,0,1-2.579-1.468L.91,25.544a3,3,0,0,1,0-3.063L13.387,1.468A3,3,0,0,1,15.966,0Z" transform="translate(-16024.87 -18369.012) rotate(-90)" fill="#fcfcfc"/></g></g><g transform="translate(18966.516 18840)" clip-path="url(#b)"><g transform="translate(-18197.236 -17314.574)"><g transform="translate(0 0)"><path d="M988.224,3319.036a.475.475,0,0,1-.229.32.483.483,0,0,1-.626-.135,6.2,6.2,0,0,0-11.052,2.813l-.134.863,1.959-1.471a.479.479,0,0,1,.575.767l-2.675,2a.482.482,0,0,1-.673-.1l-2-2.675a.479.479,0,1,1,.767-.575l1.125,1.5.157-.78a7.156,7.156,0,0,1,12.72-2.925A.486.486,0,0,1,988.224,3319.036Z" transform="translate(-973.27 -3315.814)" fill="#fcfcfc"/><path d="M982.432,3315.564h0a7.485,7.485,0,0,1,5.9,2.93.735.735,0,0,1,.138.588.725.725,0,0,1-.71.586.742.742,0,0,1-.59-.3,5.92,5.92,0,0,0-3.826-2.274,5.941,5.941,0,0,0-6.781,4.972l-.04.256,1.468-1.1a.724.724,0,0,1,.436-.145.729.729,0,0,1,.723.833.724.724,0,0,1-.284.479l-2.675,2a.732.732,0,0,1-1.023-.147l-2-2.675a.73.73,0,0,1,.583-1.167.737.737,0,0,1,.583.291l.79,1.054.047-.232A7.443,7.443,0,0,1,982.432,3315.564Zm5.329,3.6a.218.218,0,0,0,.11-.03.226.226,0,0,0,.109-.154.235.235,0,0,0-.046-.188,6.906,6.906,0,0,0-12.275,2.824l-.267,1.328-1.46-1.948a.234.234,0,0,0-.323-.044.224.224,0,0,0-.087.149.229.229,0,0,0,.043.171l2,2.675a.232.232,0,0,0,.323.046l2.674-2a.229.229,0,0,0-.275-.367l-2.45,1.84.227-1.47a6.446,6.446,0,0,1,11.5-2.926A.245.245,0,0,0,987.76,3319.168Z" transform="translate(-973.27 -3315.814)" fill="#fcfcfc"/></g><g transform="translate(3.358 6.679)"><path d="M1007.075,3356.885a.481.481,0,0,1-.674-.075l-1.281-1.6-.142.763a7.156,7.156,0,0,1-12.745,3,.447.447,0,0,1-.08-.365.479.479,0,0,1,.233-.324.461.461,0,0,1,.237-.064.491.491,0,0,1,.392.2,6.2,6.2,0,0,0,11.045-2.746l.149-.908-1.8,1.423a.478.478,0,0,1-.772-.431.48.48,0,0,1,.178-.32l2.518-1.987a.477.477,0,0,1,.669.076l2.15,2.689A.478.478,0,0,1,1007.075,3356.885Z" transform="translate(-992.142 -3353.344)" fill="#fcfcfc"/><path d="M1004.627,3353.094a.725.725,0,0,1,.569.273l2.15,2.689a.728.728,0,0,1-.114,1.024.731.731,0,0,1-1.025-.113l-.941-1.176-.042.227a7.4,7.4,0,0,1-7.276,6.044,7.479,7.479,0,0,1-3.264-.754,7.4,7.4,0,0,1-2.651-2.189.693.693,0,0,1-.125-.565.728.728,0,0,1,.354-.491.709.709,0,0,1,.361-.1.737.737,0,0,1,.591.3,5.927,5.927,0,0,0,3.765,2.265,6,6,0,0,0,.97.08,5.925,5.925,0,0,0,5.865-4.981l.044-.271-1.294,1.023a.728.728,0,0,1-1.175-.658.724.724,0,0,1,.269-.484l2.52-1.989A.728.728,0,0,1,1004.627,3353.094Zm2.15,3.646a.231.231,0,0,0,.144-.051.227.227,0,0,0,.083-.153.223.223,0,0,0-.048-.166l-2.15-2.69a.228.228,0,0,0-.178-.085.223.223,0,0,0-.14.049l-2.519,1.988a.228.228,0,0,0-.084.152.219.219,0,0,0,.046.168.221.221,0,0,0,.152.086h.005a.215.215,0,0,0,.165-.047l2.308-1.824-.254,1.545a6.447,6.447,0,0,1-11.491,2.857.241.241,0,0,0-.193-.1.21.21,0,0,0-.109.029.232.232,0,0,0-.115.156.2.2,0,0,0,.034.166,6.906,6.906,0,0,0,12.3-2.891l.242-1.3,1.622,2.027a.229.229,0,0,0,.155.085Z" transform="translate(-992.142 -3353.344)" fill="#fcfcfc"/></g></g></g></g></svg>