<svg xmlns="http://www.w3.org/2000/svg" xmlns:xlink="http://www.w3.org/1999/xlink" width="50.285" height="58.033" viewBox="0 0 50.285 58.033"><defs><linearGradient id="a" x1="0.766" y1="-0.11" x2="0.283" y2="0.961" gradientUnits="objectBoundingBox"><stop offset="0" stop-color="#bbb"/><stop offset="1" stop-color="#fcfcfc"/></linearGradient><clipPath id="b"><rect width="20" height="20" transform="translate(-17815 -17365)" fill="#fff" stroke="#707070" stroke-width="1"/></clipPath></defs><g transform="translate(-561.482 -1510.974)"><g transform="translate(16646.482 19874.531)"><path d="M42.523,0a3,3,0,0,1,2.588,1.482L58.1,23.625a3,3,0,0,1,0,3.036L45.111,48.8a3,3,0,0,1-2.588,1.482H16.465A3,3,0,0,1,13.878,48.8L.89,26.66a3,3,0,0,1,0-3.036L13.878,1.482A3,3,0,0,1,16.465,0Z" transform="translate(-16085 -18305.047) rotate(-90)" fill="#3ab7f7"/><g opacity="0.71" style="mix-blend-mode:multiply;isolation:isolate"><path d="M41.069,0a3,3,0,0,1,2.579,1.468L56.126,22.481a3,3,0,0,1,0,3.063L43.648,46.557a3,3,0,0,1-2.58,1.468h-25.1a3,3,0,0,1-2.58-1.468L.91,25.544a3,3,0,0,1,0-3.063L13.387,1.468A3,3,0,0,1,15.966,0Z" transform="translate(-16083.87 -18306.023) rotate(-90)" fill="url(#a)"/><path d="M15.966.5a2.511,2.511,0,0,0-2.15,1.224L1.339,22.736a2.5,2.5,0,0,0,0,2.553L13.817,46.3a2.511,2.511,0,0,0,2.15,1.224h25.1a2.511,2.511,0,0,0,2.15-1.224L55.7,25.289a2.5,2.5,0,0,0,0-2.553L43.218,1.724A2.511,2.511,0,0,0,41.069.5h-25.1m0-.5h25.1a3,3,0,0,1,2.579,1.468L56.126,22.481a3,3,0,0,1,0,3.063L43.648,46.557a3,3,0,0,1-2.579,1.468h-25.1a3,3,0,0,1-2.579-1.468L.91,25.544a3,3,0,0,1,0-3.063L13.387,1.468A3,3,0,0,1,15.966,0Z" transform="translate(-16083.87 -18306.023) rotate(-90)" fill="#fcfcfc"/></g></g><g transform="translate(18390.627 18888)" clip-path="url(#b)"><g transform="translate(-17813.77 -17363.648)" style="isolation:isolate"><g transform="translate(2.737 8.563)"><path d="M664.213,3359.79a2.995,2.995,0,1,0-.026,2.294A2.979,2.979,0,0,0,664.213,3359.79Zm-.643,2.029-.088.206V3362a2.324,2.324,0,0,1-2.048,1.225,2.293,2.293,0,0,1-.907-.185,2.318,2.318,0,1,1,3.042-1.22Z" transform="translate(-658.44 -3357.914)" fill="#fcfcfc"/><path d="M661.44,3357.789a3.116,3.116,0,0,1,2.862,4.343,3.119,3.119,0,0,1-2.872,1.893,3.118,3.118,0,0,1,.01-6.237Zm-.01,5.987a2.868,2.868,0,0,0,1.131-5.506,2.833,2.833,0,0,0-1.121-.23,2.868,2.868,0,0,0-1.13,5.506A2.835,2.835,0,0,0,661.43,3363.776Zm.009-5.314a2.446,2.446,0,0,1,2.265,1.532,2.46,2.46,0,0,1-.019,1.874l-.088.206-.012,0a2.44,2.44,0,0,1-2.151,1.278,2.412,2.412,0,0,1-.956-.195,2.444,2.444,0,0,1,.961-4.693Zm1.942,3.481.074-.173a2.209,2.209,0,0,0,.017-1.682,2.194,2.194,0,1,0-2.9,2.837,2.161,2.161,0,0,0,.858.175,2.19,2.19,0,0,0,1.937-1.159Z" transform="translate(-658.44 -3357.914)" fill="#fcfcfc"/></g><g transform="translate(0 5.823)"><path d="M654.734,3349.853l-.852-.362.007-.035a4.6,4.6,0,0,0,.015-1.427l-.005-.035.857-.344a.338.338,0,0,0,.185-.439l-.562-1.4a.337.337,0,0,0-.438-.187l-.855.344-.022-.029a4.625,4.625,0,0,0-1-1.02l-.029-.022.363-.848a.333.333,0,0,0,0-.259.341.341,0,0,0-.179-.185l-1.388-.592a.336.336,0,0,0-.256,0,.328.328,0,0,0-.185.179l-.363.85-.035-.005a4.6,4.6,0,0,0-1.427-.015l-.037.006-.344-.856a.339.339,0,0,0-.438-.188l-1.4.564a.337.337,0,0,0-.187.438l.344.855-.029.022a4.577,4.577,0,0,0-1.018,1l-.022.029-.848-.363a.34.34,0,0,0-.443.178l-.592,1.388a.34.34,0,0,0,0,.258.352.352,0,0,0,.181.185l.848.361-.006.037a4.6,4.6,0,0,0-.013,1.427l.005.036-.855.342a.34.34,0,0,0-.189.438l.564,1.4a.336.336,0,0,0,.438.187l.855-.344.022.029a4.6,4.6,0,0,0,1,1.021l.029.021-.363.848a.338.338,0,0,0,.178.443l1.386.59a.337.337,0,0,0,.443-.176l.363-.85.035.006a4.608,4.608,0,0,0,1.427.014l.037-.006.344.857a.336.336,0,0,0,.438.187l1.4-.562a.338.338,0,0,0,.187-.438l-.346-.855.029-.022a4.606,4.606,0,0,0,1.018-1l.022-.029.848.363a.337.337,0,0,0,.443-.176l.592-1.39A.336.336,0,0,0,654.734,3349.853Zm-.9,1.253-.791-.337a.336.336,0,0,0-.414.126,4.047,4.047,0,0,1-1.258,1.235.338.338,0,0,0-.136.412l.321.8-.773.312-.321-.8a.336.336,0,0,0-.311-.213.284.284,0,0,0-.07.008,4.034,4.034,0,0,1-1.764-.019.333.333,0,0,0-.388.2l-.337.793-.767-.328.337-.791a.336.336,0,0,0-.126-.414,4.02,4.02,0,0,1-1.233-1.258.341.341,0,0,0-.414-.136l-.8.317-.311-.775.8-.321a.337.337,0,0,0,.2-.383,4,4,0,0,1,.018-1.762.335.335,0,0,0-.2-.388l-.791-.339.328-.766.791.337a.336.336,0,0,0,.414-.127,4.033,4.033,0,0,1,1.26-1.234.337.337,0,0,0,.134-.412l-.322-.8.775-.312.32.8a.335.335,0,0,0,.383.2,4.042,4.042,0,0,1,1.764.018.336.336,0,0,0,.388-.2l.337-.792.767.326-.339.791a.337.337,0,0,0,.128.416,4,4,0,0,1,1.233,1.258.338.338,0,0,0,.412.135l.8-.322.311.775-.8.326a.334.334,0,0,0-.2.383,4.025,4.025,0,0,1-.018,1.762.335.335,0,0,0,.2.388l.791.337Z" transform="translate(-643.499 -3342.956)" fill="#fcfcfc"/><path d="M650.592,3354.552a.463.463,0,0,1-.429-.291l-.307-.765a4.738,4.738,0,0,1-1.342-.013l-.324.76a.462.462,0,0,1-.608.241l-1.385-.589a.464.464,0,0,1-.244-.607l.324-.758a4.72,4.72,0,0,1-.939-.96l-.765.308a.458.458,0,0,1-.172.034.463.463,0,0,1-.429-.29l-.564-1.4a.466.466,0,0,1,.258-.6l.765-.306a4.726,4.726,0,0,1,.012-1.344l-.758-.323a.478.478,0,0,1-.248-.252.467.467,0,0,1,0-.355l.592-1.389a.465.465,0,0,1,.606-.244l.759.325a4.694,4.694,0,0,1,.958-.941l-.308-.765a.462.462,0,0,1,.256-.6l1.4-.564a.464.464,0,0,1,.6.258l.308.765a4.717,4.717,0,0,1,1.342.014l.325-.76a.452.452,0,0,1,.254-.247.461.461,0,0,1,.351.005l1.389.592a.464.464,0,0,1,.246.254.456.456,0,0,1,0,.353l-.324.759a4.746,4.746,0,0,1,.939.96l.765-.308a.461.461,0,0,1,.6.256l.563,1.4a.463.463,0,0,1-.254.6l-.766.308a4.729,4.729,0,0,1-.014,1.341l.76.323a.462.462,0,0,1,.242.606l-.591,1.39a.462.462,0,0,1-.607.242l-.759-.325a4.725,4.725,0,0,1-.958.939l.31.765a.465.465,0,0,1-.256.6l-1.4.563A.456.456,0,0,1,650.592,3354.552Zm-.578-1.332.381.949a.212.212,0,0,0,.2.133.207.207,0,0,0,.078-.015l1.4-.562a.214.214,0,0,0,.117-.276l-.382-.943.106-.08a4.486,4.486,0,0,0,.993-.973l.081-.108.938.4a.221.221,0,0,0,.164,0,.216.216,0,0,0,.116-.114l.591-1.388a.212.212,0,0,0-.11-.278l-.945-.4.028-.133a4.48,4.48,0,0,0,.014-1.385l-.021-.132.95-.381a.209.209,0,0,0,.114-.114.212.212,0,0,0,0-.163l-.562-1.4a.212.212,0,0,0-.2-.133.207.207,0,0,0-.078.015l-.945.38-.08-.106a4.513,4.513,0,0,0-.973-1l-.108-.081.4-.938a.206.206,0,0,0,0-.162.216.216,0,0,0-.114-.119l-1.387-.591a.213.213,0,0,0-.161,0,.205.205,0,0,0-.116.112l-.4.939-.13-.019a4.473,4.473,0,0,0-1.391-.015l-.133.021-.382-.948a.216.216,0,0,0-.2-.134.21.21,0,0,0-.077.015l-1.4.564a.212.212,0,0,0-.118.275l.38.945-.106.08a4.46,4.46,0,0,0-.993.975l-.082.108-.938-.4a.217.217,0,0,0-.082-.016.213.213,0,0,0-.2.129l-.592,1.388a.216.216,0,0,0,0,.164.226.226,0,0,0,.116.117l.935.4-.02.133a4.482,4.482,0,0,0-.013,1.39l.02.134-.947.379a.215.215,0,0,0-.119.276l.564,1.4a.211.211,0,0,0,.275.117l.945-.38.079.106a4.486,4.486,0,0,0,.973.995l.109.08-.4.94a.214.214,0,0,0,.112.279l1.386.589a.212.212,0,0,0,.28-.111l.4-.94.132.022a4.494,4.494,0,0,0,1.388.014Zm.694.595-.367-.915a.21.21,0,0,0-.2-.134.159.159,0,0,0-.039,0,4.158,4.158,0,0,1-1.823-.018.23.23,0,0,0-.051-.006.205.205,0,0,0-.193.128l-.386.91-1-.427.386-.906a.209.209,0,0,0-.079-.26,4.144,4.144,0,0,1-1.272-1.3.218.218,0,0,0-.262-.085l-.914.363-.4-1.007.917-.367a.213.213,0,0,0,.127-.241,4.127,4.127,0,0,1,.019-1.817.21.21,0,0,0-.123-.244l-.907-.388.426-1,.906.386a.217.217,0,0,0,.083.017.208.208,0,0,0,.176-.1,4.16,4.16,0,0,1,1.3-1.273.212.212,0,0,0,.083-.259l-.369-.914,1.007-.405.367.915a.209.209,0,0,0,.2.133.2.2,0,0,0,.045,0,4.19,4.19,0,0,1,1.819.019.212.212,0,0,0,.245-.124l.386-.906,1,.425-.388.906a.213.213,0,0,0,.081.261,4.128,4.128,0,0,1,1.271,1.3.212.212,0,0,0,.259.085l.914-.369.4,1.006-.916.373a.21.21,0,0,0-.128.24,4.148,4.148,0,0,1-.019,1.817.211.211,0,0,0,.123.244l.907.386-.426,1-.906-.386a.209.209,0,0,0-.083-.017h0a.208.208,0,0,0-.177.1,4.172,4.172,0,0,1-1.3,1.273.212.212,0,0,0-.085.26l.367.914Zm-.562-1.3a.459.459,0,0,1,.427.291l.274.682.541-.218-.274-.682a.463.463,0,0,1,.186-.565,3.919,3.919,0,0,0,1.219-1.2.461.461,0,0,1,.568-.174l.676.288.23-.537-.676-.288a.46.46,0,0,1-.269-.532,3.9,3.9,0,0,0,.018-1.707.458.458,0,0,1,.28-.525l.684-.279-.218-.543-.683.275a.462.462,0,0,1-.565-.186,3.881,3.881,0,0,0-1.194-1.219.462.462,0,0,1-.176-.569l.29-.677-.537-.228-.288.677a.463.463,0,0,1-.424.281.456.456,0,0,1-.109-.013,3.937,3.937,0,0,0-1.708-.017.472.472,0,0,1-.1.01.457.457,0,0,1-.427-.29l-.274-.682-.543.219.276.682a.462.462,0,0,1-.184.565,3.91,3.91,0,0,0-1.221,1.2.457.457,0,0,1-.387.211.466.466,0,0,1-.181-.037l-.677-.289-.229.536.676.289a.46.46,0,0,1,.268.532,3.877,3.877,0,0,0-.018,1.707.463.463,0,0,1-.279.525l-.684.274.218.543.683-.271a.47.47,0,0,1,.172-.033.465.465,0,0,1,.394.218,3.894,3.894,0,0,0,1.195,1.22.459.459,0,0,1,.174.568l-.288.676.537.23.288-.678a.457.457,0,0,1,.423-.282.469.469,0,0,1,.109.013,3.919,3.919,0,0,0,1.709.018A.4.4,0,0,1,650.146,3352.516Z" transform="translate(-643.499 -3342.956)" fill="#fcfcfc"/></g><g transform="translate(11.339 2.573)"><path d="M707.219,3325.213a1.813,1.813,0,1,0,1.813,1.813A1.814,1.814,0,0,0,707.219,3325.213Zm0,2.951a1.138,1.138,0,1,1,1.139-1.138A1.14,1.14,0,0,1,707.219,3328.164Z" transform="translate(-705.407 -3325.213)" fill="#fcfcfc"/><path d="M707.219,3325.088a1.938,1.938,0,1,1-1.937,1.938A1.941,1.941,0,0,1,707.219,3325.088Zm0,3.625a1.688,1.688,0,1,0-1.687-1.687A1.689,1.689,0,0,0,707.219,3328.713Zm0-2.95a1.263,1.263,0,1,1-.894.37A1.265,1.265,0,0,1,707.219,3325.762Zm0,2.277a1.013,1.013,0,1,0-1.014-1.013A1.015,1.015,0,0,0,707.219,3328.039Z" transform="translate(-705.407 -3325.213)" fill="#fcfcfc"/></g><g transform="translate(8.768 0)"><path d="M699.8,3314.659h-.606l-.009-.035a3.428,3.428,0,0,0-.348-.85l-.016-.03.429-.43a.336.336,0,0,0,0-.476l-.782-.784a.338.338,0,0,0-.476,0l-.43.431-.031-.019a3.534,3.534,0,0,0-.848-.348l-.035-.009v-.608a.334.334,0,0,0-.335-.337H695.2a.357.357,0,0,0-.238.1.326.326,0,0,0-.1.236v.61l-.035.009a3.534,3.534,0,0,0-.848.348l-.031.019-.43-.431a.336.336,0,0,0-.474,0l-.784.784a.336.336,0,0,0,0,.476l.429.43-.017.03a3.432,3.432,0,0,0-.348.85l-.009.033H691.7a.338.338,0,0,0-.337.339v1.112a.336.336,0,0,0,.337.337h.608l.009.035a3.392,3.392,0,0,0,.348.848l.017.031-.429.431a.327.327,0,0,0-.1.236.338.338,0,0,0,.1.238l.786.784a.311.311,0,0,0,.238.1.335.335,0,0,0,.236-.1l.43-.431.031.019a3.53,3.53,0,0,0,.85.348l.033.009v.608a.337.337,0,0,0,.337.337h1.11a.338.338,0,0,0,.337-.335v-.612l.033-.009a3.367,3.367,0,0,0,.85-.348l.031-.017.431.429a.326.326,0,0,0,.236.1h0a.332.332,0,0,0,.236-.1l.784-.784a.338.338,0,0,0,0-.476l-.431-.431.017-.031a3.392,3.392,0,0,0,.348-.848l.009-.035h.608a.336.336,0,0,0,.337-.337V3315A.337.337,0,0,0,699.8,3314.659Zm-.335,1.108h-.542a.335.335,0,0,0-.332.281,2.867,2.867,0,0,1-.482,1.159.339.339,0,0,0,.038.432l.385.384-.308.308-.385-.385a.339.339,0,0,0-.432-.039,2.855,2.855,0,0,1-1.159.482.336.336,0,0,0-.278.332v.544h-.436v-.544a.338.338,0,0,0-.279-.332,2.855,2.855,0,0,1-1.161-.48.334.334,0,0,0-.43.036l-.386.387-.308-.308.386-.386a.336.336,0,0,0,.038-.43,2.858,2.858,0,0,1-.48-1.161.337.337,0,0,0-.331-.279h-.544v-.436h.542a.335.335,0,0,0,.331-.28,2.865,2.865,0,0,1,.482-1.16.336.336,0,0,0-.038-.432l-.385-.385.308-.309.385.386a.336.336,0,0,0,.432.037,2.882,2.882,0,0,1,1.159-.48.336.336,0,0,0,.28-.332v-.542h.434v.542a.341.341,0,0,0,.28.332,2.842,2.842,0,0,1,1.161.48.334.334,0,0,0,.43-.038l.386-.385.308.308-.387.385a.337.337,0,0,0-.037.432,2.86,2.86,0,0,1,.48,1.159.338.338,0,0,0,.332.28h.544Z" transform="translate(-691.367 -3311.164)" fill="#fcfcfc"/><path d="M695.193,3311.039h1.117a.459.459,0,0,1,.46.462v.512a3.666,3.666,0,0,1,.768.315l.363-.363a.463.463,0,0,1,.652,0l.783.785a.461.461,0,0,1,0,.653l-.362.363a3.549,3.549,0,0,1,.314.768h.51a.463.463,0,0,1,.462.462v1.112a.463.463,0,0,1-.462.462h-.512a3.512,3.512,0,0,1-.315.767l.364.364a.464.464,0,0,1,0,.653l-.784.784a.456.456,0,0,1-.325.134.45.45,0,0,1-.328-.137l-.362-.361a3.48,3.48,0,0,1-.768.314v.516a.464.464,0,0,1-.462.46H695.2a.463.463,0,0,1-.462-.462v-.513a3.639,3.639,0,0,1-.768-.315l-.363.363a.461.461,0,0,1-.325.134h-.012a.438.438,0,0,1-.316-.137l-.784-.783a.464.464,0,0,1-.134-.326.45.45,0,0,1,.137-.326l.361-.363a3.506,3.506,0,0,1-.315-.767H691.7a.463.463,0,0,1-.462-.462V3315a.464.464,0,0,1,.462-.464h.513a3.55,3.55,0,0,1,.314-.766l-.362-.364a.461.461,0,0,1,0-.653l.784-.784a.461.461,0,0,1,.651,0l.363.363a3.659,3.659,0,0,1,.768-.315v-.514a.45.45,0,0,1,.137-.326.479.479,0,0,1,.318-.134Zm2.386,1.6-.115-.068a3.4,3.4,0,0,0-.816-.334l-.128-.034v-.7a.209.209,0,0,0-.21-.212H695.2a.232.232,0,0,0-.154.062.2.2,0,0,0-.062.148v.706l-.128.034a3.4,3.4,0,0,0-.818.335l-.113.067-.5-.5a.21.21,0,0,0-.15-.062.206.206,0,0,0-.148.061l-.784.785a.211.211,0,0,0,0,.3l.5.5-.063.112a3.308,3.308,0,0,0-.336.82l-.035.126h-.7a.213.213,0,0,0-.212.214v1.112a.212.212,0,0,0,.212.212h.7l.034.128a3.263,3.263,0,0,0,.335.817l.062.116-.494.5a.2.2,0,0,0-.063.148.212.212,0,0,0,.061.15l.786.784a.191.191,0,0,0,.138.063h.007a.213.213,0,0,0,.153-.06l.5-.5.115.068a3.4,3.4,0,0,0,.818.334l.126.035v.7a.212.212,0,0,0,.212.212h1.11a.214.214,0,0,0,.212-.211v-.705l.124-.035a3.244,3.244,0,0,0,.821-.336l.116-.063.5.495a.2.2,0,0,0,.148.063.208.208,0,0,0,.15-.061l.784-.784a.214.214,0,0,0,0-.3l-.5-.5.06-.113a3.269,3.269,0,0,0,.337-.82l.034-.128h.7a.212.212,0,0,0,.212-.212V3315a.212.212,0,0,0-.212-.212h-.7l-.034-.127a3.31,3.31,0,0,0-.336-.82l-.063-.113.5-.5a.211.211,0,0,0,0-.3l-.782-.785a.214.214,0,0,0-.151-.062.21.21,0,0,0-.149.062Zm-2.169-.931h.684v.667a.216.216,0,0,0,.178.208,2.962,2.962,0,0,1,1.211.5.212.212,0,0,0,.121.038.206.206,0,0,0,.148-.062l.476-.473.485.484-.475.473a.212.212,0,0,0-.023.271,2.988,2.988,0,0,1,.5,1.211.213.213,0,0,0,.208.177h.67l-.006.686h-.666a.211.211,0,0,0-.208.176,3,3,0,0,1-.5,1.211.215.215,0,0,0,.025.272l.473.473-.484.485-.473-.474a.219.219,0,0,0-.272-.024,2.98,2.98,0,0,1-1.21.5.21.21,0,0,0-.175.208v.669h-.686v-.669a.213.213,0,0,0-.176-.209,2.984,2.984,0,0,1-1.211-.5.212.212,0,0,0-.27.023l-.475.475-.484-.484.475-.475a.211.211,0,0,0,.024-.271,2.982,2.982,0,0,1-.5-1.211.212.212,0,0,0-.208-.175h-.669v-.686h.667a.211.211,0,0,0,.208-.176,2.99,2.99,0,0,1,.5-1.211.21.21,0,0,0-.024-.271l-.473-.474.484-.487.473.475a.215.215,0,0,0,.271.023,3.013,3.013,0,0,1,1.211-.5.21.21,0,0,0,.177-.208Zm.434.25h-.184v.417a.46.46,0,0,1-.385.455,2.754,2.754,0,0,0-1.108.459.461.461,0,0,1-.593-.051l-.3-.3-.131.132.3.3a.46.46,0,0,1,.052.592,2.741,2.741,0,0,0-.461,1.109.46.46,0,0,1-.455.384h-.417v.186h.419a.462.462,0,0,1,.454.381,2.734,2.734,0,0,0,.459,1.111.461.461,0,0,1-.052.591l-.3.3.131.131.3-.3a.459.459,0,0,1,.591-.05,2.73,2.73,0,0,0,1.11.458.463.463,0,0,1,.382.455v.419h.186v-.419a.46.46,0,0,1,.382-.455,2.728,2.728,0,0,0,1.108-.461.465.465,0,0,1,.593.052l.3.3.131-.131-.3-.3a.462.462,0,0,1-.053-.592,2.742,2.742,0,0,0,.461-1.109.46.46,0,0,1,.455-.384h.418l0-.186h-.418a.463.463,0,0,1-.455-.383,2.737,2.737,0,0,0-.459-1.109.462.462,0,0,1,.049-.592l.3-.3-.131-.131-.3.3a.454.454,0,0,1-.325.136.46.46,0,0,1-.265-.083,2.712,2.712,0,0,0-1.11-.459.467.467,0,0,1-.385-.453Z" transform="translate(-691.367 -3311.164)" fill="#fcfcfc"/></g></g></g></g></svg>