<svg xmlns="http://www.w3.org/2000/svg" xmlns:xlink="http://www.w3.org/1999/xlink" width="50.285" height="58.988" viewBox="0 0 50.285 58.988"><defs><linearGradient id="a" x1="0.766" y1="-0.11" x2="0.283" y2="0.961" gradientUnits="objectBoundingBox"><stop offset="0" stop-color="#bbb"/><stop offset="1" stop-color="#fcfcfc"/></linearGradient></defs><g transform="translate(-197.943 -1510.496)"><g transform="translate(16282.943 20000.508)"><path d="M42.523,0a3,3,0,0,1,2.588,1.482L58.1,23.625a3,3,0,0,1,0,3.036L45.111,48.8a3,3,0,0,1-2.588,1.482H16.465A3,3,0,0,1,13.878,48.8L.89,26.66a3,3,0,0,1,0-3.036L13.878,1.482A3,3,0,0,1,16.465,0Z" transform="translate(-16085 -18431.023) rotate(-90)" fill="#ffd35e"/><g opacity="0.71" style="mix-blend-mode:multiply;isolation:isolate"><path d="M41.069,0a3,3,0,0,1,2.579,1.468L56.126,22.481a3,3,0,0,1,0,3.063L43.648,46.557a3,3,0,0,1-2.58,1.468h-25.1a3,3,0,0,1-2.58-1.468L.91,25.544a3,3,0,0,1,0-3.063L13.387,1.468A3,3,0,0,1,15.966,0Z" transform="translate(-16083.87 -18432) rotate(-90)" fill="url(#a)"/><path d="M15.966.5a2.511,2.511,0,0,0-2.15,1.224L1.339,22.736a2.5,2.5,0,0,0,0,2.553L13.817,46.3a2.511,2.511,0,0,0,2.15,1.224h25.1a2.511,2.511,0,0,0,2.15-1.224L55.7,25.289a2.5,2.5,0,0,0,0-2.553L43.218,1.724A2.511,2.511,0,0,0,41.069.5h-25.1m0-.5h25.1a3,3,0,0,1,2.579,1.468L56.126,22.481a3,3,0,0,1,0,3.063L43.648,46.557a3,3,0,0,1-2.579,1.468h-25.1a3,3,0,0,1-2.579-1.468L.91,25.544a3,3,0,0,1,0-3.063L13.387,1.468A3,3,0,0,1,15.966,0Z" transform="translate(-16083.87 -18432) rotate(-90)" fill="#fcfcfc"/></g></g><rect width="14" height="2" rx="1" transform="translate(216 1532)" fill="#fff"/><rect width="14" height="2" rx="1" transform="translate(224 1526) rotate(90)" fill="#fff"/></g></svg>