<svg xmlns="http://www.w3.org/2000/svg" width="763" height="59" viewBox="0 0 763 59"><g transform="translate(-121 -1444.001)"><rect width="59" height="763" rx="29.5" transform="translate(121 1503.001) rotate(-90)" fill="#717171"/><path d="M29.5,1A28.476,28.476,0,0,0,1,29.5v704a28.508,28.508,0,0,0,54.761,11.093A28.32,28.32,0,0,0,58,733.5V29.5A28.476,28.476,0,0,0,29.5,1m0-1A29.5,29.5,0,0,1,59,29.5v704a29.5,29.5,0,0,1-59,0V29.5A29.5,29.5,0,0,1,29.5,0Z" transform="translate(121 1503.001) rotate(-90)" fill="#707070"/></g></svg>