<svg xmlns="http://www.w3.org/2000/svg" xmlns:xlink="http://www.w3.org/1999/xlink" width="20" height="20" viewBox="0 0 20 20"><defs><clipPath id="a"><rect width="20" height="20" transform="translate(-18145 -17318)" fill="#fff" stroke="#707070" stroke-width="1"/></clipPath></defs><g transform="translate(18145 17318)" clip-path="url(#a)"><g transform="translate(-18144 -17312.791)"><path d="M357.655,3334.162l-2.334,2.336a.124.124,0,0,1-.139.027.126.126,0,0,1-.081-.118v-1.849H344.18a4.491,4.491,0,0,1-3.279-1.43,4.44,4.44,0,0,1-1.184-3.382,4.536,4.536,0,0,1,4.554-4.143h7.324a.484.484,0,0,1,0,.968H344.18a3.51,3.51,0,0,0-3.493,3.826,3.571,3.571,0,0,0,3.572,3.19H355.1v-1.851a.125.125,0,0,1,.079-.118.127.127,0,0,1,.141.028l2.334,2.334A.129.129,0,0,1,357.655,3334.162Z" transform="translate(-339.704 -3325.604)" fill="#fcfcfc"/><path d="M355.232,3336.786a.384.384,0,0,1-.146-.029.377.377,0,0,1-.235-.349v-1.6H344.18a4.742,4.742,0,0,1-3.462-1.51,4.686,4.686,0,0,1-1.251-3.57,4.787,4.787,0,0,1,4.8-4.374h7.324a.734.734,0,0,1,0,1.468H344.18a3.26,3.26,0,0,0-3.244,3.554,3.319,3.319,0,0,0,3.323,2.961h10.593v-1.6a.372.372,0,0,1,.232-.349.379.379,0,0,1,.409.077l0,0,2.334,2.334a.379.379,0,0,1,0,.535l-2.335,2.336A.373.373,0,0,1,355.232,3336.786Zm-10.962-10.932a4.286,4.286,0,0,0-4.3,3.911,4.191,4.191,0,0,0,1.118,3.194,4.241,4.241,0,0,0,3.1,1.35h11.172v1.806l2.041-2.043-2.041-2.041v1.808H344.258a3.822,3.822,0,0,1-3.821-3.418,3.76,3.76,0,0,1,3.742-4.1h7.415a.234.234,0,0,0,0-.468Z" transform="translate(-339.704 -3325.604)" fill="#fcfcfc"/></g></g></svg>