<svg xmlns="http://www.w3.org/2000/svg" xmlns:xlink="http://www.w3.org/1999/xlink" width="50.285" height="58.988" viewBox="0 0 50.285 58.988"><defs><linearGradient id="a" x1="0.766" y1="-0.11" x2="0.283" y2="0.961" gradientUnits="objectBoundingBox"><stop offset="0" stop-color="#bbb"/><stop offset="1" stop-color="#fcfcfc"/></linearGradient><clipPath id="b"><rect width="20" height="20" transform="translate(-17972 -17363)" fill="#fff" stroke="#707070" stroke-width="1"/></clipPath></defs><g transform="translate(-316.342 -1510.496)"><g transform="translate(16401.342 19811.543)"><path d="M42.523,0a3,3,0,0,1,2.588,1.482L58.1,23.625a3,3,0,0,1,0,3.036L45.111,48.8a3,3,0,0,1-2.588,1.482H16.465A3,3,0,0,1,13.878,48.8L.89,26.66a3,3,0,0,1,0-3.036L13.878,1.482A3,3,0,0,1,16.465,0Z" transform="translate(-16085 -18242.059) rotate(-90)" fill="#8c8cf2"/><g opacity="0.71" style="mix-blend-mode:multiply;isolation:isolate"><path d="M41.069,0a3,3,0,0,1,2.579,1.468L56.126,22.481a3,3,0,0,1,0,3.063L43.648,46.557a3,3,0,0,1-2.58,1.468h-25.1a3,3,0,0,1-2.58-1.468L.91,25.544a3,3,0,0,1,0-3.063L13.387,1.468A3,3,0,0,1,15.966,0Z" transform="translate(-16083.87 -18243.035) rotate(-90)" fill="url(#a)"/><path d="M15.966.5a2.511,2.511,0,0,0-2.15,1.224L1.339,22.736a2.5,2.5,0,0,0,0,2.553L13.817,46.3a2.511,2.511,0,0,0,2.15,1.224h25.1a2.511,2.511,0,0,0,2.15-1.224L55.7,25.289a2.5,2.5,0,0,0,0-2.553L43.218,1.724A2.511,2.511,0,0,0,41.069.5h-25.1m0-.5h25.1a3,3,0,0,1,2.579,1.468L56.126,22.481a3,3,0,0,1,0,3.063L43.648,46.557a3,3,0,0,1-2.579,1.468h-25.1a3,3,0,0,1-2.579-1.468L.91,25.544a3,3,0,0,1,0-3.063L13.387,1.468A3,3,0,0,1,15.966,0Z" transform="translate(-16083.87 -18243.035) rotate(-90)" fill="#fcfcfc"/></g></g><g transform="translate(18303.482 18886)" clip-path="url(#b)"><g transform="translate(-17971.727 -17360.047)" style="isolation:isolate"><g transform="translate(15.633)"><path d="M1471.335,3323.455a.57.57,0,0,0-.806.806h0a8.592,8.592,0,0,1,0,12.145.57.57,0,0,0,.806.806h0A9.731,9.731,0,0,0,1471.335,3323.455Z" transform="translate(-1470.362 -3323.288)" fill="#fcfcfc"/><path d="M1470.932,3323.163a.69.69,0,0,1,.491.2,9.856,9.856,0,0,1,0,13.933.695.695,0,0,1-.983-.983,8.478,8.478,0,0,0,0-11.968.695.695,0,0,1,.491-1.186Zm0,14.091a.442.442,0,0,0,.315-.13,9.619,9.619,0,0,0,0-13.58.445.445,0,0,0-.629.629,8.728,8.728,0,0,1,0,12.322.445.445,0,0,0,.315.76Z" transform="translate(-1470.362 -3323.288)" fill="#fcfcfc"/></g><g transform="translate(13.908 1.726)"><path d="M1462.741,3332.049a.57.57,0,0,0-.806.806,6.15,6.15,0,0,1,0,8.693.57.57,0,0,0,.806.806,7.29,7.29,0,0,0,0-10.305Z" transform="translate(-1461.768 -3331.882)" fill="#fcfcfc"/><path d="M1462.616,3331.747l.213.213a7.425,7.425,0,0,1,0,10.482.695.695,0,0,1-.983-.983,6.032,6.032,0,0,0,0-8.516.7.7,0,0,1,.769-1.128Zm.091.445-.055-.054a.445.445,0,1,0-.629.629,6.283,6.283,0,0,1,0,8.869.445.445,0,0,0,.629.629A7.175,7.175,0,0,0,1462.707,3332.191Z" transform="translate(-1461.768 -3331.882)" fill="#fcfcfc"/></g><g transform="translate(12.18 3.453)"><path d="M1454.137,3340.653a.57.57,0,0,0-.806.806,3.706,3.706,0,0,1,0,5.239.57.57,0,0,0,.806.806,4.847,4.847,0,0,0,0-6.851Z" transform="translate(-1453.164 -3340.486)" fill="#fcfcfc"/><path d="M1453.734,3340.361a.691.691,0,0,1,.491.2,4.978,4.978,0,0,1,0,7.028.695.695,0,0,1-.983-.983,3.586,3.586,0,0,0,0-5.062.695.695,0,0,1,.491-1.186Zm0,7.185a.442.442,0,0,0,.315-.13,4.728,4.728,0,0,0,0-6.674.445.445,0,0,0-.629.629,3.836,3.836,0,0,1,0,5.416.445.445,0,0,0,.314.759Z" transform="translate(-1453.164 -3340.486)" fill="#fcfcfc"/></g><g transform="translate(0 0.001)"><path d="M1393.646,3330.337a8.528,8.528,0,0,1,2.515-6.072.57.57,0,0,0-.806-.806,9.731,9.731,0,0,0,0,13.757.57.57,0,1,0,.806-.806A8.529,8.529,0,0,1,1393.646,3330.337Z" transform="translate(-1392.508 -3323.293)" fill="#fcfcfc"/><path d="M1395.758,3323.168a.7.7,0,0,1,.491,1.186,8.463,8.463,0,0,0,0,11.968.695.695,0,0,1-.982.983,9.856,9.856,0,0,1,0-13.933A.69.69,0,0,1,1395.758,3323.168Zm0,14.09a.445.445,0,0,0,.315-.759,8.713,8.713,0,0,1,0-12.322.445.445,0,0,0-.629-.629,9.619,9.619,0,0,0,0,13.58A.442.442,0,0,0,1395.758,3337.258Z" transform="translate(-1392.508 -3323.293)" fill="#fcfcfc"/></g><g transform="translate(2.442 1.727)"><path d="M1405.809,3337.206a6.105,6.105,0,0,1,1.8-4.346.57.57,0,0,0-.806-.806,7.29,7.29,0,0,0,0,10.305.57.57,0,1,0,.806-.806A6.106,6.106,0,0,1,1405.809,3337.206Z" transform="translate(-1404.67 -3331.887)" fill="#fcfcfc"/><path d="M1407.206,3331.762a.695.695,0,0,1,.491,1.186,6.026,6.026,0,0,0,0,8.517.695.695,0,0,1-.982.983,7.425,7.425,0,0,1,0-10.482A.691.691,0,0,1,1407.206,3331.762Zm0,10.639a.445.445,0,0,0,.315-.759,6.276,6.276,0,0,1,0-8.871.445.445,0,0,0-.629-.629,7.175,7.175,0,0,0,0,10.129A.442.442,0,0,0,1407.206,3342.4Z" transform="translate(-1404.67 -3331.887)" fill="#fcfcfc"/></g><g transform="translate(4.881 3.453)"><path d="M1419.039,3340.653a.57.57,0,0,0-.806,0h0a4.847,4.847,0,0,0,0,6.851.57.57,0,1,0,.806-.806h0a3.706,3.706,0,0,1,0-5.239.57.57,0,0,0,0-.806Z" transform="translate(-1416.816 -3340.486)" fill="#fcfcfc"/><path d="M1418.636,3340.361a.695.695,0,0,1,.491,1.186,3.585,3.585,0,0,0,0,5.063.695.695,0,0,1-.983.983,4.978,4.978,0,0,1,0-7.028A.691.691,0,0,1,1418.636,3340.361Zm0,7.185a.445.445,0,0,0,.315-.759,3.836,3.836,0,0,1,0-5.416.445.445,0,0,0-.629-.629,4.728,4.728,0,0,0,0,6.674A.442.442,0,0,0,1418.636,3347.545Z" transform="translate(-1416.816 -3340.486)" fill="#fcfcfc"/></g><g transform="translate(7.325 4.644)"><path d="M1431.389,3346.414a2.4,2.4,0,1,0,2.4,2.4A2.4,2.4,0,0,0,1431.389,3346.414Zm0,3.662a1.257,1.257,0,1,1,1.257-1.257A1.256,1.256,0,0,1,1431.389,3350.076Z" transform="translate(-1428.987 -3346.414)" fill="#fcfcfc"/><path d="M1431.389,3346.289h0a2.527,2.527,0,1,1-2.527,2.527A2.535,2.535,0,0,1,1431.389,3346.289Zm0,4.8a2.277,2.277,0,1,0-2.277-2.276A2.279,2.279,0,0,0,1431.389,3351.092Zm0-3.655a1.382,1.382,0,0,1,0,2.764h0a1.382,1.382,0,1,1,0-2.764Zm0,2.514a1.132,1.132,0,1,0-1.132-1.132A1.14,1.14,0,0,0,1431.389,3349.951Z" transform="translate(-1428.987 -3346.414)" fill="#fcfcfc"/></g></g></g></g></svg>