<svg xmlns="http://www.w3.org/2000/svg" xmlns:xlink="http://www.w3.org/1999/xlink" width="20" height="20" viewBox="0 0 20 20"><defs><clipPath id="a"><rect width="20" height="20" transform="translate(-17936 -17363)" fill="#fff" stroke="#707070" stroke-width="1"/></clipPath></defs><g transform="translate(17936 17363)" clip-path="url(#a)"><g transform="translate(-17934.648 -17361.648)" style="isolation:isolate"><g transform="translate(0 0)"><path d="M1558.89,3323.031a2.162,2.162,0,0,0-1.923,3.148l-3.355,2.986a2.161,2.161,0,0,0-1.207-.368,2.124,2.124,0,0,0-.636.1l-1.386-2.252,1.449-1.159a2.162,2.162,0,0,0,3.156-2.829l2.8-2.8a2.159,2.159,0,1,0-.764-.764l-2.8,2.8a2.132,2.132,0,0,0-1.1-.3,2.162,2.162,0,0,0-1.971,3.051l-1.343,1.073-1.614-2.625a2.161,2.161,0,1,0-1.557.664,2.181,2.181,0,0,0,.636-.1l1.685,2.736-1.746,1.394a2.138,2.138,0,0,0-1.3-.433,2.162,2.162,0,1,0,2.162,2.162,2.126,2.126,0,0,0-.189-.882l1.64-1.313,1.315,2.138a2.162,2.162,0,1,0,3.481.514l3.355-2.985a2.162,2.162,0,1,0,1.205-3.957Zm0-6.125v0a1.079,1.079,0,1,1-1.077,1.081A1.082,1.082,0,0,1,1558.89,3316.9Zm-5.764,5.766v0a1.079,1.079,0,1,1-1.077,1.081A1.082,1.082,0,0,1,1553.126,3322.667Zm-6.485-.008a1.077,1.077,0,1,1,0-2.154v0a1.079,1.079,0,0,1,0,2.158Zm-.722,7.926a1.077,1.077,0,1,1,0-2.154v0a1.079,1.079,0,0,1,0,2.158Zm6.485,1.441a1.077,1.077,0,0,1,0-2.155v0a1.079,1.079,0,0,1,0,2.158Zm6.485-5.764a1.077,1.077,0,1,1,0-2.154v0a1.079,1.079,0,0,1,0,2.158Z" transform="translate(-1543.757 -3315.824)" fill="#fcfcfc"/><path d="M1558.89,3315.7a2.287,2.287,0,1,1-1.076,4.306l-2.671,2.669a2.288,2.288,0,0,1-2.017,3.363,2.26,2.26,0,0,1-1.291-.4l-1.289,1.031,1.278,2.077a2.292,2.292,0,0,1,1.774.262l3.214-2.86a2.281,2.281,0,1,1,.884,1l-3.214,2.86a2.255,2.255,0,0,1,.209.954,2.286,2.286,0,1,1-4-1.513l-1.191-1.937-1.455,1.165a2.246,2.246,0,0,1,.162.844,2.287,2.287,0,1,1-2.287-2.287,2.254,2.254,0,0,1,1.293.4l1.585-1.266-1.577-2.561a2.287,2.287,0,1,1,1.706-2.213,2.273,2.273,0,0,1-.573,1.513l1.49,2.425,1.159-.925a2.286,2.286,0,0,1,3.2-2.867l2.67-2.671a2.289,2.289,0,0,1,2.017-3.365Zm0,4.325a2.034,2.034,0,1,0-1.754-1l.049.083-.068.068-2.873,2.874-.083-.05a2.017,2.017,0,0,0-1.033-.283,2.037,2.037,0,0,0-1.857,2.875l.04.088-1.53,1.221-1.738-2.828.067-.07a2.036,2.036,0,1,0-1.467.626,2.053,2.053,0,0,0,.6-.09l.092-.028.051.082,1.743,2.83-1.908,1.524-.078-.059a2.006,2.006,0,0,0-1.221-.407,2.037,2.037,0,1,0,2.037,2.037,1.992,1.992,0,0,0-.178-.83l-.04-.089,1.826-1.462,1.44,2.341-.067.07a2.037,2.037,0,1,0,3.28.484l-.044-.086.072-.064,3.428-3.05.08.054a2.04,2.04,0,1,0-.676-.762l.044.086-3.5,3.114-.08-.054a2.038,2.038,0,0,0-1.138-.347,2,2,0,0,0-.6.09l-.093.029-1.5-2.429,1.611-1.288.078.058a2.013,2.013,0,0,0,1.219.406,2.038,2.038,0,0,0,1.754-3.071l-.049-.083,2.942-2.939.083.049A2.042,2.042,0,0,0,1558.89,3320.024Zm0-3.248a1.244,1.244,0,1,1-.126.01v-.007Zm0,2.158a.954.954,0,0,0,.058-1.906l-.058,0a.952.952,0,1,0,0,1.9Zm-12.249,1.445a1.244,1.244,0,1,1-.125.01v-.007Zm0,2.158a.954.954,0,0,0,.061-1.906l-.061,0a.952.952,0,1,0,0,1.9Zm6.486,0a1.242,1.242,0,1,1-.125.01v-.007Zm0,2.158a.954.954,0,0,0,.06-1.906l-.06,0a.952.952,0,1,0,0,1.9Zm5.764-.717a1.242,1.242,0,1,1-.125.01v-.007Zm0,2.158a.954.954,0,0,0,.059-1.906l-.059,0a.952.952,0,1,0,0,1.9Zm-12.97,2.165a1.241,1.241,0,1,1-.126.01v-.007Zm0,2.158a.954.954,0,0,0,.057-1.906l-.057,0a.952.952,0,1,0,0,1.9Zm6.486-.717a1.241,1.241,0,1,1-.126.01v-.007Zm0,2.158a.954.954,0,0,0,.057-1.906l-.057,0a.952.952,0,0,0,0,1.9Z" transform="translate(-1543.757 -3315.824)" fill="#fcfcfc"/></g></g></g></svg>