<svg xmlns="http://www.w3.org/2000/svg" xmlns:xlink="http://www.w3.org/1999/xlink" width="50.285" height="58.988" viewBox="0 0 50.285 58.988"><defs><linearGradient id="a" x1="0.766" y1="-0.11" x2="0.283" y2="0.961" gradientUnits="objectBoundingBox"><stop offset="0" stop-color="#bbb"/><stop offset="1" stop-color="#fcfcfc"/></linearGradient></defs><g transform="translate(-815.23 -1510.496)"><g transform="translate(16841.23 19937.52)"><path d="M42.523,0a3,3,0,0,1,2.588,1.482L58.1,23.625a3,3,0,0,1,0,3.036L45.111,48.8a3,3,0,0,1-2.588,1.482H16.465A3,3,0,0,1,13.878,48.8L.89,26.66a3,3,0,0,1,0-3.036L13.878,1.482A3,3,0,0,1,16.465,0Z" transform="translate(-16026 -18368.035) rotate(-90)" fill="#c4c4c4"/><g opacity="0.71" style="mix-blend-mode:multiply;isolation:isolate"><path d="M41.069,0a3,3,0,0,1,2.579,1.468L56.126,22.481a3,3,0,0,1,0,3.063L43.648,46.557a3,3,0,0,1-2.58,1.468h-25.1a3,3,0,0,1-2.58-1.468L.91,25.544a3,3,0,0,1,0-3.063L13.387,1.468A3,3,0,0,1,15.966,0Z" transform="translate(-16024.87 -18369.012) rotate(-90)" fill="url(#a)"/><path d="M15.966.5a2.511,2.511,0,0,0-2.15,1.224L1.339,22.736a2.5,2.5,0,0,0,0,2.553L13.817,46.3a2.511,2.511,0,0,0,2.15,1.224h25.1a2.511,2.511,0,0,0,2.15-1.224L55.7,25.289a2.5,2.5,0,0,0,0-2.553L43.218,1.724A2.511,2.511,0,0,0,41.069.5h-25.1m0-.5h25.1a3,3,0,0,1,2.579,1.468L56.126,22.481a3,3,0,0,1,0,3.063L43.648,46.557a3,3,0,0,1-2.579,1.468h-25.1a3,3,0,0,1-2.579-1.468L.91,25.544a3,3,0,0,1,0-3.063L13.387,1.468A3,3,0,0,1,15.966,0Z" transform="translate(-16024.87 -18369.012) rotate(-90)" fill="#fcfcfc"/></g></g><g transform="translate(8264.951 1058.071)"><g transform="translate(-7431.543 466.51)"><path d="M-7419,468.367h-2.322V467.9a1.4,1.4,0,0,0-1.393-1.393h-3.715a1.394,1.394,0,0,0-1.393,1.393v.464h-2.323a1.4,1.4,0,0,0-1.393,1.393,1.4,1.4,0,0,0,.96,1.324l.829,10a1.4,1.4,0,0,0,1.388,1.278h7.578a1.4,1.4,0,0,0,1.389-1.278l.829-10a1.394,1.394,0,0,0,.959-1.324A1.394,1.394,0,0,0-7419,468.367Zm-7.895-.464a.465.465,0,0,1,.465-.464h3.715a.464.464,0,0,1,.464.464v.464h-4.644Zm6.575,13.1a.468.468,0,0,1-.463.426h-7.578a.468.468,0,0,1-.463-.426l-.816-9.853h10.137Zm1.32-10.782h-11.146a.464.464,0,0,1-.463-.464.464.464,0,0,1,.463-.464H-7419a.465.465,0,0,1,.465.464A.465.465,0,0,1-7419,470.225Z" transform="translate(7431.543 -466.51)" fill="#fcfcfc"/><path d="M-7426.435,466.36h3.715a1.545,1.545,0,0,1,1.543,1.543v.314H-7419a1.545,1.545,0,0,1,1.543,1.543,1.54,1.54,0,0,1-.967,1.432l-.821,9.9a1.553,1.553,0,0,1-1.538,1.415h-7.578a1.551,1.551,0,0,1-1.538-1.415l-.821-9.9a1.54,1.54,0,0,1-.968-1.432,1.545,1.545,0,0,1,1.543-1.543h2.173V467.9A1.545,1.545,0,0,1-7426.435,466.36Zm5.646,15.851a1.252,1.252,0,0,0,1.239-1.14l.837-10.1.094-.031a1.24,1.24,0,0,0,.856-1.181,1.245,1.245,0,0,0-1.243-1.243h-2.472V467.9a1.245,1.245,0,0,0-1.243-1.243h-3.715a1.245,1.245,0,0,0-1.243,1.243v.614h-2.473a1.245,1.245,0,0,0-1.243,1.243,1.241,1.241,0,0,0,.857,1.181l.094.031.008.1.829,10a1.25,1.25,0,0,0,1.239,1.14Zm-5.646-14.923h3.715a.615.615,0,0,1,.614.614v.614h-4.943V467.9A.615.615,0,0,1-7426.435,467.289Zm4.029.929V467.9a.315.315,0,0,0-.314-.314h-3.715a.315.315,0,0,0-.315.314v.314Zm-7.745.929H-7419a.615.615,0,0,1,.615.614.615.615,0,0,1-.615.614h-11.146a.614.614,0,0,1-.613-.614A.614.614,0,0,1-7430.15,469.146Zm11.146.929a.315.315,0,0,0,.315-.314.315.315,0,0,0-.315-.314h-11.146a.314.314,0,0,0-.313.314.314.314,0,0,0,.313.314Zm-10.8.929h10.463l-.014.162-.816,9.853a.618.618,0,0,1-.613.564h-7.578a.618.618,0,0,1-.612-.563Zm10.137.3h-9.811l.8,9.691a.317.317,0,0,0,.313.288h7.578a.317.317,0,0,0,.314-.289Z" transform="translate(7431.543 -466.51)" fill="#fcfcfc"/></g><g transform="translate(-7427.828 472.083)"><path d="M-7411.026,503.125l-.464-7.492a.466.466,0,0,0-.493-.435.465.465,0,0,0-.435.492l.465,7.492a.464.464,0,0,0,.463.436A.464.464,0,0,0-7411.026,503.125Z" transform="translate(7412.419 -495.197)" fill="#fcfcfc"/><path d="M-7411.49,503.768a.615.615,0,0,1-.613-.577l-.465-7.492a.616.616,0,0,1,.575-.651.617.617,0,0,1,.652.575l.464,7.492a.617.617,0,0,1-.166.459A.609.609,0,0,1-7411.49,503.768Zm-.464-8.421h-.02a.315.315,0,0,0-.294.333l.465,7.492a.314.314,0,0,0,.313.3.312.312,0,0,0,.229-.1.31.31,0,0,0,.084-.235l-.464-7.492A.315.315,0,0,0-7411.954,495.347Z" transform="translate(7412.419 -495.197)" fill="#fcfcfc"/></g><g transform="translate(-7425.042 472.083)"><path d="M-7397.609,495.2a.464.464,0,0,0-.465.464v7.492a.464.464,0,0,0,.465.464.465.465,0,0,0,.465-.464v-7.492A.465.465,0,0,0-7397.609,495.2Z" transform="translate(7398.074 -495.198)" fill="#fcfcfc"/><path d="M-7397.609,495.048a.615.615,0,0,1,.615.614v7.492a.615.615,0,0,1-.615.614.615.615,0,0,1-.615-.614v-7.492A.615.615,0,0,1-7397.609,495.048Zm0,8.421a.315.315,0,0,0,.315-.314v-7.492a.315.315,0,0,0-.315-.314.315.315,0,0,0-.315.314v7.492A.315.315,0,0,0-7397.609,503.469Z" transform="translate(7398.074 -495.198)" fill="#fcfcfc"/></g><g transform="translate(-7422.72 472.083)"><path d="M-7385.163,495.2a.464.464,0,0,0-.492.435l-.465,7.492a.465.465,0,0,0,.435.492.465.465,0,0,0,.492-.435l.464-7.492A.463.463,0,0,0-7385.163,495.2Z" transform="translate(7386.122 -495.197)" fill="#fcfcfc"/><path d="M-7385.192,495.047h.039a.609.609,0,0,1,.422.207.611.611,0,0,1,.152.445l-.464,7.492a.614.614,0,0,1-.651.575.616.616,0,0,1-.576-.651l.465-7.493A.615.615,0,0,1-7385.192,495.047Zm-.464,8.421a.314.314,0,0,0,.313-.3l.464-7.492a.31.31,0,0,0-.077-.227.312.312,0,0,0-.216-.106.314.314,0,0,0-.333.294l-.465,7.493a.315.315,0,0,0,.294.333Z" transform="translate(7386.122 -495.197)" fill="#fcfcfc"/></g></g></g></svg>