<svg xmlns="http://www.w3.org/2000/svg" xmlns:xlink="http://www.w3.org/1999/xlink" width="50.285" height="58.988" viewBox="0 0 50.285 58.988"><defs><linearGradient id="a" x1="0.766" y1="-0.11" x2="0.283" y2="0.961" gradientUnits="objectBoundingBox"><stop offset="0" stop-color="#bbb"/><stop offset="1" stop-color="#fcfcfc"/></linearGradient><clipPath id="b"><rect width="20" height="20" transform="translate(-18170 -17362)" fill="#fff" stroke="#707070" stroke-width="1"/></clipPath></defs><g transform="translate(-689.658 -1510.494)"><g transform="translate(16656.658 19937.809)"><path d="M42.523,0a3,3,0,0,1,2.588,1.482L58.1,23.625a3,3,0,0,1,0,3.036L45.111,48.8a3,3,0,0,1-2.588,1.482H16.465A3,3,0,0,1,13.878,48.8L.89,26.66a3,3,0,0,1,0-3.036L13.878,1.482A3,3,0,0,1,16.465,0Z" transform="translate(-15967 -18368.326) rotate(-90)" fill="#fd8094"/><g opacity="0.71" style="mix-blend-mode:multiply;isolation:isolate"><path d="M41.069,0a3,3,0,0,1,2.579,1.468L56.126,22.481a3,3,0,0,1,0,3.063L43.648,46.557a3,3,0,0,1-2.58,1.468h-25.1a3,3,0,0,1-2.58-1.468L.91,25.544a3,3,0,0,1,0-3.063L13.387,1.468A3,3,0,0,1,15.966,0Z" transform="translate(-15965.87 -18369.303) rotate(-90)" fill="url(#a)"/><path d="M15.966.5a2.511,2.511,0,0,0-2.15,1.224L1.339,22.736a2.5,2.5,0,0,0,0,2.553L13.817,46.3a2.511,2.511,0,0,0,2.15,1.224h25.1a2.511,2.511,0,0,0,2.15-1.224L55.7,25.289a2.5,2.5,0,0,0,0-2.553L43.218,1.724A2.511,2.511,0,0,0,41.069.5h-25.1m0-.5h25.1a3,3,0,0,1,2.579,1.468L56.126,22.481a3,3,0,0,1,0,3.063L43.648,46.557a3,3,0,0,1-2.579,1.468h-25.1a3,3,0,0,1-2.579-1.468L.91,25.544a3,3,0,0,1,0-3.063L13.387,1.468A3,3,0,0,1,15.966,0Z" transform="translate(-15965.87 -18369.303) rotate(-90)" fill="#fcfcfc"/></g></g><g transform="translate(18874.627 18885)" clip-path="url(#b)"><g transform="translate(-18168.648 -17360.648)"><path d="M1286.4,3317a8.648,8.648,0,1,0,0,12.23A8.651,8.651,0,0,0,1286.4,3317Zm-11.513.719a7.652,7.652,0,0,1,8-1.786l-8.451,12.084A7.634,7.634,0,0,1,1274.884,3317.719Zm.262,11.042,8.679-12.411a7.655,7.655,0,0,1,1.786,1.3h0L1276.976,3330A7.583,7.583,0,0,1,1275.146,3328.761Zm10.53-.251a7.651,7.651,0,0,1-7.732,1.876l8.362-11.96A7.636,7.636,0,0,1,1285.677,3328.51Z" transform="translate(-1271.634 -3314.469)" fill="#fcfcfc"/><path d="M1280.283,3314.219a8.9,8.9,0,1,1-6.292,2.6A8.842,8.842,0,0,1,1280.283,3314.219Zm0,17.3a8.4,8.4,0,1,0-5.938-2.46A8.344,8.344,0,0,0,1280.283,3331.514Zm.009-16.282a7.886,7.886,0,0,1,2.673.466l.308.111-8.825,12.62-.21-.25a7.885,7.885,0,0,1,6.054-12.946Zm2.192.832a7.388,7.388,0,0,0-8.068,11.537Zm1.263-.037.195.1a7.9,7.9,0,0,1,1.771,1.273h.379l-.273.393-8.76,12.523-.192-.093a7.822,7.822,0,0,1-1.89-1.28l-.161-.148Zm1.538,1.66a7.389,7.389,0,0,0-1.383-1.01l-8.424,12.046a7.314,7.314,0,0,0,1.416.958Zm1.011.319.208.268a7.891,7.891,0,0,1-8.635,12.352l-.324-.1.195-.278Zm-6.027,12.493a7.387,7.387,0,0,0,6.044-11.644l-7.964,11.39A7.386,7.386,0,0,0,1280.269,3330.5Z" transform="translate(-1271.634 -3314.469)" fill="#fcfcfc"/></g></g></g></svg>