<svg xmlns="http://www.w3.org/2000/svg" xmlns:xlink="http://www.w3.org/1999/xlink" width="50.285" height="58.988" viewBox="0 0 50.285 58.988"><defs><linearGradient id="a" x1="1.19" y1="-0.947" x2="0" y2="1.515" gradientUnits="objectBoundingBox"><stop offset="0" stop-color="#9d9d9d"/><stop offset="1" stop-color="#e7e7e7" stop-opacity="0.639"/></linearGradient></defs><g transform="translate(16681.992 15350.395)"><path d="M42.523,0a3,3,0,0,1,2.588,1.482L58.1,23.625a3,3,0,0,1,0,3.036L45.111,48.8a3,3,0,0,1-2.588,1.482H16.465A3,3,0,0,1,13.878,48.8L.89,26.66a3,3,0,0,1,0-3.036L13.878,1.482A3,3,0,0,1,16.465,0Z" transform="translate(-16681.992 -15291.406) rotate(-90)" fill="#fff"/><path d="M16.465.25a2.76,2.76,0,0,0-2.372,1.359L1.106,23.751a2.753,2.753,0,0,0,0,2.783L14.093,48.677a2.76,2.76,0,0,0,2.372,1.359H42.523A2.76,2.76,0,0,0,44.9,48.677L57.883,26.534a2.753,2.753,0,0,0,0-2.783L44.9,1.609A2.76,2.76,0,0,0,42.523.25H16.465m0-.25H42.523a3,3,0,0,1,2.588,1.482L58.1,23.625a3,3,0,0,1,0,3.036L45.111,48.8a3,3,0,0,1-2.588,1.482H16.465A3,3,0,0,1,13.878,48.8L.89,26.66a3,3,0,0,1,0-3.036L13.878,1.482A3,3,0,0,1,16.465,0Z" transform="translate(-16681.992 -15291.406) rotate(-90)" fill="#fcfcfc"/><g opacity="0.26" style="mix-blend-mode:multiply;isolation:isolate"><path d="M41.069,0a3,3,0,0,1,2.579,1.468L56.126,22.481a3,3,0,0,1,0,3.063L43.648,46.557a3,3,0,0,1-2.58,1.468h-25.1a3,3,0,0,1-2.58-1.468L.91,25.544a3,3,0,0,1,0-3.063L13.387,1.468A3,3,0,0,1,15.966,0Z" transform="translate(-16680.861 -15292.383) rotate(-90)" fill="url(#a)"/><path d="M15.966.5a2.511,2.511,0,0,0-2.15,1.224L1.339,22.736a2.5,2.5,0,0,0,0,2.553L13.817,46.3a2.511,2.511,0,0,0,2.15,1.224h25.1a2.511,2.511,0,0,0,2.15-1.224L55.7,25.289a2.5,2.5,0,0,0,0-2.553L43.218,1.724A2.511,2.511,0,0,0,41.069.5h-25.1m0-.5h25.1a3,3,0,0,1,2.579,1.468L56.126,22.481a3,3,0,0,1,0,3.063L43.648,46.557a3,3,0,0,1-2.579,1.468h-25.1a3,3,0,0,1-2.579-1.468L.91,25.544a3,3,0,0,1,0-3.063L13.387,1.468A3,3,0,0,1,15.966,0Z" transform="translate(-16680.861 -15292.383) rotate(-90)" fill="#fcfcfc"/></g></g></svg>