<svg xmlns="http://www.w3.org/2000/svg" xmlns:xlink="http://www.w3.org/1999/xlink" width="50.285" height="58.988" viewBox="0 0 50.285 58.988"><defs><linearGradient id="a" x1="0.766" y1="-0.11" x2="0.283" y2="0.961" gradientUnits="objectBoundingBox"><stop offset="0" stop-color="#bbb"/><stop offset="1" stop-color="#fcfcfc"/></linearGradient><clipPath id="b"><rect width="20" height="20" transform="translate(-18145 -17318)" fill="#fff" stroke="#707070" stroke-width="1"/></clipPath></defs><g transform="translate(-815.23 -1510.496)"><g transform="translate(16841.23 19937.52)"><path d="M42.523,0a3,3,0,0,1,2.588,1.482L58.1,23.625a3,3,0,0,1,0,3.036L45.111,48.8a3,3,0,0,1-2.588,1.482H16.465A3,3,0,0,1,13.878,48.8L.89,26.66a3,3,0,0,1,0-3.036L13.878,1.482A3,3,0,0,1,16.465,0Z" transform="translate(-16026 -18368.035) rotate(-90)" fill="#ff9883"/><g opacity="0.71" style="mix-blend-mode:multiply;isolation:isolate"><path d="M41.069,0a3,3,0,0,1,2.579,1.468L56.126,22.481a3,3,0,0,1,0,3.063L43.648,46.557a3,3,0,0,1-2.58,1.468h-25.1a3,3,0,0,1-2.58-1.468L.91,25.544a3,3,0,0,1,0-3.063L13.387,1.468A3,3,0,0,1,15.966,0Z" transform="translate(-16024.87 -18369.012) rotate(-90)" fill="url(#a)"/><path d="M15.966.5a2.511,2.511,0,0,0-2.15,1.224L1.339,22.736a2.5,2.5,0,0,0,0,2.553L13.817,46.3a2.511,2.511,0,0,0,2.15,1.224h25.1a2.511,2.511,0,0,0,2.15-1.224L55.7,25.289a2.5,2.5,0,0,0,0-2.553L43.218,1.724A2.511,2.511,0,0,0,41.069.5h-25.1m0-.5h25.1a3,3,0,0,1,2.579,1.468L56.126,22.481a3,3,0,0,1,0,3.063L43.648,46.557a3,3,0,0,1-2.579,1.468h-25.1a3,3,0,0,1-2.579-1.468L.91,25.544a3,3,0,0,1,0-3.063L13.387,1.468A3,3,0,0,1,15.966,0Z" transform="translate(-16024.87 -18369.012) rotate(-90)" fill="#fcfcfc"/></g></g><g transform="translate(18975.373 18841)" clip-path="url(#b)"><g transform="translate(-18144 -17312.791)"><path d="M357.655,3334.162l-2.334,2.336a.124.124,0,0,1-.139.027.126.126,0,0,1-.081-.118v-1.849H344.18a4.491,4.491,0,0,1-3.279-1.43,4.44,4.44,0,0,1-1.184-3.382,4.536,4.536,0,0,1,4.554-4.143h7.324a.484.484,0,0,1,0,.968H344.18a3.51,3.51,0,0,0-3.493,3.826,3.571,3.571,0,0,0,3.572,3.19H355.1v-1.851a.125.125,0,0,1,.079-.118.127.127,0,0,1,.141.028l2.334,2.334A.129.129,0,0,1,357.655,3334.162Z" transform="translate(-339.704 -3325.604)" fill="#fcfcfc"/><path d="M355.232,3336.786a.384.384,0,0,1-.146-.029.377.377,0,0,1-.235-.349v-1.6H344.18a4.742,4.742,0,0,1-3.462-1.51,4.686,4.686,0,0,1-1.251-3.57,4.787,4.787,0,0,1,4.8-4.374h7.324a.734.734,0,0,1,0,1.468H344.18a3.26,3.26,0,0,0-3.244,3.554,3.319,3.319,0,0,0,3.323,2.961h10.593v-1.6a.372.372,0,0,1,.232-.349.379.379,0,0,1,.409.077l0,0,2.334,2.334a.379.379,0,0,1,0,.535l-2.335,2.336A.373.373,0,0,1,355.232,3336.786Zm-10.962-10.932a4.286,4.286,0,0,0-4.3,3.911,4.191,4.191,0,0,0,1.118,3.194,4.241,4.241,0,0,0,3.1,1.35h11.172v1.806l2.041-2.043-2.041-2.041v1.808H344.258a3.822,3.822,0,0,1-3.821-3.418,3.76,3.76,0,0,1,3.742-4.1h7.415a.234.234,0,0,0,0-.468Z" transform="translate(-339.704 -3325.604)" fill="#fcfcfc"/></g></g></g></svg>