<svg xmlns="http://www.w3.org/2000/svg" xmlns:xlink="http://www.w3.org/1999/xlink" width="50.285" height="58.988" viewBox="0 0 50.285 58.988"><defs><linearGradient id="a" x1="0.766" y1="-0.11" x2="0.283" y2="0.961" gradientUnits="objectBoundingBox"><stop offset="0" stop-color="#bbb"/><stop offset="1" stop-color="#fcfcfc"/></linearGradient><clipPath id="b"><rect width="20" height="20" transform="translate(-18074 -17364)" fill="#fff" stroke="#707070" stroke-width="1"/></clipPath></defs><g transform="translate(-140.482 -1510.496)"><g transform="translate(16225.482 20063.496)"><path d="M42.523,0a3,3,0,0,1,2.588,1.482L58.1,23.625a3,3,0,0,1,0,3.036L45.111,48.8a3,3,0,0,1-2.588,1.482H16.465A3,3,0,0,1,13.878,48.8L.89,26.66a3,3,0,0,1,0-3.036L13.878,1.482A3,3,0,0,1,16.465,0Z" transform="translate(-16085 -18494.012) rotate(-90)" fill="#42d8c9"/><g opacity="0.71" style="mix-blend-mode:multiply;isolation:isolate"><path d="M41.069,0a3,3,0,0,1,2.579,1.468L56.126,22.481a3,3,0,0,1,0,3.063L43.648,46.557a3,3,0,0,1-2.58,1.468h-25.1a3,3,0,0,1-2.58-1.468L.91,25.544a3,3,0,0,1,0-3.063L13.387,1.468A3,3,0,0,1,15.966,0Z" transform="translate(-16083.87 -18494.988) rotate(-90)" fill="url(#a)"/><path d="M15.966.5a2.511,2.511,0,0,0-2.15,1.224L1.339,22.736a2.5,2.5,0,0,0,0,2.553L13.817,46.3a2.511,2.511,0,0,0,2.15,1.224h25.1a2.511,2.511,0,0,0,2.15-1.224L55.7,25.289a2.5,2.5,0,0,0,0-2.553L43.218,1.724A2.511,2.511,0,0,0,41.069.5h-25.1m0-.5h25.1a3,3,0,0,1,2.579,1.468L56.126,22.481a3,3,0,0,1,0,3.063L43.648,46.557a3,3,0,0,1-2.579,1.468h-25.1a3,3,0,0,1-2.579-1.468L.91,25.544a3,3,0,0,1,0-3.063L13.387,1.468A3,3,0,0,1,15.966,0Z" transform="translate(-16083.87 -18494.988) rotate(-90)" fill="#fcfcfc"/></g></g><g transform="translate(18229.627 18887)" clip-path="url(#b)"><g transform="translate(-18072.42 -17362.699)" style="isolation:isolate"><g transform="translate(0 0)"><path d="M240.511,3325.834a.824.824,0,0,0-.825.823v6.048a.823.823,0,0,0,1.645-.015v-6.033A.822.822,0,0,0,240.511,3325.834Zm8.368,8.071a8.355,8.355,0,0,0-3.093-5.654.773.773,0,0,0-.506-.174.824.824,0,0,0-.825.825.837.837,0,0,0,.319.65,7,7,0,0,1,1,1,6.774,6.774,0,0,1-5.965,11,6.774,6.774,0,0,1-3.564-12,.848.848,0,0,0,.329-.663.828.828,0,0,0-.749-.812.748.748,0,0,0-.081,0,.815.815,0,0,0-.525.189,8.417,8.417,0,1,0,13.661,5.636Z" transform="translate(-232.089 -3325.834)" fill="#fcfcfc"/><path d="M240.511,3325.709a.947.947,0,0,1,.945.948v6.033a.948.948,0,0,1-.919.923h-.027a.95.95,0,0,1-.948-.9v-6.052A.95.95,0,0,1,240.511,3325.709Zm0,7.654h.02a.7.7,0,0,0,.676-.677v-6.03a.7.7,0,1,0-1.395,0v6.048A.7.7,0,0,0,240.51,3333.363Zm4.792-5.411a.9.9,0,0,1,.563.2,8.544,8.544,0,0,1-4.432,15.152,8.709,8.709,0,0,1-.939.051,8.541,8.541,0,0,1-5.354-15.186.933.933,0,0,1,.6-.217.861.861,0,0,1,.095,0,.953.953,0,0,1,.86.935.976.976,0,0,1-.377.762,6.649,6.649,0,0,0,3.5,11.775,6.832,6.832,0,0,0,.705.037,6.559,6.559,0,0,0,4.174-1.485,6.659,6.659,0,0,0,.976-9.354,6.9,6.9,0,0,0-.981-.979.959.959,0,0,1-.365-.746.949.949,0,0,1,.95-.951Zm-4.808,15.155a8.465,8.465,0,0,0,.912-.05,8.294,8.294,0,0,0,4.3-14.708.653.653,0,0,0-.406-.146h-.018a.7.7,0,0,0-.7.7.71.71,0,0,0,.272.552,7.167,7.167,0,0,1,1.018,1.016,6.91,6.91,0,0,1-1.012,9.706,6.808,6.808,0,0,1-4.331,1.541,7.059,7.059,0,0,1-.731-.038,6.9,6.9,0,0,1-3.63-12.219.727.727,0,0,0,.283-.567.7.7,0,0,0-.636-.687.678.678,0,0,0-.068,0,.688.688,0,0,0-.445.16,8.292,8.292,0,0,0,5.2,14.742Z" transform="translate(-232.089 -3325.834)" fill="#fcfcfc"/></g></g></g></g></svg>