<svg xmlns="http://www.w3.org/2000/svg" xmlns:xlink="http://www.w3.org/1999/xlink" width="50.285" height="58.988" viewBox="0 0 50.285 58.988"><defs><linearGradient id="a" x1="0.766" y1="-0.11" x2="0.283" y2="0.961" gradientUnits="objectBoundingBox"><stop offset="0" stop-color="#bbb"/><stop offset="1" stop-color="#fcfcfc"/></linearGradient><clipPath id="b"><rect width="20" height="20" transform="translate(-18053 -17362)" fill="#fff" stroke="#707070" stroke-width="1"/></clipPath></defs><g transform="translate(-197.943 -1510.496)"><g transform="translate(16282.943 20000.508)"><path d="M42.523,0a3,3,0,0,1,2.588,1.482L58.1,23.625a3,3,0,0,1,0,3.036L45.111,48.8a3,3,0,0,1-2.588,1.482H16.465A3,3,0,0,1,13.878,48.8L.89,26.66a3,3,0,0,1,0-3.036L13.878,1.482A3,3,0,0,1,16.465,0Z" transform="translate(-16085 -18431.023) rotate(-90)" fill="#ffd35e"/><g opacity="0.71" style="mix-blend-mode:multiply;isolation:isolate"><path d="M41.069,0a3,3,0,0,1,2.579,1.468L56.126,22.481a3,3,0,0,1,0,3.063L43.648,46.557a3,3,0,0,1-2.58,1.468h-25.1a3,3,0,0,1-2.58-1.468L.91,25.544a3,3,0,0,1,0-3.063L13.387,1.468A3,3,0,0,1,15.966,0Z" transform="translate(-16083.87 -18432) rotate(-90)" fill="url(#a)"/><path d="M15.966.5a2.511,2.511,0,0,0-2.15,1.224L1.339,22.736a2.5,2.5,0,0,0,0,2.553L13.817,46.3a2.511,2.511,0,0,0,2.15,1.224h25.1a2.511,2.511,0,0,0,2.15-1.224L55.7,25.289a2.5,2.5,0,0,0,0-2.553L43.218,1.724A2.511,2.511,0,0,0,41.069.5h-25.1m0-.5h25.1a3,3,0,0,1,2.579,1.468L56.126,22.481a3,3,0,0,1,0,3.063L43.648,46.557a3,3,0,0,1-2.579,1.468h-25.1a3,3,0,0,1-2.579-1.468L.91,25.544a3,3,0,0,1,0-3.063L13.387,1.468A3,3,0,0,1,15.966,0Z" transform="translate(-16083.87 -18432) rotate(-90)" fill="#fcfcfc"/></g></g><g transform="translate(18266.088 18885)" clip-path="url(#b)"><g transform="translate(-18049.418 -17360.637)" style="isolation:isolate"><g transform="translate(1.203 0)"><path d="M495.358,3318.088a.459.459,0,0,1-.189.3.453.453,0,0,1-.342.078.46.46,0,0,1-.377-.531,2.584,2.584,0,0,0,0-.89,2.611,2.611,0,1,0-5.144.9.462.462,0,0,1-.346.525l-.029.005a.466.466,0,0,1-.344-.078.46.46,0,0,1-.189-.3,3.534,3.534,0,0,1,3.473-4.135,3.665,3.665,0,0,1,.6.051,3.532,3.532,0,0,1,2.89,4.075Z" transform="translate(-488.345 -3313.963)" fill="#fcfcfc"/><path d="M488.851,3318.729a.711.711,0,0,1-.7-.587,3.784,3.784,0,0,1,3.72-4.429,3.924,3.924,0,0,1,.64.054,3.782,3.782,0,0,1,3.1,4.363.711.711,0,0,1-.291.461.7.7,0,0,1-.531.12.711.711,0,0,1-.58-.819,2.364,2.364,0,0,0-2.327-2.761,2.361,2.361,0,0,0-2.326,2.768.712.712,0,0,1-.534.811l-.048.009A.734.734,0,0,1,488.851,3318.729Zm3.018-4.516a3.288,3.288,0,0,0-3.227,3.843.209.209,0,0,0,.087.135.217.217,0,0,0,.157.035l.018,0a.213.213,0,0,0,.153-.238,2.861,2.861,0,1,1,5.637-.983,2.834,2.834,0,0,1,0,.975.211.211,0,0,0,.173.242.22.22,0,0,0,.037,0,.205.205,0,0,0,.119-.039.211.211,0,0,0,.087-.138,3.282,3.282,0,0,0-2.686-3.785A3.44,3.44,0,0,0,491.869,3314.213Z" transform="translate(-488.345 -3313.963)" fill="#fcfcfc"/></g><g transform="translate(0 2.07)"><path d="M494.028,3330.977a1.471,1.471,0,0,0-1.044-.436h0a1.494,1.494,0,0,0-.651.152l-.043.021-.021-.042a1.483,1.483,0,0,0-1.972-.655l-.043.021-.021-.043a1.488,1.488,0,0,0-1.8-.728l-.064.023v-3.183a1.5,1.5,0,0,0-1.441-1.5,1.48,1.48,0,0,0-1.523,1.435v8l-.681-.714a1.5,1.5,0,0,0-2.077-.089,1.48,1.48,0,0,0-.1,2.086l.025.026,3.436,3.664a2.513,2.513,0,0,0,1.82.789h4.146a2.5,2.5,0,0,0,2.5-2.5v-5.292A1.462,1.462,0,0,0,494.028,3330.977Zm-.486,6.336a1.579,1.579,0,0,1-1.575,1.574H487.82a1.579,1.579,0,0,1-1.149-.5l-3.44-3.665a.559.559,0,0,1,.018-.788l.012-.012a.571.571,0,0,1,.792.045l1.474,1.544a.455.455,0,0,0,.325.142.462.462,0,0,0,.469-.459v-9.113a.558.558,0,0,1,.165-.394.551.551,0,0,1,.395-.162h.018a.575.575,0,0,1,.546.58c0,3.226,0,3.741-.006,4.194,0,.327,0,.611,0,1.895a.467.467,0,0,0,.934,0v-1.626a.556.556,0,0,1,1.1.093v1.526a.461.461,0,0,0,.922,0v-.848a.557.557,0,1,1,1.114,0v.848a.461.461,0,1,0,.922,0v-.169a.558.558,0,1,1,1.116,0Z" transform="translate(-482.157 -3324.61)" fill="#fcfcfc"/><path d="M486.875,3324.36h.055a1.746,1.746,0,0,1,1.683,1.747v2.855a1.706,1.706,0,0,1,.293-.025,1.728,1.728,0,0,1,1.452.78,1.7,1.7,0,0,1,.586-.1,1.733,1.733,0,0,0,2.038.677,1.734,1.734,0,0,1,1.73,1.732v5.292a2.755,2.755,0,0,1-2.745,2.747H487.82a2.767,2.767,0,0,1-2-.868l-3.465-3.693a1.73,1.73,0,0,1,.121-2.439,1.748,1.748,0,0,1,2.425.1l.25.262v-7.388A1.721,1.721,0,0,1,486.875,3324.36Zm1.238,5.289v-3.541a1.247,1.247,0,0,0-1.2-1.248h-.038a1.238,1.238,0,0,0-1.225,1.19v8.624l-1.112-1.165a1.248,1.248,0,0,0-1.731-.074,1.23,1.23,0,0,0-.086,1.727l.025.026,3.436,3.664a2.265,2.265,0,0,0,1.639.71h4.145a2.254,2.254,0,0,0,2.245-2.247v-5.291a1.234,1.234,0,0,0-1.229-1.232,1.241,1.241,0,0,0-.542.126l-.264.13-.133-.263a1.227,1.227,0,0,0-1.1-.67,1.2,1.2,0,0,0-.539.126l-.266.133-.133-.267a1.245,1.245,0,0,0-1.1-.669,1.222,1.222,0,0,0-.4.066Zm-1.234-4.37h.03a.825.825,0,0,1,.784.831c0,2.914,0,3.6-.005,4.058v.172c0,.32,0,.622,0,1.856a.217.217,0,0,0,.434,0v-1.649l0-.023a.806.806,0,0,1,1.6.137v1.528a.211.211,0,0,0,.422,0v-.848a.807.807,0,1,1,1.614,0v.848a.211.211,0,1,0,.422,0v-.169a.808.808,0,1,1,1.616,0l0,5.292a1.83,1.83,0,0,1-1.825,1.824H487.82a1.832,1.832,0,0,1-1.332-.577l-3.44-3.665a.809.809,0,0,1,.022-1.135l.027-.027a.821.821,0,0,1,1.138.066l1.471,1.541a.206.206,0,0,0,.149.065.212.212,0,0,0,.214-.209v-9.113a.812.812,0,0,1,.239-.571A.8.8,0,0,1,486.879,3325.278Zm.01.5h-.008a.3.3,0,0,0-.219.088.311.311,0,0,0-.093.218v9.113a.712.712,0,0,1-.719.709.708.708,0,0,1-.506-.22l-1.474-1.543a.318.318,0,0,0-.237-.106.325.325,0,0,0-.2.071l-.009.009a.3.3,0,0,0-.095.214.3.3,0,0,0,.084.22l3.442,3.667a1.33,1.33,0,0,0,.967.419h4.146a1.329,1.329,0,0,0,1.325-1.325l0-5.292a.308.308,0,1,0-.616,0v.169a.711.711,0,1,1-1.422,0v-.848a.307.307,0,1,0-.614,0v.848a.711.711,0,0,1-1.422,0v-1.526a.308.308,0,0,0-.249-.3.339.339,0,0,0-.059-.005.3.3,0,0,0-.3.237v1.6a.717.717,0,0,1-1.434,0c0-1.236,0-1.539,0-1.859v-.172c0-.455.005-1.144.005-4.058A.326.326,0,0,0,486.89,3325.778Z" transform="translate(-482.157 -3324.61)" fill="#fcfcfc"/></g></g></g></g></svg>