<svg xmlns="http://www.w3.org/2000/svg" xmlns:xlink="http://www.w3.org/1999/xlink" width="20" height="20" viewBox="0 0 20 20"><defs><clipPath id="a"><rect width="20" height="20" transform="translate(-17780 -17365)" fill="#fff" stroke="#707070" stroke-width="1"/></clipPath></defs><g transform="translate(17780 17365)" clip-path="url(#a)"><g transform="translate(-17775.613 -17363.648)" style="isolation:isolate"><g transform="translate(0 0)"><path d="M884.771,3310.789h-1.037a.873.873,0,0,0-.847-.689c-.479,0-.8.474-.87.942l-.444,2.994h1.894v1.024h-2.045l-1.4,9.489a2,2,0,0,1-1.889,1.82,1.9,1.9,0,0,1-1.884-1.717h1.04a.868.868,0,0,0,.847.689l.024,0a.982.982,0,0,0,.844-.935l1.38-9.344h-1.94v-1.024h2.089l.467-3.154a2,2,0,0,1,1.885-1.808h0A1.9,1.9,0,0,1,884.771,3310.789Z" transform="translate(-876.247 -3309.074)" fill="#fcfcfc"/><path d="M882.877,3308.824h.008a2.159,2.159,0,0,1,2.134,1.942l.025.273h-1.514l-.042-.2a.623.623,0,0,0-.6-.491c-.332,0-.568.375-.621.729l-.4,2.707h1.854v1.524h-2.079l-1.37,9.268a2.248,2.248,0,0,1-2.126,2.04h-.012a2.164,2.164,0,0,1-2.132-1.943l-.026-.274h1.518l.042.2a.619.619,0,0,0,.595.49h.006a.734.734,0,0,0,.621-.7l0-.026,1.338-9.058h-1.9v-1.524h2.123l.434-2.934a2.242,2.242,0,0,1,2.12-2.027Zm1.6,1.715a1.659,1.659,0,0,0-1.582-1.215,1.745,1.745,0,0,0-1.643,1.583v.012l-.5,3.367h-2.055v.524h1.979l-1.421,9.619a1.234,1.234,0,0,1-1.058,1.158l-.059,0a1.122,1.122,0,0,1-1.03-.689h-.558a1.663,1.663,0,0,0,1.579,1.217,1.746,1.746,0,0,0,1.645-1.591l0-.015,1.435-9.7h2.011v-.524h-1.934l.486-3.281a1.246,1.246,0,0,1,1.117-1.155,1.128,1.128,0,0,1,1.03.689Z" transform="translate(-876.247 -3309.074)" fill="#fcfcfc"/></g><g transform="translate(6.512 8.545)"><path d="M916.329,3360.437l1.145,2.583H916.35l-.7-1.569-1.044,1.569h-1.233l1.784-2.68-1.129-2.547h1.124l.679,1.535,1.021-1.535h1.235Z" transform="translate(-913.377 -3357.794)" fill="#fcfcfc"/><path d="M917.858,3363.27h-1.671l-.578-1.3-.866,1.3H912.91l1.966-2.954-1.229-2.772h1.671l.56,1.267.842-1.267h1.836l-1.944,2.917Zm-1.346-.5h.577l-1.045-2.357,1.578-2.369h-.634l-1.2,1.8-.8-1.8h-.577l1.029,2.321-1.6,2.406h.632l1.222-1.837Z" transform="translate(-913.377 -3357.794)" fill="#fcfcfc"/></g></g></g></svg>