<svg xmlns="http://www.w3.org/2000/svg" xmlns:xlink="http://www.w3.org/1999/xlink" width="20" height="20" viewBox="0 0 20 20"><defs><clipPath id="a"><rect width="20" height="20" transform="translate(-17853 -17361)" fill="#fff" stroke="#707070" stroke-width="1"/></clipPath></defs><g transform="translate(17853 17361)" clip-path="url(#a)"><g transform="translate(-17850.439 -17359.648)" style="isolation:isolate"><g transform="translate(0 0)"><path d="M790.513,3313.954a7.475,7.475,0,0,0-1.5-1.513l.691-1.2a.339.339,0,0,0-.125-.463l-1.031-.592a.34.34,0,0,0-.463.123l-.689,1.2a7.439,7.439,0,0,0-1.936-.521v-.6h.423a.338.338,0,0,0,.338-.338v-1.188a.338.338,0,0,0-.338-.339h-2.715a.338.338,0,0,0-.337.339v1.188a.337.337,0,0,0,.337.336h.425v.6a7.338,7.338,0,0,0-1.936.518l-.691-1.2a.333.333,0,0,0-.461-.125l-1.031.592a.334.334,0,0,0-.16.2.338.338,0,0,0,.035.258l.692,1.206a7.441,7.441,0,1,0,10.471,1.511Zm-2.007-3.013.443.256-.5.862c-.144-.09-.293-.175-.443-.255Zm-5-1.231v-.51h2.039v.51Zm1.275.678v.552c-.085,0-.168-.007-.255-.007s-.17,0-.255,0v-.548Zm-4.234.553.5.861c-.151.08-.3.167-.442.255l-.5-.86Zm3.979,14.205a6.767,6.767,0,1,1,6.767-6.767A6.717,6.717,0,0,1,784.528,3325.146Z" transform="translate(-777.09 -3308.523)" fill="#fcfcfc"/><path d="M783.169,3308.4h2.715a.464.464,0,0,1,.463.464v1.188a.464.464,0,0,1-.463.463h-.3v.368a7.562,7.562,0,0,1,1.757.473l.634-1.106a.469.469,0,0,1,.4-.232h0a.459.459,0,0,1,.232.063l1.029.591a.466.466,0,0,1,.217.283.457.457,0,0,1-.047.352l-.636,1.1a7.6,7.6,0,0,1,1.437,1.471,7.564,7.564,0,0,1-6.076,12.063,7.557,7.557,0,0,1-6.093-3.064,7.575,7.575,0,0,1,1.435-10.468l-.638-1.111a.463.463,0,0,1-.047-.352.457.457,0,0,1,.22-.281l1.029-.591a.458.458,0,0,1,.633.174l.635,1.1a7.465,7.465,0,0,1,1.758-.47v-.369h-.3a.462.462,0,0,1-.462-.461v-1.188A.463.463,0,0,1,783.169,3308.4Zm2.715,1.865a.213.213,0,0,0,.213-.213v-1.188a.214.214,0,0,0-.213-.214h-2.715a.213.213,0,0,0-.212.214v1.188a.212.212,0,0,0,.212.211h.55v.839l-.109.014a7.216,7.216,0,0,0-1.9.509l-.1.043-.746-1.294a.209.209,0,0,0-.129-.1.205.205,0,0,0-.161.022l-1.032.593a.208.208,0,0,0-.079.29l.748,1.3-.088.066a7.313,7.313,0,0,0,4.415,13.15,7.318,7.318,0,0,0,5.88-11.665,7.355,7.355,0,0,0-1.474-1.488l-.088-.066.746-1.295a.209.209,0,0,0,.022-.161.217.217,0,0,0-.1-.132l-1.03-.591a.211.211,0,0,0-.107-.029.217.217,0,0,0-.187.107l-.743,1.3-.1-.043a7.311,7.311,0,0,0-1.9-.512l-.109-.014v-.837Zm-2.5-1.188h2.289v.76h-2.289Zm2.039.25h-1.789v.26h1.789Zm-1.273.938h.76v.807l-.135-.005c-.084,0-.162-.007-.245-.007s-.168,0-.25,0l-.13.005Zm4.313.507.659.381-.623,1.082-.11-.068c-.137-.085-.283-.17-.435-.251l-.114-.061Zm.318.472-.226-.131-.37.643q.116.064.226.13Zm-8.183-.472.626,1.082-.115.061c-.13.068-.268.148-.435.251l-.109.067-.625-1.08Zm.28.984-.371-.642-.226.131.371.642C780.729,3311.836,780.8,3311.793,780.875,3311.754Zm3.653-.266a6.891,6.891,0,1,1-6.893,6.892A6.9,6.9,0,0,1,784.528,3311.488Zm0,13.533a6.643,6.643,0,1,0-4.7-1.945A6.649,6.649,0,0,0,784.528,3325.021Z" transform="translate(-777.09 -3308.523)" fill="#fcfcfc"/></g><g transform="translate(1.636 4.056)"><path d="M797.344,3334.805c-.005-.01-.01-.023-.023-.043l-.009-.012a5.88,5.88,0,0,0-2.056-2.049l-.056-.031a5.793,5.793,0,0,0-5.779.01l-.054.032a5.818,5.818,0,0,0-2.042,2.052.27.27,0,0,0-.042.068,5.785,5.785,0,0,0,.016,5.769l.01.026a.1.1,0,0,0,.024.037,5.851,5.851,0,0,0,2.053,2.042l.045.032h.01a5.8,5.8,0,0,0,5.785-.013l.033-.015c.009-.007.016-.011.016-.013a5.855,5.855,0,0,0,2.054-2.066l.016-.021a.31.31,0,0,0,.016-.035l.005-.014A5.789,5.789,0,0,0,797.344,3334.805Zm-.432,5.168-.475-.275a.341.341,0,0,0-.463.125.338.338,0,0,0,.125.461l.475.274a5.156,5.156,0,0,1-1.376,1.381l-.278-.474a.339.339,0,0,0-.586.342l.279.473a5.129,5.129,0,0,1-1.954.529v-.55a.337.337,0,1,0-.675,0v.552a5.161,5.161,0,0,1-1.928-.521l.276-.476a.338.338,0,0,0-.382-.5.337.337,0,0,0-.207.158l-.274.476a5.1,5.1,0,0,1-1.385-1.377l.472-.278a.337.337,0,0,0-.08-.619.347.347,0,0,0-.259.034l-.474.277a5.14,5.14,0,0,1-.529-1.953h.553a.337.337,0,0,0,0-.675h-.552a5.112,5.112,0,0,1,.519-1.928l.475.276a.338.338,0,0,0,.462-.125.34.34,0,0,0-.123-.461l-.475-.274a5.12,5.12,0,0,1,1.376-1.385l.278.472a.336.336,0,0,0,.2.158.339.339,0,0,0,.415-.237.337.337,0,0,0-.033-.259l-.278-.474a5.157,5.157,0,0,1,1.952-.529v.554a.338.338,0,0,0,.677,0v-.552a5.016,5.016,0,0,1,1.926.519l-.276.476a.339.339,0,1,0,.586.338l.276-.475a5.121,5.121,0,0,1,1.385,1.377l-.474.277a.338.338,0,1,0,.338.585l.474-.278a5.111,5.111,0,0,1,.529,1.954h-.552a.329.329,0,0,0-.238.1.338.338,0,0,0,.238.577h.552A5.113,5.113,0,0,1,796.912,3339.974Z" transform="translate(-786.522 -3331.902)" fill="#fcfcfc"/><path d="M792.318,3331.777h0a5.917,5.917,0,0,1,2.945.784l.054.03a6,6,0,0,1,2.1,2.09l.011.017c.011.019.018.033.023.044l0,0a5.913,5.913,0,0,1,.026,5.867h0a.255.255,0,0,1-.016.038l-.018.032-.011.015a5.982,5.982,0,0,1-2.083,2.1l-.008.006-.015.012-.02.009-.011.005-.012.006a5.923,5.923,0,0,1-5.875.026h-.017l-.073-.052a5.974,5.974,0,0,1-2.084-2.07.234.234,0,0,1-.04-.064l-.008-.02a5.906,5.906,0,0,1-.015-5.88.384.384,0,0,1,.05-.083,5.925,5.925,0,0,1,2.081-2.089l.054-.032A5.888,5.888,0,0,1,792.318,3331.777Zm4.9,3.052-.011-.016a5.748,5.748,0,0,0-2.012-2.006l-.053-.029a5.668,5.668,0,0,0-2.823-.751h0a5.636,5.636,0,0,0-2.833.76l-.053.031a5.674,5.674,0,0,0-2,2.008l-.011.017a.141.141,0,0,0-.023.037l-.007.013a5.655,5.655,0,0,0,.015,5.644l.008.016.009.021.007.006.011.018a5.721,5.721,0,0,0,2.009,2l.054.031a5.673,5.673,0,0,0,5.66-.012l.048-.027a5.732,5.732,0,0,0,2.01-2.022l.016-.023,0,0,.017-.041a5.663,5.663,0,0,0-.022-5.63l-.009-.018Zm-5.1-2.367v.688a.213.213,0,0,0,.427,0v-.685l.133.009a5.143,5.143,0,0,1,1.974.531l.119.059-.343.591a.213.213,0,0,0,.241.313.213.213,0,0,0,.129-.1l.343-.591.111.074a5.244,5.244,0,0,1,1.418,1.411l.075.111-.589.345a.213.213,0,0,0-.078.291.212.212,0,0,0,.291.078l.588-.345.06.119a5.255,5.255,0,0,1,.542,2l.009.133h-.685a.2.2,0,0,0-.148.061.213.213,0,0,0,.148.364h.685l-.009.133a5.256,5.256,0,0,1-.532,1.975l-.059.119-.591-.342a.216.216,0,0,0-.292.079.213.213,0,0,0,.079.291l.592.342-.075.111a5.29,5.29,0,0,1-1.409,1.414l-.111.075-.345-.589a.218.218,0,0,0-.187-.106.211.211,0,0,0-.107.029.215.215,0,0,0-.077.293l.347.588-.12.06a5.275,5.275,0,0,1-2,.542l-.133.009v-.683a.212.212,0,1,0-.425,0v.686l-.133-.009A5.3,5.3,0,0,1,790,3342.4l-.12-.059.343-.591a.213.213,0,0,0-.242-.312.21.21,0,0,0-.13.1l-.341.591-.111-.074a5.23,5.23,0,0,1-1.418-1.411l-.075-.11.587-.346a.21.21,0,0,0,.1-.129.212.212,0,0,0-.15-.261.225.225,0,0,0-.165.023l-.586.343-.06-.119a5.283,5.283,0,0,1-.542-2l-.009-.133h.685a.212.212,0,0,0,.213-.211.211.211,0,0,0-.212-.213h-.685l.009-.133a5.252,5.252,0,0,1,.531-1.975l.059-.12.591.343a.208.208,0,0,0,.1.028.214.214,0,0,0,.186-.107.215.215,0,0,0-.077-.291l-.591-.341.075-.111a5.243,5.243,0,0,1,1.409-1.418l.11-.075.345.587a.211.211,0,0,0,.129.1.213.213,0,0,0,.262-.148.212.212,0,0,0-.021-.166l-.344-.588.119-.06a5.3,5.3,0,0,1,2-.542Zm.213,1.149a.463.463,0,0,1-.463-.461v-.418a5.054,5.054,0,0,0-1.651.448l.209.357a.466.466,0,0,1,.046.355.455.455,0,0,1-.216.28.463.463,0,0,1-.632-.171l-.208-.354a4.992,4.992,0,0,0-1.157,1.164l.358.206a.465.465,0,0,1,.169.632.464.464,0,0,1-.4.233.459.459,0,0,1-.23-.062l-.358-.208a5.009,5.009,0,0,0-.438,1.627h.416a.462.462,0,0,1,0,.925h-.418a5.041,5.041,0,0,0,.447,1.652l.357-.209a.477.477,0,0,1,.353-.047.462.462,0,0,1,.327.568.457.457,0,0,1-.216.28l-.354.209a4.973,4.973,0,0,0,1.164,1.158l.206-.358a.467.467,0,0,1,.634-.171.469.469,0,0,1,.172.633l-.209.36a5.058,5.058,0,0,0,1.627.439v-.416a.462.462,0,1,1,.925,0v.415a5.025,5.025,0,0,0,1.652-.448l-.21-.356a.464.464,0,0,1,.8-.469l.209.357a5.03,5.03,0,0,0,1.156-1.16l-.358-.207a.463.463,0,0,1-.171-.632.452.452,0,0,1,.284-.217.446.446,0,0,1,.119-.016.466.466,0,0,1,.23.062l.359.208a5.009,5.009,0,0,0,.438-1.626h-.416a.463.463,0,0,1-.326-.79.453.453,0,0,1,.326-.135h.417a5.012,5.012,0,0,0-.448-1.653l-.357.209a.463.463,0,0,1-.679-.521.457.457,0,0,1,.216-.28l.356-.208a4.992,4.992,0,0,0-1.164-1.158l-.208.358a.464.464,0,1,1-.8-.463l.208-.359a4.892,4.892,0,0,0-1.625-.437v.417A.463.463,0,0,1,792.328,3333.611Z" transform="translate(-786.522 -3331.902)" fill="#fcfcfc"/></g><g transform="translate(6.205 5.974)"><path d="M817.638,3346.5h-2.356a1.253,1.253,0,0,0-.852-.852v-2.358a.334.334,0,0,0-.1-.238.338.338,0,0,0-.576.24v2.356a1.238,1.238,0,0,0-.326,2.237,1.223,1.223,0,0,0,.933.163,1.243,1.243,0,0,0,.921-.871h2.358a.338.338,0,0,0,0-.677Zm-3.552.9h-.062a.593.593,0,1,1,.062,0Z" transform="translate(-812.854 -3342.954)" fill="#fcfcfc"/><path d="M814.09,3348.2a1.364,1.364,0,0,1-.46-2.647v-2.265a.465.465,0,0,1,.461-.463h.007a.467.467,0,0,1,.321.135.46.46,0,0,1,.136.326v2.268a1.387,1.387,0,0,1,.818.817h2.266a.463.463,0,0,1,0,.927h-2.268a1.369,1.369,0,0,1-1.285.9Zm.008-5.125h-.005a.214.214,0,0,0-.213.213v2.45l-.091.026a1.113,1.113,0,1,0,1.374,1.374l.026-.091h2.452a.213.213,0,0,0,.21-.214.215.215,0,0,0-.213-.213h-2.45l-.026-.09a1.132,1.132,0,0,0-.767-.767l-.09-.026v-2.452a.208.208,0,0,0-.062-.15A.217.217,0,0,0,814.1,3343.079Zm-.012,4.441h-.076a.717.717,0,1,1,.076,0Zm-.055-.25h.055a.41.41,0,1,0-.055,0Z" transform="translate(-812.854 -3342.954)" fill="#fcfcfc"/></g></g></g></svg>