<svg xmlns="http://www.w3.org/2000/svg" width="125.318" height="127.865" viewBox="0 0 125.318 127.865"><g transform="translate(-798.071 -1806.067)"><g transform="translate(798.071 1895.438)"><path d="M812.051,2381.939a9.15,9.15,0,0,0-7.129,2.846.335.335,0,0,1-.583-.223v-14.055a.837.837,0,0,0-1.256-.725l-4.593,2.651a.837.837,0,0,0-.419.725v32.749a.837.837,0,0,0,.837.837h3.385a.837.837,0,0,0,.792-.566l.779-2.278a.333.333,0,0,1,.583-.088,9.2,9.2,0,0,0,7.734,3.634c6.924,0,11.175-5.39,11.175-12.8C823.357,2387.286,819.195,2381.939,812.051,2381.939Zm-1.4,19.808c-3.856,0-6.31-2.892-6.31-7.055,0-4.206,2.5-7.055,6.31-7.055s6.311,2.892,6.311,7.055S814.461,2401.747,810.648,2401.747Z" transform="translate(-798.071 -2368.971)" fill="#fcfcfc"/><path d="M977.707,2383.342v19.113a.837.837,0,0,0,.837.837h4.68a.837.837,0,0,0,.837-.837V2380.64a.837.837,0,0,0-1.256-.725l-4.68,2.7A.837.837,0,0,0,977.707,2383.342Zm3.111-17.781a3.467,3.467,0,0,0-3.594,3.813,3.609,3.609,0,0,0,3.594,3.9,3.654,3.654,0,0,0,3.593-3.9A3.536,3.536,0,0,0,980.818,2365.561Z" transform="translate(-948.595 -2365.519)" fill="#fcfcfc"/><path d="M1049.646,2453.682c0-1.314,1.184-2.19,3.856-2.19a12.95,12.95,0,0,1,6.6,1.845.835.835,0,0,0,1.141-.309l1.7-2.964a.838.838,0,0,0-.31-1.145,17.332,17.332,0,0,0-9.137-2.468c-6.485,0-9.992,3.638-9.992,7.669,0,9.422,14.461,5.829,14.461,10.387,0,1.4-1.315,2.41-4.119,2.41a16.9,16.9,0,0,1-7.782-2.38.838.838,0,0,0-1.176.295l-1.822,3.22a.835.835,0,0,0,.239,1.092,19.928,19.928,0,0,0,10.235,2.814c6.794,0,10.65-3.244,10.65-7.715C1064.2,2454.427,1049.646,2458.24,1049.646,2453.682Z" transform="translate(-1003.827 -2433.483)" fill="#fcfcfc"/><path d="M1202.344,2446.452c-7.582,0-12.927,5-12.927,12.8,0,7.756,5.345,12.709,12.927,12.709,8.808,0,12.884-6.4,12.884-12.709C1215.228,2451.492,1209.75,2446.452,1202.344,2446.452Zm0,19.9c-4.382,0-6.355-3.506-6.355-7.1,0-3.681,1.973-7.187,6.355-7.187,4.339,0,6.31,3.506,6.31,7.187C1208.654,2462.842,1206.594,2466.348,1202.344,2466.348Z" transform="translate(-1126.876 -2433.483)" fill="#fcfcfc"/><path d="M1376.825,2370.237l.029-3.374a.84.84,0,0,0-.575-.8c-7.114-2.355-13.179.682-13.179,10.282v2.294a.335.335,0,0,1-.335.335h-1.676a.837.837,0,0,0-.837.837v3.935a.837.837,0,0,0,.837.837h1.676a.335.335,0,0,1,.335.335v17.321a.837.837,0,0,0,.837.837h4.591a.837.837,0,0,0,.837-.837v-17.321a.335.335,0,0,1,.335-.335h5.665a.837.837,0,0,0,.837-.837v-3.935a.837.837,0,0,0-.837-.837H1369.7a.335.335,0,0,1-.335-.335v-2.82c0-5.361,3.192-5.722,6.384-4.784A.837.837,0,0,0,1376.825,2370.237Z" transform="translate(-1270.41 -2365.3)" fill="#fcfcfc"/><path d="M1482.433,2428.631V2419.9a.335.335,0,0,1,.335-.335h4.645a.837.837,0,0,0,.834-.759l.325-3.453a.837.837,0,0,0-.833-.916h-4.97a.335.335,0,0,1-.335-.335v-5.752a.837.837,0,0,0-1.256-.725l-4.724,2.727a.837.837,0,0,0-.418.725v3.025a.335.335,0,0,1-.335.335h-2.465a.837.837,0,0,0-.837.837v3.453a.837.837,0,0,0,.837.837h2.465a.335.335,0,0,1,.335.335v8.167c0,10.017,6.469,12.655,13.275,10.491a.838.838,0,0,0,.583-.784l.058-3.379a.838.838,0,0,0-1.063-.82C1485.714,2434.444,1482.433,2434.254,1482.433,2428.631Z" transform="translate(-1364.634 -2400.762)" fill="#fcfcfc"/></g><g transform="translate(829.535 1806.067)"><path d="M1027.8,2153.664v17.389a1.556,1.556,0,0,1-.817-.209L997.57,2153.79a2.011,2.011,0,0,1-.69-.67l14.977-8.646a1.961,1.961,0,0,0,.7.682l14.207,8.237A1.994,1.994,0,0,0,1027.8,2153.664Z" transform="translate(-996.573 -2090.394)" fill="#fcfcfc"/><path d="M1221.251,2152.918a2.016,2.016,0,0,1-.711.7l-29.419,17.054a1.522,1.522,0,0,1-.74.209v-17.389a1.966,1.966,0,0,0,.967-.27l14.21-8.238a2.021,2.021,0,0,0,.72-.714Z" transform="translate(-1159.151 -2090.224)" fill="#fcfcfc"/><path d="M1305.115,1976.141v33.679a1.989,1.989,0,0,1-.288,1.031l-14.974-8.646a2.006,2.006,0,0,0,.279-1.019v-16.414a1.963,1.963,0,0,0-.238-.943l14.977-8.646A1.992,1.992,0,0,1,1305.115,1976.141Z" transform="translate(-1242.726 -1948.157)" fill="#fcfcfc"/><path d="M1008.742,1806.175a.8.8,0,0,1,1.2.693v40.444a1.989,1.989,0,0,1-.288,1.031l-14.695-8.484v-25.05a1.2,1.2,0,0,1,.6-1.04Z" transform="translate(-994.959 -1806.067)" fill="#fcfcfc"/><path d="M1221.3,1880.719l-14.977,8.646a2.02,2.02,0,0,0-.761-.787l-14.21-8.238a1.964,1.964,0,0,0-.967-.27v-17.319a2,2,0,0,1,.967.271l29.193,16.925A2,2,0,0,1,1221.3,1880.719Z" transform="translate(-1159.151 -1853.692)" fill="#fcfcfc"/><path d="M1027.562,1862.75v17.319a2,2,0,0,0-1.043.27l-14.207,8.238a1.984,1.984,0,0,0-.74.755l-.256-.147-14.721-8.5a2.015,2.015,0,0,1,.734-.74l.032-.018,13.955-8.091,15.2-8.816A2,2,0,0,1,1027.562,1862.75Z" transform="translate(-996.333 -1853.691)" fill="#fcfcfc"/><line x1="0.003" transform="translate(31.23 44.873)" fill="#ffbc45"/><path d="M1010.241,2002.067l-14.977,8.646a2,2,0,0,1-.306-1.063v-33.679a1.986,1.986,0,0,1,.261-.99l14.721,8.5.256.147a1.964,1.964,0,0,0-.256.975v16.413A1.983,1.983,0,0,0,1010.241,2002.067Z" transform="translate(-994.959 -1947.987)" fill="#fcfcfc"/><line x1="0.003" transform="translate(31.23 44.873)" fill="#ffbc45"/></g></g></svg>