<svg xmlns="http://www.w3.org/2000/svg" width="32" height="19" viewBox="0 0 32 19"><g transform="translate(-105.027 -67.754)"><text transform="translate(105.027 80.754)" fill="#fcfcfc" font-size="16" font-family="Halcyon-Medium, Halcyon" font-weight="500"><tspan x="0" y="0">Play</tspan></text><path d="M10.737-11.383H12.69v9.49c0,.432.137.464.347.464A2.089,2.089,0,0,0,13.5-1.5l.253-.06L14.073.07l-.2.072A3.964,3.964,0,0,1,12.557.4c-1.157,0-1.82-.774-1.82-2.123Zm1.453.5h-.953V-1.72c0,1.077.444,1.623,1.32,1.623A3.213,3.213,0,0,0,13.5-.261l-.136-.7a2.035,2.035,0,0,1-.326.03c-.562,0-.847-.324-.847-.964Zm-11.08.34H4.947a4.785,4.785,0,0,1,3.229,1A3.542,3.542,0,0,1,9.317-6.773,3.539,3.539,0,0,1,8.171-4,4.783,4.783,0,0,1,4.947-3H3.077V.25H1.11ZM4.947-3.5c2.5,0,3.87-1.161,3.87-3.27s-1.374-3.27-3.87-3.27H1.61V-.25h.967V-3.5ZM2.577-9.21h2.37c1.828,0,2.877.883,2.877,2.423a2.159,2.159,0,0,1-.8,1.8A3.32,3.32,0,0,1,4.947-4.4H2.577ZM4.947-4.9c1.084,0,2.377-.327,2.377-1.883,0-1.59-1.292-1.923-2.377-1.923H3.077V-4.9ZM18.213-7.8a3.119,3.119,0,0,1,2.35.95v-.737h1.9V.25H20.844l-.2-.8A3.075,3.075,0,0,1,18.24.463c-2.215,0-3.7-1.654-3.7-4.117a4.444,4.444,0,0,1,.995-2.971A3.439,3.439,0,0,1,18.213-7.8Zm2.85,2.63-.466-.8A2.612,2.612,0,0,0,18.213-7.3c-1.9,0-3.177,1.464-3.177,3.643,0,2.2,1.257,3.617,3.2,3.617a2.527,2.527,0,0,0,2.356-1.3l.467-.817v1.2l.173.7h.727V-7.083h-.9Zm2.428-2.416h2.032l1.833,5.208,1.785-5.208h2.016L28.061.886c-.48,1.358-1.271,2.92-3.128,2.92a4.681,4.681,0,0,1-1.254-.192l-.2-.055.13-1.946.319.128a2.413,2.413,0,0,0,.875.2c.715,0,1.077-.623,1.552-1.931Zm1.678.5h-.955L26.893.011,26.862.1c-.477,1.331-.932,2.348-2.054,2.348a2.5,2.5,0,0,1-.741-.126l-.058.864a3.947,3.947,0,0,0,.923.122c1.221,0,2.016-.774,2.658-2.59l2.851-7.8H29.5L27.363-.851Zm-6.65.607a2.532,2.532,0,0,1,2.517,2.81A2.532,2.532,0,0,1,18.52-.857a2.537,2.537,0,0,1-2.53-2.81A2.537,2.537,0,0,1,18.52-6.477Zm0,5.12a2.04,2.04,0,0,0,2.017-2.31,2.04,2.04,0,0,0-2.017-2.31,2.045,2.045,0,0,0-2.03,2.31A2.045,2.045,0,0,0,18.52-1.357Z" transform="translate(105.027 80.754)" fill="#fcfcfc"/></g></svg>