<svg xmlns="http://www.w3.org/2000/svg" width="14.784" height="12.678" viewBox="0 0 14.784 12.678"><g transform="translate(-259.779 -2008.34)"><g transform="translate(259.779 2008.34)"><path d="M273.674,2013.642a1.043,1.043,0,0,0-.183-.014H263.361l.526-.529,2.925-2.925a1.1,1.1,0,0,0,.153-1.4,1.057,1.057,0,0,0-1.587-.137l-5.289,5.289a1.058,1.058,0,0,0,0,1.5h0l5.289,5.289a1.058,1.058,0,0,0,1.587-.106,1.1,1.1,0,0,0-.153-1.4l-2.919-2.93c-.155-.155-.524-.529-.524-.529h10.065a1.1,1.1,0,0,0,1.116-.889A1.058,1.058,0,0,0,273.674,2013.642Z" transform="translate(-259.779 -2008.34)" fill="#fcfcfc"/></g></g></svg>