<svg xmlns="http://www.w3.org/2000/svg" width="13.265" height="13.265" viewBox="0 0 13.265 13.265"><g transform="translate(-1058.924 -1341.108)"><path d="M1070.864,1354.372a1.332,1.332,0,0,1-.939-.387l-10.613-10.614a1.326,1.326,0,0,1,1.876-1.876l10.613,10.613a1.325,1.325,0,0,1-.936,2.263Z" transform="translate(0 0)" fill="#fcfcfc"/><path d="M1060.251,1354.372a1.325,1.325,0,0,1-.939-2.263l10.613-10.613a1.326,1.326,0,0,1,1.876,1.876l-10.613,10.614a1.321,1.321,0,0,1-.937.387Z" transform="translate(0 0)" fill="#fcfcfc"/></g></svg>