<svg xmlns="http://www.w3.org/2000/svg" width="15.71" height="14.786" viewBox="0 0 15.71 14.786"><g transform="translate(-1154.093 -1956.766)"><path d="M1160.859,1967.2h-5.482a.232.232,0,0,1-.231-.231v-8.919a.232.232,0,0,1,.231-.231h13.143a.232.232,0,0,1,.231.231V1960a2.368,2.368,0,0,1,1.052.379v-2.332a1.285,1.285,0,0,0-1.284-1.284h-13.143a1.285,1.285,0,0,0-1.284,1.284v8.919a1.285,1.285,0,0,0,1.284,1.283h4.405v1.721h-.695a.789.789,0,0,0,0,1.579h2.216a2.366,2.366,0,0,1-.444-1.376V1967.2Z" transform="translate(0 0)" fill="#fcfcfc"/><path d="M1248.795,2016.277v-1.137h-2.312v-7.261a.278.278,0,0,1,.278-.278h5.232a.278.278,0,0,1,.277.278v2.247h.394a1.3,1.3,0,0,1,.658.183v-2.43a1.332,1.332,0,0,0-1.33-1.33h-5.232a1.332,1.332,0,0,0-1.33,1.33v7.819a1.331,1.331,0,0,0,1.33,1.33h2.272A1.39,1.39,0,0,1,1248.795,2016.277Z" transform="translate(-83.519 -45.522)" fill="#fcfcfc"/><path d="M1295.632,2056.027h-2.552a.66.66,0,0,0-.659.659v4.834a.659.659,0,0,0,.659.659h2.552a.659.659,0,0,0,.659-.659v-4.834A.66.66,0,0,0,1295.632,2056.027Zm-2.422.789h2.291V2061h-2.291Zm1.146,5.043a.283.283,0,1,1,.186-.074A.275.275,0,0,1,1294.356,2061.859Z" transform="translate(-126.487 -90.765)" fill="#fcfcfc"/></g></svg>