<svg xmlns="http://www.w3.org/2000/svg" width="23.705" height="10.72" viewBox="0 0 23.705 10.72"><g transform="translate(-1379.44 -612.998)"><path d="M7.467-9.018V-5.11H2.473V-9.018H1.19V0H2.473V-3.9H7.467V0H8.75V-9.018ZM11.947.968H10.64l4.1-9.683H16.03Zm5.495-2.333.945-.828A3.375,3.375,0,0,0,21.023-.98c1.155,0,2.03-.5,2.03-1.412,0-2.24-5.145-1.307-5.145-4.375,0-1.575,1.353-2.485,3.185-2.485a3.856,3.856,0,0,1,3.01,1.26l-.9.77a2.886,2.886,0,0,0-2.158-.91c-1.1,0-1.8.525-1.8,1.283,0,2.03,5.145,1.2,5.145,4.328C24.4-.793,22.843.187,21,.187A4.67,4.67,0,0,1,17.442-1.365Z" transform="translate(1378.5 622.5)" fill="#fcfcfc"/><path d="M21.093-9.5a4.072,4.072,0,0,1,3.2,1.344l.168.19-1.27,1.089-.164-.17a2.649,2.649,0,0,0-1.978-.833c-.94,0-1.547.406-1.547,1.033,0,.676.751.972,1.987,1.378,1.407.462,3.158,1.038,3.158,2.95,0,1.741-1.5,2.957-3.645,2.957a4.951,4.951,0,0,1-3.751-1.642l-.156-.187,1.315-1.152.165.185a3.138,3.138,0,0,0,2.45,1.13c.821,0,1.78-.3,1.78-1.162,0-.794-.793-1.111-2.1-1.54a7.631,7.631,0,0,1-2.021-.882,2.256,2.256,0,0,1-1.026-1.954A2.448,2.448,0,0,1,18.664-8.8,4.021,4.021,0,0,1,21.093-9.5ZM23.741-8.01A3.637,3.637,0,0,0,21.093-9c-1.783,0-2.935.877-2.935,2.235,0,1.474,1.374,1.924,2.7,2.36,1.2.394,2.442.8,2.442,2.015,0,1.009-.895,1.662-2.28,1.662A3.572,3.572,0,0,1,18.37-1.846l-.574.5A4.515,4.515,0,0,0,21-.063c1.565,0,3.145-.76,3.145-2.457,0-1.551-1.431-2.021-2.814-2.475C20.132-5.389,19-5.762,19-6.848c0-.917.822-1.533,2.047-1.533a3.124,3.124,0,0,1,2.169.822ZM.94-9.268H2.723V-5.36H7.217V-9.268H9V.25H7.217v-3.9H2.723V.25H.94Zm1.283.5H1.44V-.25h.783v-3.9H7.717v3.9H8.5V-8.768H7.717V-4.86H2.223Zm12.346-.2h1.837L12.113,1.218h-1.85Zm1.084.5H14.9L11.017.718h.764Z" transform="translate(1378.5 622.5)" fill="#fcfcfc"/></g></svg>