<svg xmlns="http://www.w3.org/2000/svg" width="17.233" height="16.368" viewBox="0 0 17.233 16.368"><g transform="translate(13186.304 16687.309)"><g transform="translate(-13184.941 -16687.309)"><g transform="translate(0 0)"><path d="M4507.648,5618.98V5625a.872.872,0,0,0,1.744,0v-4.271" transform="translate(-4507.648 -5618.177)" fill="#fcfcfc"/><path d="M4509.392,5614.028v-5.911a.872.872,0,1,0-1.744,0v4.167" transform="translate(-4507.648 -5607.245)" fill="#fcfcfc"/><path d="M4601.6,5648.991v3.962a.872.872,0,0,0,1.745,0v-3.587" transform="translate(-4595.176 -5646.135)" fill="#fcfcfc"/><path d="M4603.35,5641.985v-3.858a.872.872,0,0,0-1.745,0v2.8" transform="translate(-4595.176 -5635.202)" fill="#fcfcfc"/><path d="M4695.927,5614.135v-6.018a.872.872,0,0,0-1.745,0v4.274" transform="translate(-4681.418 -5607.245)" fill="#fcfcfc"/><path d="M4694.183,5678.45v1.946a.872.872,0,0,0,1.745,0v-.2" transform="translate(-4681.419 -5673.577)" fill="#fcfcfc"/></g></g><g transform="translate(-13186.304 -16677.713)"><g transform="translate(0 0)"><path d="M4511.667,5757.646a.813.813,0,0,1,0,1.147l-1.193,1.192h7.166a.811.811,0,1,1,0,1.621h-7.166l1.193,1.192a.81.81,0,0,1-.573,1.383.8.8,0,0,1-.573-.237l-2.679-2.679a.667.667,0,0,1,0-.94l2.679-2.679A.811.811,0,0,1,4511.667,5757.646Z" transform="translate(-4507.647 -5757.409)" fill="#fcfcfc"/></g></g><g transform="translate(-13179.874 -16677.713)"><g transform="translate(0 0)"><path d="M4568.582,5757.646a.813.813,0,0,0,0,1.147l1.193,1.192h-7.167a.811.811,0,1,0,0,1.621h7.167l-1.193,1.192a.81.81,0,0,0,.574,1.383.8.8,0,0,0,.572-.237l2.678-2.679a.665.665,0,0,0,0-.94l-2.678-2.679A.811.811,0,0,0,4568.582,5757.646Z" transform="translate(-4561.797 -5757.409)" fill="#fcfcfc"/></g></g></g></svg>