<svg xmlns="http://www.w3.org/2000/svg" width="18.799" height="18.803" viewBox="0 0 18.799 18.803"><g transform="translate(-225.353 -171.672)"><path d="M249.842,205.492q-.54-2.685-1.078-5.37a.57.57,0,0,0-.637-.516q-.456,0-.912,0a.573.573,0,0,0-.646.527q-.534,2.657-1.064,5.317a.55.55,0,1,0,1.071.211c.1-.506.206-1.011.3-1.518.022-.123.061-.169.194-.163.3.013.608,0,.912,0,.444,0,.442,0,.526.439s.167.858.258,1.285a.548.548,0,0,0,1.088-.112A.854.854,0,0,0,249.842,205.492Zm-2.71-2.611c.142-.7.285-1.4.42-2.1.017-.086.06-.085.124-.086s.092.015.106.086c.137.7.279,1.391.42,2.1Z" transform="translate(-17.283 -23.993)" fill="#fcfcfc"/><path d="M246.031,206.225a.593.593,0,0,1-.122-.013.613.613,0,0,1-.454-.771l.254-1.272q.4-2.023.81-4.045a.619.619,0,0,1,.695-.567q.456,0,.913,0a.621.621,0,0,1,.686.556q.323,1.6.644,3.2.217,1.083.434,2.165a.873.873,0,0,1,.013.1v.008a.6.6,0,0,1-1.187.122c-.087-.41-.165-.808-.258-1.285v-.005c-.038-.2-.059-.307-.111-.35s-.163-.043-.365-.043c-.185,0-.371,0-.556,0-.138,0-.252,0-.358-.007s-.123.014-.143.122c-.073.388-.152.782-.229,1.162l-.072.357A.631.631,0,0,1,246.031,206.225Zm1.639-6.57h-.456a.523.523,0,0,0-.6.487q-.406,2.021-.81,4.045l-.254,1.272a.512.512,0,0,0,.377.654.492.492,0,0,0,.1.011.528.528,0,0,0,.495-.474l.072-.357c.077-.38.157-.773.229-1.16.023-.128.071-.211.245-.2.1,0,.217.006.354.006.185,0,.371,0,.556,0,.465,0,.487.018.574.475v.005c.093.477.171.874.258,1.284a.5.5,0,0,0,.989-.1.807.807,0,0,0-.012-.093q-.218-1.082-.434-2.165-.321-1.6-.644-3.2a.522.522,0,0,0-.589-.476Zm.592,3.276H247.07l.1-.516c.109-.537.221-1.093.327-1.638.024-.124.107-.126.167-.127h.018a.133.133,0,0,1,.143.127c.087.442.177.891.265,1.326q.077.383.155.769Zm-1.07-.1h.948q-.071-.356-.143-.709c-.088-.435-.178-.884-.265-1.326-.009-.046-.017-.046-.045-.046h-.016c-.06,0-.062,0-.071.046-.106.546-.219,1.1-.328,1.639Z" transform="translate(-17.283 -23.993)" fill="#25245e"/><path d="M241.16,181.188a.126.126,0,0,1,.135-.106.549.549,0,0,0,.58-.565.558.558,0,0,0-.621-.526c-.358,0-.717,0-1.075,0-.158,0-.368.056-.458-.024-.1-.092-.022-.308-.035-.469,0-.018,0-.036,0-.056a.546.546,0,0,0-1.092,0c-.006.139-.008.28,0,.42.006.1-.022.135-.128.131-.255-.007-.511,0-.766,0-.237,0-.474,0-.711,0a.55.55,0,0,0-.584.544.54.54,0,0,0,.561.546.149.149,0,0,1,.162.124,6.567,6.567,0,0,0,1.169,2.163c.073.088.071.137-.022.212-.367.29-.725.59-1.088.886a.537.537,0,0,0-.216.577.544.544,0,0,0,.9.278c.392-.308.774-.626,1.155-.949a.151.151,0,0,1,.24,0c.37.314.749.619,1.124.928a.567.567,0,0,0,.522.146.547.547,0,0,0,.2-.969c-.37-.3-.741-.61-1.115-.909-.079-.063-.086-.1-.021-.184A6.66,6.66,0,0,0,241.16,181.188Zm-1.516.745a4.712,4.712,0,0,1-.434.651c-.027.033-.047.123-.114.035a5.617,5.617,0,0,1-.845-1.529h1.774A4.332,4.332,0,0,1,239.644,181.932Zm1.516-.745a.126.126,0,0,1,.135-.106.549.549,0,0,0,.58-.565.558.558,0,0,0-.621-.526c-.358,0-.717,0-1.075,0-.158,0-.368.056-.458-.024-.1-.092-.022-.308-.035-.469,0-.018,0-.036,0-.056a.546.546,0,0,0-1.092,0c-.006.139-.008.28,0,.42.006.1-.022.135-.128.131-.255-.007-.511,0-.766,0-.237,0-.474,0-.711,0a.55.55,0,0,0-.584.544.54.54,0,0,0,.561.546.149.149,0,0,1,.162.124,6.567,6.567,0,0,0,1.169,2.163c.073.088.071.137-.022.212-.367.29-.725.59-1.088.886a.537.537,0,0,0-.216.577.544.544,0,0,0,.9.278c.392-.308.774-.626,1.155-.949a.151.151,0,0,1,.24,0c.37.314.749.619,1.124.928a.567.567,0,0,0,.522.146.547.547,0,0,0,.2-.969c-.37-.3-.741-.61-1.115-.909-.079-.063-.086-.1-.021-.184A6.66,6.66,0,0,0,241.16,181.188Zm-1.516.745a4.712,4.712,0,0,1-.434.651c-.027.033-.047.123-.114.035a5.617,5.617,0,0,1-.845-1.529h1.774A4.332,4.332,0,0,1,239.644,181.932Zm4.194-6.207a1.738,1.738,0,0,0-1.483-.716q-3.712,0-7.424,0c-.312,0-.314,0-.356-.314-.07-.53-.121-1.063-.206-1.592a1.666,1.666,0,0,0-1.618-1.382c-1.908.017-3.818,0-5.727.007a1.575,1.575,0,0,0-.555.078,1.611,1.611,0,0,0-1.066,1.527q0,6.091,0,12.184a1.541,1.541,0,0,0,.363,1.025,1.725,1.725,0,0,0,1.385.615c1.41,0,2.821,0,4.232,0,.24,0,.244,0,.275.236.061.47.133.939.167,1.412a1.692,1.692,0,0,0,1.513,1.617h9.3a1.485,1.485,0,0,0,.792-.271,1.521,1.521,0,0,0,.667-1.188V176.524A1.5,1.5,0,0,0,243.838,175.725Zm-17.321,9.661q0-2.982,0-5.965v-5.909c0-.476.2-.674.677-.674h5.4a.593.593,0,0,1,.672.6q.322,2.611.65,5.225.282,2.268.561,4.539c.11.886.213,1.773.336,2.656.027.184-.064.149-.163.149h-7c-.176,0-.353,0-.529,0A.557.557,0,0,1,226.518,185.386Zm6.447,3.2c-.061-.5-.116-.947-.174-1.4-.013-.1.046-.088.107-.088h1.35C233.816,187.6,233.4,188.081,232.965,188.59Zm9.361.739h-8.554c.674-.78,1.318-1.532,1.971-2.275a.823.823,0,0,0,.23-.71c-.191-1.438-.365-2.88-.544-4.32q-.264-2.126-.524-4.25c-.06-.483-.113-.965-.186-1.447-.024-.155.027-.172.16-.172q3.394.006,6.786,0h.711a.559.559,0,0,1,.629.628q0,2.7,0,5.4v6.458C243.007,189.136,242.814,189.33,242.326,189.33Zm-1.071-9.339c-.358,0-.717,0-1.075,0-.158,0-.368.056-.458-.024-.1-.092-.022-.308-.035-.469,0-.018,0-.036,0-.056a.546.546,0,0,0-1.092,0c-.006.139-.008.28,0,.42.006.1-.022.135-.128.131-.255-.007-.511,0-.766,0-.237,0-.474,0-.711,0a.55.55,0,0,0-.584.544.54.54,0,0,0,.561.546.149.149,0,0,1,.162.124,6.567,6.567,0,0,0,1.169,2.163c.073.088.071.137-.022.212-.367.29-.725.59-1.088.886a.537.537,0,0,0-.216.577.544.544,0,0,0,.9.278c.392-.308.774-.626,1.155-.949a.151.151,0,0,1,.24,0c.37.314.749.619,1.124.928a.567.567,0,0,0,.522.146.547.547,0,0,0,.2-.969c-.37-.3-.741-.61-1.115-.909-.079-.063-.086-.1-.021-.184a6.66,6.66,0,0,0,1.187-2.2.126.126,0,0,1,.135-.106.549.549,0,0,0,.58-.565A.558.558,0,0,0,241.255,179.991Zm-1.611,1.942a4.712,4.712,0,0,1-.434.651c-.027.033-.047.123-.114.035a5.617,5.617,0,0,1-.845-1.529h1.774A4.332,4.332,0,0,1,239.644,181.932Z" fill="#fcfcfc"/><path d="M242.644,190.475h-9.306a1.748,1.748,0,0,1-1.563-1.663c-.027-.371-.078-.746-.127-1.109q-.02-.15-.04-.3a.39.39,0,0,0-.042-.174.419.419,0,0,0-.183-.018h-4.232a1.778,1.778,0,0,1-1.423-.633,1.6,1.6,0,0,1-.374-1.057c0-4.043,0-8.143,0-12.184a1.671,1.671,0,0,1,1.1-1.574,1.622,1.622,0,0,1,.573-.081q.976,0,1.953,0h1.356c.968,0,1.714,0,2.418-.009h.013a1.72,1.72,0,0,1,1.655,1.424c.055.344.1.694.138,1.033.022.184.045.374.069.56.018.134.029.215.06.243s.112.027.247.028h7.423a1.794,1.794,0,0,1,1.523.736,1.541,1.541,0,0,1,.273.825v12.445a1.579,1.579,0,0,1-.687,1.229,1.529,1.529,0,0,1-.818.28Zm-12.217-3.365h.956c.266,0,.29.021.324.279q.02.15.04.3c.049.364.1.741.128,1.115a1.646,1.646,0,0,0,1.464,1.57h9.3a1.431,1.431,0,0,0,.765-.261,1.463,1.463,0,0,0,.646-1.151V176.524a1.442,1.442,0,0,0-.254-.77,1.677,1.677,0,0,0-1.442-.7h-7.424c-.338,0-.36-.022-.405-.357-.025-.187-.047-.377-.069-.561-.04-.338-.082-.688-.137-1.029a1.618,1.618,0,0,0-1.556-1.34h-.012c-.7.006-1.451.009-2.419.009l-2.713,0h-.6a1.533,1.533,0,0,0-.538.075,1.572,1.572,0,0,0-1.033,1.48c0,4.042,0,8.141,0,12.185a1.482,1.482,0,0,0,.351.993,1.682,1.682,0,0,0,1.347.6h3.276Zm11.9,2.27h-8.663l.071-.083.5-.583c.5-.584.979-1.135,1.468-1.692a.775.775,0,0,0,.218-.67c-.152-1.14-.295-2.3-.433-3.425l-.111-.9q-.236-1.905-.47-3.809l-.054-.441q-.024-.189-.046-.378c-.042-.35-.086-.712-.139-1.067a.219.219,0,0,1,.026-.178.231.231,0,0,1,.183-.051h0c1.436,0,2.866,0,4.075,0h3.422a.608.608,0,0,1,.679.678q0,1.8,0,3.6v8.258C243.057,189.167,242.845,189.38,242.326,189.38Zm-8.444-.1h8.444c.46,0,.631-.172.631-.635v-8.258q0-1.8,0-3.6a.51.51,0,0,0-.579-.578h-3.422c-1.209,0-2.639,0-4.076,0-.028,0-.093,0-.107.017s-.014.028,0,.1c.054.356.1.719.14,1.07q.023.189.046.378l.054.441q.234,1.9.47,3.809.056.447.111.9c.139,1.123.282,2.284.433,3.424a.866.866,0,0,1-.242.75c-.488.556-.964,1.108-1.467,1.691Zm-.953-.571-.057-.46c-.045-.363-.087-.706-.131-1.049a.133.133,0,0,1,.024-.11.127.127,0,0,1,.1-.035h1.493l-.072.083-1.029,1.191Zm-.09-1.552a.288.288,0,0,0,0,.03c.045.343.087.686.131,1.049l.029.237.18-.209.958-1.108h-1.274A.1.1,0,0,0,232.838,187.157Zm1.886-1.094-.077,0h-7.533a.605.605,0,0,1-.647-.674q0-2.982,0-5.965v-5.909c0-.5.224-.724.727-.724h5.4a.639.639,0,0,1,.722.645q.19,1.538.383,3.078.134,1.074.267,2.148.191,1.532.379,3.066l.182,1.473q.043.349.086.7c.078.642.16,1.306.25,1.956a.2.2,0,0,1-.026.169.136.136,0,0,1-.109.04Zm-7.081-.1h7l.077,0c.028,0,.032,0,.034-.006s.013-.018,0-.089c-.091-.651-.172-1.315-.25-1.958q-.043-.35-.086-.7l-.182-1.473q-.189-1.533-.379-3.066-.133-1.074-.267-2.148-.192-1.539-.383-3.078a.547.547,0,0,0-.623-.557h-5.4c-.451,0-.627.175-.627.624v5.909q0,2.984,0,5.965a.509.509,0,0,0,.548.574h.528Zm13.134-.447a.662.662,0,0,1-.424-.175l-.315-.258c-.267-.218-.543-.444-.81-.67a.1.1,0,0,0-.175,0c-.335.283-.734.618-1.156.95a.663.663,0,0,1-.41.148.578.578,0,0,1-.565-.453.642.642,0,0,1-.019-.152.6.6,0,0,1,.253-.476l.341-.279c.244-.2.5-.407.748-.607.037-.03.055-.052.055-.069a.141.141,0,0,0-.04-.072,6.649,6.649,0,0,1-1.178-2.18c-.021-.065-.039-.086-.116-.089a.587.587,0,0,1-.609-.592v0a.6.6,0,0,1,.608-.593h.026l.366,0h.764c.137,0,.248,0,.35,0,.052,0,.064-.007.068-.01s.01-.015.01-.049q0-.009,0-.02c0-.06-.005-.123-.005-.193s0-.141.005-.232a.594.594,0,0,1,.593-.592.6.6,0,0,1,.6.592v0h0c0,.007,0,.013,0,.02a0,0,0,0,0,0,0v.017s0,.009,0,.014,0,.027,0,.04a1.348,1.348,0,0,1-.011.144,1.23,1.23,0,0,0-.01.129.154.154,0,0,0,.037.121.2.2,0,0,0,.129.03c.045,0,.1,0,.144-.009s.1-.01.151-.01c.359,0,.717,0,1.076,0a.61.61,0,0,1,.67.574c0,.008,0,.016,0,.024a.6.6,0,0,1-.628.593c-.061,0-.073.017-.09.071a6.742,6.742,0,0,1-1.2,2.212c-.028.034-.033.051-.033.059s.016.03.046.054c.362.291.727.591,1.08.881l.036.029a.588.588,0,0,1,.239.463.636.636,0,0,1-.015.136.608.608,0,0,1-.587.476Zm-1.637-1.25a.247.247,0,0,1,.152.071c.266.226.541.451.808.669l.316.258a.515.515,0,0,0,.477.137.476.476,0,0,0,.372-.382.536.536,0,0,0,.013-.114.493.493,0,0,0-.2-.386l-.036-.029c-.352-.29-.717-.59-1.078-.88a.178.178,0,0,1-.084-.132h0a.206.206,0,0,1,.056-.122,6.643,6.643,0,0,0,1.178-2.179.175.175,0,0,1,.181-.141.5.5,0,0,0,.533-.493q0-.01,0-.02a.51.51,0,0,0-.571-.477c-.359,0-.717,0-1.076,0-.043,0-.091,0-.142.009s-.1.01-.154.01a.293.293,0,0,1-.2-.055.251.251,0,0,1-.071-.2,1.319,1.319,0,0,1,.01-.14,1.275,1.275,0,0,0,.01-.133c0-.011,0-.022,0-.033s0-.014,0-.022,0-.013,0-.02v-.017a.5.5,0,0,0-.992,0c0,.089-.005.162-.005.228s0,.129.005.187c0,.009,0,.017,0,.025h0a.164.164,0,0,1-.039.119.171.171,0,0,1-.124.04h-.018c-.1,0-.21,0-.346,0h-.764l-.364,0a.5.5,0,0,0-.535.494.492.492,0,0,0,.512.5.2.2,0,0,1,.208.159,6.549,6.549,0,0,0,1.16,2.147.222.222,0,0,1,.062.135.2.2,0,0,1-.092.147c-.251.2-.5.406-.746.606l-.341.28a.5.5,0,0,0-.216.4.542.542,0,0,0,.016.129.474.474,0,0,0,.468.377.564.564,0,0,0,.348-.127c.421-.331.82-.665,1.154-.947A.235.235,0,0,1,239.14,184.263Zm.006-1.557a.125.125,0,0,1-.091-.057,5.647,5.647,0,0,1-.853-1.542l-.024-.067h1.913l-.019.064a4.426,4.426,0,0,1-.385.852,4.788,4.788,0,0,1-.438.658.16.16,0,0,0-.011.019C239.221,182.663,239.2,182.706,239.146,182.706Zm-.825-1.566a5.571,5.571,0,0,0,.813,1.448l.008.009.008-.013a.258.258,0,0,1,.02-.032,4.688,4.688,0,0,0,.429-.645,4.582,4.582,0,0,0,.356-.768Z" fill="#25245e"/><path d="M244.1,176.524a1.986,1.986,0,0,0-.363-.838,1.684,1.684,0,0,0-1.375-.622c-2.53,0-5.059,0-7.588,0-.166,0-.222-.033-.241-.211-.063-.6-.123-1.2-.237-1.787a1.577,1.577,0,0,0-1.583-1.321q-2.827-.019-5.654,0a1.628,1.628,0,0,0-1.638,1.709q0,2.664,0,5.326,0,3.293,0,6.585a1.637,1.637,0,0,0,.932,1.566,1.738,1.738,0,0,0,.812.169c1.441,0,2.882,0,4.323,0,.156,0,.2.038.216.2.075.608.116,1.222.24,1.823a1.6,1.6,0,0,0,1.331,1.278.278.278,0,0,1,.063.028,1.692,1.692,0,0,1-1.513-1.617c-.035-.473-.106-.942-.167-1.412-.031-.234-.035-.236-.275-.236-1.412,0-2.822,0-4.232,0a1.725,1.725,0,0,1-1.385-.615,1.541,1.541,0,0,1-.363-1.025q0-6.093,0-12.184a1.611,1.611,0,0,1,1.066-1.527,1.575,1.575,0,0,1,.555-.078c1.91,0,3.819.01,5.727-.007a1.666,1.666,0,0,1,1.618,1.382c.085.529.137,1.062.206,1.592.042.312.043.312.356.314q3.712,0,7.424,0a1.738,1.738,0,0,1,1.483.716A1.5,1.5,0,0,1,244.1,176.524Z" fill="#fcfcfc"/><path d="M232.764,171.672a1.72,1.72,0,0,1,1.655,1.424c.055.344.1.694.138,1.033.022.184.045.374.069.56.018.134.029.215.06.243s.112.027.247.028h7.423a1.794,1.794,0,0,1,1.523.736,1.541,1.541,0,0,1,.273.825l-.1.015a1.92,1.92,0,0,0-.353-.818,1.629,1.629,0,0,0-1.337-.6h-2.778c-1.478,0-3.153,0-4.81,0h-.009c-.192,0-.261-.062-.282-.255l-.01-.095c-.058-.556-.119-1.131-.227-1.688a1.523,1.523,0,0,0-1.534-1.281c-1.054-.007-2.022-.01-2.96-.01s-1.834,0-2.692.01a1.584,1.584,0,0,0-1.588,1.659c0,1.184,0,2.387,0,3.55q0,.888,0,1.776v2.2q0,2.2,0,4.39a1.6,1.6,0,0,0,.9,1.522,1.676,1.676,0,0,0,.789.163h1.87c.721,0,1.577,0,2.453,0h.008c.173,0,.236.058.258.239s.042.362.061.539c.045.422.092.859.179,1.281a1.555,1.555,0,0,0,1.291,1.239.2.2,0,0,1,.059.023l.016.008-.021.1a1.748,1.748,0,0,1-1.563-1.663c-.027-.371-.078-.746-.127-1.109q-.02-.15-.04-.3a.39.39,0,0,0-.042-.174.419.419,0,0,0-.183-.018h-4.232a1.778,1.778,0,0,1-1.423-.633,1.6,1.6,0,0,1-.374-1.057c0-4.043,0-8.143,0-12.184a1.671,1.671,0,0,1,1.1-1.574,1.622,1.622,0,0,1,.573-.081q.976,0,1.953,0h1.356c.968,0,1.714,0,2.418-.009Z" fill="#25245e"/><path d="M350.452,295.342a1.521,1.521,0,0,1-.667,1.188,1.485,1.485,0,0,1-.792.271,1.938,1.938,0,0,0,.861-.382,1.618,1.618,0,0,0,.572-1.014A.241.241,0,0,1,350.452,295.342Z" transform="translate(-106.35 -106.376)" fill="#fcfcfc"/><path d="M350.407,295.321l.1.024a1.577,1.577,0,0,1-.687,1.226,1.529,1.529,0,0,1-.818.28l-.015-.1a1.905,1.905,0,0,0,.839-.371,1.561,1.561,0,0,0,.555-.984.186.186,0,0,1,.023-.061Z" transform="translate(-106.35 -106.376)" fill="#25245e"/><path d="M309.028,225.452a.126.126,0,0,1,.135-.106.549.549,0,0,0,.58-.565.558.558,0,0,0-.621-.526c-.358,0-.717,0-1.075,0-.158,0-.368.056-.458-.024-.1-.092-.022-.308-.035-.469,0-.018,0-.036,0-.056a.546.546,0,0,0-1.092,0c-.006.139-.008.28,0,.42.006.1-.022.135-.128.131-.255-.007-.511,0-.766,0-.237,0-.474,0-.711,0a.55.55,0,0,0-.584.544.54.54,0,0,0,.561.546.149.149,0,0,1,.162.124,6.567,6.567,0,0,0,1.169,2.163c.073.088.071.137-.022.212-.367.29-.725.59-1.088.886a.537.537,0,0,0-.216.577.544.544,0,0,0,.9.278c.392-.308.774-.626,1.155-.949a.151.151,0,0,1,.24,0c.37.314.749.619,1.124.928a.567.567,0,0,0,.522.146.547.547,0,0,0,.2-.969c-.37-.3-.741-.61-1.115-.909-.08-.063-.086-.1-.021-.184A6.66,6.66,0,0,0,309.028,225.452Zm-1.516.745a4.715,4.715,0,0,1-.434.651c-.027.033-.047.123-.114.035a5.618,5.618,0,0,1-.845-1.529h1.774A4.332,4.332,0,0,1,307.512,226.2Z" transform="translate(-67.868 -44.265)" fill="#fcfcfc"/><path d="M307.006,223.112h0a.6.6,0,0,1,.6.592c0,.009,0,.016,0,.023a.305.305,0,0,0,0,.031,1.016,1.016,0,0,1-.009.184c-.012.106-.023.207.027.251a.2.2,0,0,0,.129.03c.045,0,.1,0,.144-.009s.1-.01.151-.01c.359,0,.717,0,1.076,0a.61.61,0,0,1,.67.574.6.6,0,0,1-.628.617c-.061,0-.073.017-.09.071a6.742,6.742,0,0,1-1.2,2.212c-.029.036-.034.053-.033.061s.01.023.046.052c.363.291.729.592,1.082.883l.033.027a.582.582,0,0,1,.224.6.576.576,0,0,1-.445.458.612.612,0,0,1-.566-.156l-.315-.258c-.267-.218-.543-.444-.81-.671a.1.1,0,0,0-.175,0c-.335.283-.734.617-1.156.95a.663.663,0,0,1-.41.148.578.578,0,0,1-.565-.453.585.585,0,0,1,.233-.628l.341-.279c.244-.2.5-.408.748-.607.034-.028.053-.05.055-.066s-.011-.04-.04-.075a6.649,6.649,0,0,1-1.178-2.18c-.021-.065-.039-.086-.116-.089a.593.593,0,0,1-.609-.6.6.6,0,0,1,.634-.594l.364,0h.766c.137,0,.248,0,.349,0,.053,0,.065-.007.068-.011s.012-.02.009-.068c-.009-.15-.005-.3,0-.424A.594.594,0,0,1,307.006,223.112Zm.746,1.211a.294.294,0,0,1-.2-.055c-.088-.078-.074-.209-.06-.336a.943.943,0,0,0,.009-.166.409.409,0,0,1,0-.042v-.018a.5.5,0,0,0-.5-.494h0a.5.5,0,0,0-.493.5c0,.123-.009.269,0,.415a.188.188,0,0,1-.036.142.169.169,0,0,1-.126.042h-.018c-.1,0-.21,0-.346,0h-.766l-.363,0a.5.5,0,0,0-.535.494.491.491,0,0,0,.512.5.2.2,0,0,1,.208.159,6.549,6.549,0,0,0,1.16,2.147.208.208,0,0,1,.062.148.214.214,0,0,1-.092.134c-.252.2-.5.406-.747.606l-.341.279a.487.487,0,0,0-.2.527.474.474,0,0,0,.468.377.564.564,0,0,0,.349-.127c.421-.331.82-.665,1.154-.947a.235.235,0,0,1,.152-.071.247.247,0,0,1,.152.071c.266.226.542.451.809.669l.315.258a.515.515,0,0,0,.478.137.476.476,0,0,0,.372-.382.482.482,0,0,0-.189-.5l-.033-.027c-.353-.291-.718-.591-1.081-.882a.153.153,0,0,1-.029-.255,6.643,6.643,0,0,0,1.178-2.179.175.175,0,0,1,.181-.141.5.5,0,0,0,.533-.513.51.51,0,0,0-.571-.477c-.358,0-.717,0-1.076,0-.043,0-.091,0-.142.009S307.8,224.323,307.752,224.323Zm-1.7.982h1.913l-.019.064a4.426,4.426,0,0,1-.385.852,4.793,4.793,0,0,1-.438.658.158.158,0,0,0-.012.019c-.016.029-.041.073-.091.073a.125.125,0,0,1-.091-.057,5.648,5.648,0,0,1-.853-1.542Zm1.777.1H306.19a5.572,5.572,0,0,0,.813,1.448l.008.009.008-.013a.255.255,0,0,1,.02-.032,4.689,4.689,0,0,0,.429-.645A4.583,4.583,0,0,0,307.825,225.4Z" transform="translate(-67.868 -44.265)" fill="#25245e"/><path d="M249.842,205.492q-.54-2.685-1.078-5.37a.57.57,0,0,0-.637-.516q-.456,0-.912,0a.573.573,0,0,0-.646.527q-.534,2.657-1.064,5.317a.55.55,0,1,0,1.071.211c.1-.506.206-1.011.3-1.518.022-.123.061-.169.194-.163.3.013.608,0,.912,0,.444,0,.442,0,.526.439s.167.858.258,1.285a.548.548,0,0,0,1.088-.112A.854.854,0,0,0,249.842,205.492Zm-2.71-2.611c.142-.7.285-1.4.42-2.1.017-.086.06-.085.124-.086s.092.015.106.086c.137.7.279,1.391.42,2.1Z" transform="translate(-17.283 -23.993)" fill="#fcfcfc"/><path d="M246.031,206.225a.593.593,0,0,1-.122-.013.613.613,0,0,1-.454-.771l.254-1.272q.4-2.023.81-4.045a.619.619,0,0,1,.695-.567q.456,0,.913,0a.621.621,0,0,1,.686.556q.323,1.6.644,3.2.217,1.083.434,2.165a.873.873,0,0,1,.013.1v.008a.6.6,0,0,1-1.187.122c-.087-.41-.165-.808-.258-1.285v-.005c-.038-.2-.059-.307-.111-.35s-.163-.043-.365-.043c-.185,0-.371,0-.556,0-.138,0-.252,0-.358-.007s-.123.014-.143.122c-.073.388-.152.782-.229,1.162l-.072.357A.631.631,0,0,1,246.031,206.225Zm1.639-6.57h-.456a.523.523,0,0,0-.6.487q-.406,2.021-.81,4.045l-.254,1.272a.512.512,0,0,0,.377.654.492.492,0,0,0,.1.011.528.528,0,0,0,.495-.474l.072-.357c.077-.38.157-.773.229-1.16.023-.128.071-.211.245-.2.1,0,.217.006.354.006.185,0,.371,0,.556,0,.465,0,.487.018.574.475v.005c.093.477.171.874.258,1.284a.5.5,0,0,0,.989-.1.807.807,0,0,0-.012-.093q-.218-1.082-.434-2.165-.321-1.6-.644-3.2a.522.522,0,0,0-.589-.476Zm.592,3.276H247.07l.1-.516c.109-.537.221-1.093.327-1.638.024-.124.107-.126.167-.127h.018a.133.133,0,0,1,.143.127c.087.442.177.891.265,1.326q.077.383.155.769Zm-1.07-.1h.948q-.071-.356-.143-.709c-.088-.435-.178-.884-.265-1.326-.009-.046-.017-.046-.045-.046h-.016c-.06,0-.062,0-.071.046-.106.546-.219,1.1-.328,1.639Z" transform="translate(-17.283 -23.993)" fill="#25245e"/><path d="M309.028,225.452a.126.126,0,0,1,.135-.106.549.549,0,0,0,.58-.565.558.558,0,0,0-.621-.526c-.358,0-.717,0-1.075,0-.158,0-.368.056-.458-.024-.1-.092-.022-.308-.035-.469,0-.018,0-.036,0-.056a.546.546,0,0,0-1.092,0c-.006.139-.008.28,0,.42.006.1-.022.135-.128.131-.255-.007-.511,0-.766,0-.237,0-.474,0-.711,0a.55.55,0,0,0-.584.544.54.54,0,0,0,.561.546.149.149,0,0,1,.162.124,6.567,6.567,0,0,0,1.169,2.163c.073.088.071.137-.022.212-.367.29-.725.59-1.088.886a.537.537,0,0,0-.216.577.544.544,0,0,0,.9.278c.392-.308.774-.626,1.155-.949a.151.151,0,0,1,.24,0c.37.314.749.619,1.124.928a.567.567,0,0,0,.522.146.547.547,0,0,0,.2-.969c-.37-.3-.741-.61-1.115-.909-.08-.063-.086-.1-.021-.184A6.66,6.66,0,0,0,309.028,225.452Zm-1.516.745a4.715,4.715,0,0,1-.434.651c-.027.033-.047.123-.114.035a5.618,5.618,0,0,1-.845-1.529h1.774A4.332,4.332,0,0,1,307.512,226.2Z" transform="translate(-67.868 -44.265)" fill="#fcfcfc"/><path d="M307.006,223.112h0a.6.6,0,0,1,.6.592c0,.009,0,.016,0,.023a.305.305,0,0,0,0,.031,1.016,1.016,0,0,1-.009.184c-.012.106-.023.207.027.251a.2.2,0,0,0,.129.03c.045,0,.1,0,.144-.009s.1-.01.151-.01c.359,0,.717,0,1.076,0a.61.61,0,0,1,.67.574.6.6,0,0,1-.628.617c-.061,0-.073.017-.09.071a6.742,6.742,0,0,1-1.2,2.212c-.029.036-.034.053-.033.061s.01.023.046.052c.363.291.729.592,1.082.883l.033.027a.582.582,0,0,1,.224.6.576.576,0,0,1-.445.458.612.612,0,0,1-.566-.156l-.315-.258c-.267-.218-.543-.444-.81-.671a.1.1,0,0,0-.175,0c-.335.283-.734.617-1.156.95a.663.663,0,0,1-.41.148.578.578,0,0,1-.565-.453.585.585,0,0,1,.233-.628l.341-.279c.244-.2.5-.408.748-.607.034-.028.053-.05.055-.066s-.011-.04-.04-.075a6.649,6.649,0,0,1-1.178-2.18c-.021-.065-.039-.086-.116-.089a.593.593,0,0,1-.609-.6.6.6,0,0,1,.634-.594l.364,0h.766c.137,0,.248,0,.349,0,.053,0,.065-.007.068-.011s.012-.02.009-.068c-.009-.15-.005-.3,0-.424A.594.594,0,0,1,307.006,223.112Zm.746,1.211a.294.294,0,0,1-.2-.055c-.088-.078-.074-.209-.06-.336a.943.943,0,0,0,.009-.166.409.409,0,0,1,0-.042v-.018a.5.5,0,0,0-.5-.494h0a.5.5,0,0,0-.493.5c0,.123-.009.269,0,.415a.188.188,0,0,1-.036.142.169.169,0,0,1-.126.042h-.018c-.1,0-.21,0-.346,0h-.766l-.363,0a.5.5,0,0,0-.535.494.491.491,0,0,0,.512.5.2.2,0,0,1,.208.159,6.549,6.549,0,0,0,1.16,2.147.208.208,0,0,1,.062.148.214.214,0,0,1-.092.134c-.252.2-.5.406-.747.606l-.341.279a.487.487,0,0,0-.2.527.474.474,0,0,0,.468.377.564.564,0,0,0,.349-.127c.421-.331.82-.665,1.154-.947a.235.235,0,0,1,.152-.071.247.247,0,0,1,.152.071c.266.226.542.451.809.669l.315.258a.515.515,0,0,0,.478.137.476.476,0,0,0,.372-.382.482.482,0,0,0-.189-.5l-.033-.027c-.353-.291-.718-.591-1.081-.882a.153.153,0,0,1-.029-.255,6.643,6.643,0,0,0,1.178-2.179.175.175,0,0,1,.181-.141.5.5,0,0,0,.533-.513.51.51,0,0,0-.571-.477c-.358,0-.717,0-1.076,0-.043,0-.091,0-.142.009S307.8,224.323,307.752,224.323Zm-1.7.982h1.913l-.019.064a4.426,4.426,0,0,1-.385.852,4.793,4.793,0,0,1-.438.658.158.158,0,0,0-.012.019c-.016.029-.041.073-.091.073a.125.125,0,0,1-.091-.057,5.648,5.648,0,0,1-.853-1.542Zm1.777.1H306.19a5.572,5.572,0,0,0,.813,1.448l.008.009.008-.013a.255.255,0,0,1,.02-.032,4.689,4.689,0,0,0,.429-.645A4.583,4.583,0,0,0,307.825,225.4Z" transform="translate(-67.868 -44.265)" fill="#25245e"/><path d="M249.842,205.492q-.54-2.685-1.078-5.37a.57.57,0,0,0-.637-.516q-.456,0-.912,0a.573.573,0,0,0-.646.527q-.534,2.657-1.064,5.317a.55.55,0,1,0,1.071.211c.1-.506.206-1.011.3-1.518.022-.123.061-.169.194-.163.3.013.608,0,.912,0,.444,0,.442,0,.526.439s.167.858.258,1.285a.548.548,0,0,0,1.088-.112A.854.854,0,0,0,249.842,205.492Zm-2.71-2.611c.142-.7.285-1.4.42-2.1.017-.086.06-.085.124-.086s.092.015.106.086c.137.7.279,1.391.42,2.1Z" transform="translate(-17.283 -23.993)" fill="#fcfcfc"/><path d="M246.031,206.225a.593.593,0,0,1-.122-.013.613.613,0,0,1-.454-.771l.254-1.272q.4-2.023.81-4.045a.619.619,0,0,1,.695-.567q.456,0,.913,0a.621.621,0,0,1,.686.556q.323,1.6.644,3.2.217,1.083.434,2.165a.873.873,0,0,1,.013.1v.008a.6.6,0,0,1-1.187.122c-.087-.41-.165-.808-.258-1.285v-.005c-.038-.2-.059-.307-.111-.35s-.163-.043-.365-.043c-.185,0-.371,0-.556,0-.138,0-.252,0-.358-.007s-.123.014-.143.122c-.073.388-.152.782-.229,1.162l-.072.357A.631.631,0,0,1,246.031,206.225Zm1.639-6.57h-.456a.523.523,0,0,0-.6.487q-.406,2.021-.81,4.045l-.254,1.272a.512.512,0,0,0,.377.654.492.492,0,0,0,.1.011.528.528,0,0,0,.495-.474l.072-.357c.077-.38.157-.773.229-1.16.023-.128.071-.211.245-.2.1,0,.217.006.354.006.185,0,.371,0,.556,0,.465,0,.487.018.574.475v.005c.093.477.171.874.258,1.284a.5.5,0,0,0,.989-.1.807.807,0,0,0-.012-.093q-.218-1.082-.434-2.165-.321-1.6-.644-3.2a.522.522,0,0,0-.589-.476Zm.592,3.276H247.07l.1-.516c.109-.537.221-1.093.327-1.638.024-.124.107-.126.167-.127h.018a.133.133,0,0,1,.143.127c.087.442.177.891.265,1.326q.077.383.155.769Zm-1.07-.1h.948q-.071-.356-.143-.709c-.088-.435-.178-.884-.265-1.326-.009-.046-.017-.046-.045-.046h-.016c-.06,0-.062,0-.071.046-.106.546-.219,1.1-.328,1.639Z" transform="translate(-17.283 -23.993)" fill="#25245e"/></g></svg>