<svg xmlns="http://www.w3.org/2000/svg" width="15.515" height="15.969" viewBox="0 0 15.515 15.969"><g transform="translate(0 0)"><path d="M3664.878,5758.82a1.191,1.191,0,0,0,0,2.324h2.407l-1.719,2.146a1.375,1.375,0,0,0,0,1.644.807.807,0,0,0,1.316,0l3.036-3.791h8.614a1.191,1.191,0,0,0,0-2.325h-6.751l2.482-3.1h4.269a1.191,1.191,0,0,0,0-2.324h-2.407l1.687-2.106a1.376,1.376,0,0,0,0-1.644.807.807,0,0,0-1.316,0l-3,3.75h-8.614a1.191,1.191,0,0,0,0,2.324h6.751l-2.483,3.1Z" transform="translate(-3663.948 -5749.306)" fill="#fcfcfc"/></g></svg>