<svg xmlns="http://www.w3.org/2000/svg" width="811.407" height="2363.761" viewBox="0 0 811.407 2363.761"><g transform="translate(199.152 51.269)"><g transform="translate(596.907 2297.153)"><path d="M810.707,2352.193a.078.078,0,0,0,.008.013Z" transform="translate(-796.059 -2348.422)" fill="#fcfcfc"/><path transform="translate(-796.059 -2348.422)" fill="#25245e"/><path d="M612.1,2301.106a.644.644,0,0,0-.006-.1h0a.667.667,0,0,0-.149-.359h0c-.044-.05-.227-.234-1.228-1.235l-2.062-2.062a.676.676,0,0,0-.474-.2H598.44a1.534,1.534,0,0,0-1.533,1.532v12.124a1.534,1.534,0,0,0,1.533,1.532h12.123a1.534,1.534,0,0,0,1.533-1.532v-9.274C612.1,2301.3,612.1,2301.175,612.1,2301.106Zm-5.774-2.611h.5v2.575a.191.191,0,0,1-.191.191h-.306Zm-1.341,0v2.767h-3.754a.192.192,0,0,1-.191-.191v-2.575ZM606.819,2311h-5.784v-3.284h5.784Zm0-4.625h-5.784v-.306a.192.192,0,0,1,.191-.191h5.4a.191.191,0,0,1,.191.191Zm3.935,4.434a.191.191,0,0,1-.191.191h-2.4v-4.932a1.535,1.535,0,0,0-1.533-1.532h-5.4a1.535,1.535,0,0,0-1.533,1.532V2311H598.44a.191.191,0,0,1-.191-.191v-12.124a.191.191,0,0,1,.191-.191h1.254v2.575a1.534,1.534,0,0,0,1.533,1.533h5.4a1.534,1.534,0,0,0,1.533-1.533v-2.316l2.594,2.595Zm.8-9.885.008.013A.067.067,0,0,1,611.555,2300.924Z" transform="translate(-596.907 -2297.153)" fill="#fcfcfc"/><path d="M598.44,2297h9.739a.825.825,0,0,1,.315.063.815.815,0,0,1,.266.177l2.062,2.063c.689.689.988.988,1.125,1.126l.009-.009.106.127a.818.818,0,0,1,.182.439l.013.133-.01,0c0,.073,0,.2,0,.41v9.275a1.684,1.684,0,0,1-1.683,1.682H598.44a1.684,1.684,0,0,1-1.683-1.682v-12.124A1.684,1.684,0,0,1,598.44,2297Zm13.4,3.753-.01-.011c-.041-.047-.267-.273-1.222-1.228l-2.062-2.062a.515.515,0,0,0-.168-.112.522.522,0,0,0-.2-.04H598.44a1.384,1.384,0,0,0-1.383,1.383v12.124a1.384,1.384,0,0,0,1.383,1.383h12.123a1.384,1.384,0,0,0,1.383-1.383v-9.274c0-.233,0-.36,0-.429a.508.508,0,0,0,0-.078l-.016-.1A.517.517,0,0,0,611.841,2300.756Zm-13.4-2.411h1.4v2.725a1.384,1.384,0,0,0,1.383,1.383h5.4a1.384,1.384,0,0,0,1.383-1.383v-2.679l2.894,2.9v9.523a.341.341,0,0,1-.341.341H608.01v-5.082a1.384,1.384,0,0,0-1.383-1.383h-5.4a1.384,1.384,0,0,0-1.383,1.383v5.082h-1.4a.341.341,0,0,1-.341-.341v-12.124A.341.341,0,0,1,598.44,2298.345Zm1.1.3h-1.1a.041.041,0,0,0-.041.041v12.124a.041.041,0,0,0,.041.041h1.1v-4.782a1.684,1.684,0,0,1,1.683-1.682h5.4a1.684,1.684,0,0,1,1.683,1.682v4.782h2.253a.041.041,0,0,0,.041-.041v-9.4l-2.294-2.294v1.954a1.685,1.685,0,0,1-1.683,1.683h-5.4a1.685,1.685,0,0,1-1.683-1.683Zm1.342-.3h4.245v3.066h-3.9a.341.341,0,0,1-.341-.341Zm3.945.3h-3.645v2.426a.042.042,0,0,0,.041.041h3.6Zm1.341-.3h.8v2.725a.341.341,0,0,1-.341.341h-.456Zm.5.3h-.2v2.467h.156a.041.041,0,0,0,.041-.041Zm-5.443,7.083h5.4a.341.341,0,0,1,.341.341v.456h-6.084v-.456A.341.341,0,0,1,601.226,2305.728Zm5.443.5v-.156a.042.042,0,0,0-.041-.041h-5.4a.042.042,0,0,0-.041.041v.156Zm-5.784,1.342h6.084v3.583h-6.084Zm5.784.3h-5.484v2.984h5.484Z" transform="translate(-596.907 -2297.153)" fill="#25245e"/></g></g></svg>