<svg xmlns="http://www.w3.org/2000/svg" width="8.545" height="11.287" viewBox="0 0 8.545 11.287"><g transform="translate(-1386.678 -516.356)"><path d="M.76-1.56l1.08-.947A3.857,3.857,0,0,0,4.853-1.12c1.32,0,2.32-.573,2.32-1.613,0-2.56-5.88-1.493-5.88-5,0-1.8,1.547-2.84,3.64-2.84a4.407,4.407,0,0,1,3.44,1.44l-1.027.88A3.3,3.3,0,0,0,4.88-9.293c-1.253,0-2.053.6-2.053,1.467,0,2.32,5.88,1.373,5.88,4.947C8.707-.907,6.933.213,4.827.213A5.338,5.338,0,0,1,.76-1.56Z" transform="translate(1386.266 527.18)" fill="#fcfcfc"/><path d="M4.827.463A5.622,5.622,0,0,1,.568-1.4L.412-1.587,1.862-2.858l.165.185a3.62,3.62,0,0,0,2.827,1.3c.955,0,2.07-.357,2.07-1.363S5.8-4.1,4.5-4.527C2.88-5.059,1.043-5.661,1.043-7.733a2.763,2.763,0,0,1,1.135-2.3,4.561,4.561,0,0,1,2.755-.795A4.619,4.619,0,0,1,8.561-9.3l.168.19-1.4,1.2-.164-.17A3.062,3.062,0,0,0,4.88-9.043c-1.1,0-1.8.478-1.8,1.217,0,.854,1.064,1.2,2.3,1.609,1.6.525,3.584,1.178,3.584,3.338C8.957-.912,7.258.463,4.827.463Zm-3.713-2a5.186,5.186,0,0,0,3.713,1.5c1.748,0,3.63-.89,3.63-2.843,0-1.8-1.647-2.339-3.241-2.863C3.859-6.189,2.577-6.61,2.577-7.827c0-1.027.926-1.717,2.3-1.717a3.536,3.536,0,0,1,2.478.951l.654-.561a4.183,4.183,0,0,0-3.079-1.171c-2.059,0-3.39,1.017-3.39,2.59C1.543-6.023,3.126-5.5,4.657-5c1.36.446,2.767.908,2.767,2.268C7.423-1.6,6.415-.87,4.853-.87A4.053,4.053,0,0,1,1.823-2.159Z" transform="translate(1386.266 527.18)" fill="#fcfcfc"/></g></svg>