<svg xmlns="http://www.w3.org/2000/svg" width="13.442" height="9.567" viewBox="0 0 13.442 9.567"><g transform="translate(-1384.358 -709.217)"><path d="M3.493-9.067.76-8.187l.44,1.24,1.72-.627V0H4.44V-9.067Zm2.92,1.733,2.56,3.64L6.387,0h1.72l1.76-2.653L11.653,0H13.4L10.787-3.733l2.493-3.6H11.613L9.893-4.747,8.173-7.333Z" transform="translate(1383.92 718.533)" fill="#fcfcfc"/><path d="M3.454-9.317H4.69V.25H2.67V-7.216l-1.621.591-.61-1.72Zm.736.5H3.533l-2.451.789.27.76L3.17-7.93V-.25H4.19ZM5.932-7.583H8.307L9.893-5.2l1.586-2.385h2.278L11.091-3.734,13.88.25H11.52L9.868-2.2,8.241.25H5.906L8.668-3.693Zm2.107.5H6.895l2.384,3.39L6.867-.25H7.973L9.865-3.1,11.786-.25H12.92L10.482-3.733,12.8-7.083H11.747L9.893-4.3Z" transform="translate(1383.92 718.533)" fill="#fcfcfc"/></g></svg>