<svg xmlns="http://www.w3.org/2000/svg" width="23.286" height="23.286" viewBox="0 0 23.286 23.286"><g transform="translate(-1697.079 -187.891) rotate(-45)"><path d="M1073.746,1357.573a1.655,1.655,0,0,1-1.166-.481l-13.173-13.175a1.646,1.646,0,0,1,2.328-2.328l13.174,13.174a1.645,1.645,0,0,1-1.162,2.809Z" transform="translate(0 0)" fill="#fcfcfc"/><path d="M1060.571,1357.573a1.645,1.645,0,0,1-1.165-2.809l13.173-13.174a1.646,1.646,0,0,1,2.328,2.328l-13.174,13.175a1.641,1.641,0,0,1-1.163.481Z" transform="translate(0 0)" fill="#fcfcfc"/></g></svg>