<svg xmlns="http://www.w3.org/2000/svg" width="24.271" height="23.568" viewBox="0 0 24.271 23.568"><g transform="translate(-1749.499 -2325.834)"><g transform="translate(1761.063 2327.829)"><g transform="translate(0 0)"><path d="M1965.316,2366.076a1.414,1.414,0,0,0-.179.011v-2.972a.415.415,0,0,1,.124-.3.42.42,0,0,1,.3-.124h0a.422.422,0,0,1,.422.422v2.972a1.415,1.415,0,0,0-.18-.011Z" transform="translate(-1965.029 -2362.693)" fill="#fff9f0"/><path d="M1965.09,2427.2v.4a.475.475,0,0,1-.257.423h-.439a.476.476,0,0,1-.257-.423v-.4l.054-.008a1.212,1.212,0,0,1,.18-.012h.485a1.3,1.3,0,0,1,.18.012Z" transform="translate(-1964.083 -2423.694)" fill="#fff9f0"/><path d="M1964.144,2427.422a.358.358,0,0,0-.054-.008v.406a.422.422,0,1,1-.845,0v-.406a.441.441,0,0,0-.054.007.49.49,0,0,0-.054.01v.388a.531.531,0,0,0,.216.427.54.54,0,0,1,.069,0h.485a.537.537,0,0,1,.074.005.529.529,0,0,0,.217-.428v-.388A.545.545,0,0,0,1964.144,2427.422Z" transform="translate(-1963.137 -2423.911)" fill="#fff9f0"/></g></g><g transform="translate(1761.176 2325.834)"><g transform="translate(0 0)"><path d="M1966.061,2326.255a.421.421,0,0,1-.422.422.423.423,0,0,1-.3-.721.424.424,0,0,1,.3-.123.421.421,0,0,1,.422.421Z" transform="translate(-1965.217 -2325.834)" fill="#fff9f0"/></g></g><g transform="translate(1753.871 2331.32)"><g transform="translate(0 0)"><path d="M1845.615,2435.92a7.724,7.724,0,0,0-5.865-6.287h0l-.11-.047v-.99a1.416,1.416,0,0,0-1.123-1.381l-.054-.01-.054-.008a1.3,1.3,0,0,0-.18-.012h-.485a1.216,1.216,0,0,0-.18.012l-.054.008-.054.01a1.416,1.416,0,0,0-1.123,1.381v1.013l-.042.009a7.661,7.661,0,0,0-2.819,1.273l-.006,0a.43.43,0,0,0-.08.059l0,0a7.717,7.717,0,0,0,0,12.4l0,0a.432.432,0,0,0,.076.055l.005,0a7.725,7.725,0,0,0,12.145-7.5Zm-5.742-5.377a6.819,6.819,0,0,1,1.933.891l.017.039.016.048a21.891,21.891,0,0,1,.542,2.73l.01.073-.072-.012c-.646-.107-1.3-.188-1.951-.242l-.045,0,0-.044a32.59,32.59,0,0,0-.513-3.415l-.018-.087Zm-2.7-1.951a.568.568,0,0,1,.5-.561.5.5,0,0,1,.069,0h.485a.5.5,0,0,1,.074.005.568.568,0,0,1,.491.561v.881l-.06-.006a7.815,7.815,0,0,0-1.5,0l-.06,0Zm-.756,5.346a31.317,31.317,0,0,1,.568-3.555l.041-.042a6.922,6.922,0,0,1,1.818-.013l.038,0,.008.038a31.539,31.539,0,0,1,.566,3.563l.007.063-.063,0a26.972,26.972,0,0,0-2.927,0l-.063,0Zm-2.924.328a24.056,24.056,0,0,1,.542-2.752l-.218.164.237-.167a6.84,6.84,0,0,1,1.943-.943l.087-.027-.018.09a32.33,32.33,0,0,0-.507,3.4l0,.044-.044,0c-.649.06-1.306.145-1.953.252l-.073.012Zm-1.906.358a6.873,6.873,0,0,1,1.225-2l.1-.108v.156c-.119.588-.214,1.19-.285,1.789l0,.04-.093.018-.973.2Zm-.306,4.087,0-.021a6.947,6.947,0,0,1-.011-3.02l.01-.042h.064l1.191-.245-.005.072a22.9,22.9,0,0,0,0,3.448l.005.071-1.212-.238Zm1.527,2.977a6.9,6.9,0,0,1-1.191-1.927l-.131-.026.2-.1.012.03.921.181,0,.04c.071.585.165,1.175.281,1.754l.039.2Zm.625-2.551-.042-.007,0-.042a22.089,22.089,0,0,1,0-3.835l.049,0-.009-.053c.659-.116,1.33-.208,1.992-.273l.064-.006,0,.063c-.043.667-.067,1.345-.07,2.013,0,.776.027,1.563.081,2.341l0,.063-.063-.006C1834.771,2439.337,1834.1,2439.249,1833.436,2439.137Zm2.594,4.615a6.841,6.841,0,0,1-1.949-.937l-.028.007-.017-.051a22,22,0,0,1-.536-2.7l-.009-.073.072.011c.651.1,1.313.186,1.966.242l.045,0,0,.044a32.433,32.433,0,0,0,.522,3.385l.018.089Zm3.417-3.363a31.558,31.558,0,0,1-.579,3.548l0,.013v.03l-.048.006a6.793,6.793,0,0,1-.83.051,6.984,6.984,0,0,1-.926-.063l-.038-.005-.008-.037a31.183,31.183,0,0,1-.577-3.548l-.007-.063.063,0c.494.026,1,.04,1.491.04.466,0,.938-.012,1.4-.036l.063,0Zm2.933-.3a22.006,22.006,0,0,1-.552,2.757l-.011.04h-.03a6.838,6.838,0,0,1-1.942.895l-.086.024.018-.087a32.574,32.574,0,0,0,.528-3.405l0-.044.045,0c.652-.054,1.313-.133,1.963-.236l.072-.011Zm.111-.986,0,.049h-.049c-.66.108-1.331.194-1.992.256l-.064.006,0-.064c.009-.123.041-2.012.049-2.134a.422.422,0,1,0-.843-.049c-.01.164-.046,2.1-.058,2.262l0,.047-.048,0c-.5.028-1,.042-1.5.042-.528,0-1.057-.015-1.582-.046l-.047,0,0-.048a31.942,31.942,0,0,1-.011-4.519l0-.048.048,0a25.976,25.976,0,0,1,3.1-.005l.047,0,0,.048c.013.186.037,2.021.047,2.21a.422.422,0,0,0,.421.4h.025a.414.414,0,0,0,.289-.138.418.418,0,0,0,.108-.3c-.005-.111-.025-1.867-.032-1.978l-.01-.17.063.006c.661.063,1.33.152,1.99.267l.041.007,0,.042A22.121,22.121,0,0,1,1842.49,2439.1Zm.55-6.609a6.878,6.878,0,0,1,1.346,2.13l.023.058-.072.018-.015,0-1.06-.216,0-.039c-.076-.634-.18-1.274-.31-1.9l-.039-.191Zm1.321,7.239a6.853,6.853,0,0,1-1.317,2.085l-.016.018h-.1l.014-.065c.126-.615.229-1.243.3-1.866l0-.039.186-.035.958-.189Zm.327-1.047,0,.022-.036.023-1.3.258.005-.071a23,23,0,0,0,0-3.485l-.005-.071,1.282.263h.064l.01.042A6.955,6.955,0,0,1,1844.688,2438.686Z" transform="translate(-1830.265 -2427.184)" fill="#fff9f0"/><path d="M1855.96,2658.624h0Zm0,0h0Zm0,0h0Zm0,0h0Zm0,0h0Zm0,0h0Zm0,0h0Zm0,0h0Zm0,0h0Zm0,0h0Zm0,0h0Z" transform="translate(-1854.566 -2646.096)" fill="#fff9f0"/></g></g><g transform="translate(1763.195 2340.87)"><g transform="translate(0 0)"><path d="M2003.372,2604.027a.422.422,0,1,1-.124-.3A.421.421,0,0,1,2003.372,2604.027Z" transform="translate(-2002.527 -2603.604)" fill="#fff9f0"/></g></g><g transform="translate(1749.499 2344.796)"><g transform="translate(0 0)"><path d="M1754.019,2678.319a.43.43,0,0,0-.308-.308,2.148,2.148,0,0,1-1.535-1.555.422.422,0,0,0-.82,0,2.148,2.148,0,0,1-1.535,1.555.431.431,0,0,0,0,.834,2.147,2.147,0,0,1,1.535,1.555.422.422,0,0,0,.82,0,2.148,2.148,0,0,1,1.535-1.555A.432.432,0,0,0,1754.019,2678.319Zm-1.479.154a2.981,2.981,0,0,0-.719.714v.154l-.1-.138a2.97,2.97,0,0,0-.729-.729l-.063-.044.063-.044a2.982,2.982,0,0,0,.729-.729l.045-.063.045.063a2.975,2.975,0,0,0,.729.729l.063.044Z" transform="translate(-1749.499 -2676.134)" fill="#fff9f0"/></g></g><g transform="translate(1750.79 2328.332)"><g transform="translate(0 0)"><path d="M1780.24,2375.8l0-.009-.024-.047a.136.136,0,0,1-.012-.029l-1.656-3.5a.423.423,0,0,0-.382-.242.431.431,0,0,0-.181.041l-.03.016-3.628,2.089a.424.424,0,0,0-.171.547l1.051,2.221-.078.006a1.91,1.91,0,0,0-.683.183,2.006,2.006,0,0,0-.874.787,1.123,1.123,0,0,0,.837,1.778,1.787,1.787,0,0,0,.289.022,2.056,2.056,0,0,0,.877-.2,1.842,1.842,0,0,0,.843-.785,1.23,1.23,0,0,0,.052-1.1c-.007-.015-.016-.031-.024-.046a.143.143,0,0,1-.013-.031l-1.345-2.843,2.893-1.666,1,2.107-.078.007a1.948,1.948,0,0,0-.683.185,2.017,2.017,0,0,0-.875.787,1.21,1.21,0,0,0-.1,1.135,1.322,1.322,0,0,0,1.232.663,2.068,2.068,0,0,0,.87-.2l.005,0A1.473,1.473,0,0,0,1780.24,2375.8Zm-4.93,1.934v.006a.762.762,0,0,1,.1.013.334.334,0,0,1,.327.337.33.33,0,0,1-.071.2.985.985,0,0,1-.454.408,1.184,1.184,0,0,1-.515.117,1.24,1.24,0,0,1-.144-.009.305.305,0,0,1-.217-.047.3.3,0,0,1-.128-.193.3.3,0,0,1,.1-.284,1.19,1.19,0,0,1,.5-.441,1.066,1.066,0,0,1,.449-.11Zm4.164-1.315a.934.934,0,0,1-.462.478h0l-.031.018a1.246,1.246,0,0,1-.524.12.5.5,0,0,1-.457-.18l0-.012a.422.422,0,0,1,.075-.339,1.183,1.183,0,0,1,.505-.445,1.063,1.063,0,0,1,.448-.105.479.479,0,0,1,.445.2l0,.009A.336.336,0,0,1,1779.474,2376.417Z" transform="translate(-1773.355 -2371.974)" fill="#fff9f0"/></g></g><g transform="translate(1766.631 2329.588)"><g transform="translate(0 0)"><path d="M2070.517,2397.369a.432.432,0,0,0-.308-.308h0a2.146,2.146,0,0,1-1.534-1.555.423.423,0,0,0-.409-.322.441.441,0,0,0-.1.012.424.424,0,0,0-.309.31,2.148,2.148,0,0,1-1.535,1.555.431.431,0,0,0,0,.833,2.149,2.149,0,0,1,1.535,1.555.422.422,0,0,0,.82,0,2.146,2.146,0,0,1,1.534-1.554.432.432,0,0,0,.309-.526Zm-1.479.155a2.976,2.976,0,0,0-.73.727l-.04-.028-.048.029a2.973,2.973,0,0,0-.729-.728l-.063-.044.063-.045a2.974,2.974,0,0,0,.729-.729l.044-.062.045.063a2.973,2.973,0,0,0,.729.729l.064.045Z" transform="translate(-2065.997 -2395.184)" fill="#fff9f0"/></g></g><g transform="translate(1767.616 2343.767)"><g transform="translate(0 0)"><path d="M2089.952,2657.716l-.117-.01.007-.008a7.431,7.431,0,0,1-2.005-.536.424.424,0,0,0-.556.222.434.434,0,0,0-.03.112l-.371,2.839-.069-.038a2,2,0,0,0-.708-.229,2.069,2.069,0,0,0-1.189.19,1.146,1.146,0,0,0-.263,1.987,2.122,2.122,0,0,0,1.381.512,1.447,1.447,0,0,0,1.538-1.138v-.038l.45-3.446.063.023a7,7,0,0,0,1.838.4.425.425,0,0,0,.418-.423A.425.425,0,0,0,2089.952,2657.716Zm-3.221,3.792-.005.048h-.006a.4.4,0,0,1-.146.192.918.918,0,0,1-.553.166,1.273,1.273,0,0,1-.16-.011,1.247,1.247,0,0,1-.646-.283.436.436,0,0,1-.181-.32v-.012c.016-.126.169-.225.259-.272a1.23,1.23,0,0,1,.536-.119,1.319,1.319,0,0,1,.164.01.986.986,0,0,1,.649.334A.366.366,0,0,1,2086.731,2661.509Z" transform="translate(-2084.186 -2657.129)" fill="#fff9f0"/></g></g></g></svg>