<svg xmlns="http://www.w3.org/2000/svg" width="19.258" height="9.834" viewBox="0 0 19.258 9.834"><g transform="translate(2478.463 -3111.273)"><g transform="translate(-2476.463 3111.273)"><g transform="translate(-2)"><path d="M-2474.871,3113.21v7.834a.914.914,0,0,1-.795,1,.913.913,0,0,1-.8-1v-7.933a.9.9,0,0,1,.8-.9A.9.9,0,0,1-2474.871,3113.21Z" transform="translate(2476.463 -3112.21)" fill="#fcfcfc"/><g transform="translate(17.666)"><path d="M-2474.871,3113.21v7.834a.914.914,0,0,1-.795,1,.913.913,0,0,1-.8-1v-7.933a.9.9,0,0,1,.8-.9A.9.9,0,0,1-2474.871,3113.21Z" transform="translate(2476.463 -3112.21)" fill="#fcfcfc"/></g></g></g><g transform="translate(-2475.231 3113.268)"><path d="M-2463.82,3123.75l-2.405,2.4a.623.623,0,0,1-.867,0,.6.6,0,0,1,0-.868l1.257-1.258h-8.48l1.268,1.258a.608.608,0,0,1,.179.434.627.627,0,0,1-.179.434l-.022.012a.612.612,0,0,1-.857-.012l-2.392-2.4a.488.488,0,0,1,0-.69l2.392-2.393a.608.608,0,0,1,.435-.178.612.612,0,0,1,.444.178.622.622,0,0,1,.011.857l-1.28,1.269h8.48l-1.257-1.258a.6.6,0,0,1,0-.868.624.624,0,0,1,.867,0l2.405,2.393A.493.493,0,0,1-2463.82,3123.75Z" transform="translate(2476.46 -3120.49)" fill="#fcfcfc"/></g></g></svg>