<svg xmlns="http://www.w3.org/2000/svg" width="17.74" height="18.208" viewBox="0 0 17.74 18.208"><g transform="translate(-2250.354 -2348.569)"><g transform="translate(2251.847 2348.719)"><path d="M2505.262,2408.445a.328.328,0,0,1,.382-.264,2.1,2.1,0,0,1,1.787,2.36.183.183,0,0,1,0,.025.327.327,0,0,1-.322.269.36.36,0,0,1-.059,0,.33.33,0,0,1-.264-.382,1.44,1.44,0,0,0-1.229-1.619h-.006l-.021,0A.328.328,0,0,1,2505.262,2408.445Z" transform="translate(-2494.792 -2405.502)" fill="#fcfcfc"/><path d="M2505.585,2408.025a.471.471,0,0,1,.083.007,2.245,2.245,0,0,1,1.913,2.522.282.282,0,0,1,0,.031v.009a.477.477,0,0,1-.47.391.5.5,0,0,1-.083-.006.48.48,0,0,1-.388-.553,1.29,1.29,0,0,0-1.1-1.447h0l-.021,0h-.009a.478.478,0,0,1,.085-.948Zm1.7,2.508v-.014a1.945,1.945,0,0,0-1.658-2.191h-.006a.179.179,0,0,0-.207.144.179.179,0,0,0,.141.206l.016,0h0a1.591,1.591,0,0,1,1.36,1.788v.007a.179.179,0,0,0,.144.207l.031,0a.179.179,0,0,0,.1-.032.176.176,0,0,0,.073-.114v0h0Z" transform="translate(-2494.792 -2405.502)" fill="#fcfcfc"/><path d="M2288.452,2366.578a.326.326,0,0,1-.171.049.329.329,0,0,1-.28-.156l0-.007-1.852-3.9a.272.272,0,0,1-.009-.029l-.912-1.921a.587.587,0,0,1-.016-.458l.289-.735a1.913,1.913,0,0,0-.036-1.468l-.948-2.1a1.684,1.684,0,0,0-.677-.761l-1.893-1.135-.038-.023a.782.782,0,1,0-.762,1.366l1.483.869.017.01a.329.329,0,0,1,.09.455,3.947,3.947,0,0,0-.615,2.854.328.328,0,0,1-.647.108,4.631,4.631,0,0,1,.536-3.03l-1.193-.7a1.437,1.437,0,0,1,.153-2.558l-.617-1.3a.262.262,0,0,1-.027-.038l0-.007-1.052-2.227a.64.64,0,0,0-1.183.486l1.657,3.49a.327.327,0,0,1-.386.432.32.32,0,0,1-.2-.149l0-.005-2-4.206c0-.006-.005-.012-.008-.017a.64.64,0,0,0-.857-.292.64.64,0,0,0-.292.857l2.192,4.621a.329.329,0,0,1-.137.387.327.327,0,0,1-.451-.107l0-.007-1.9-4.01a.635.635,0,0,0-.364-.331.643.643,0,0,0-.8.88l2,4.216a.33.33,0,0,1-.137.388.327.327,0,0,1-.451-.108l0-.006-1.548-3.263a.64.64,0,0,0-1.174.06.63.63,0,0,0,.018.49l3.906,7.839c.139.255.448.778.562.959a.341.341,0,0,1,.07.053,4.348,4.348,0,0,0,1.346.867l.253.1a.665.665,0,0,1,.353.335l1.178,2.487a.328.328,0,0,1-.309.437.364.364,0,0,1-.076-.009.323.323,0,0,1-.2-.147l0-.007-1.177-2.48a.023.023,0,0,0-.009-.01l-.253-.1a5.021,5.021,0,0,1-1.549-1,.078.078,0,0,1-.014-.012l-.019-.021a.336.336,0,0,1-.113-.1c-.124-.188-.586-.971-.683-1.178l-3.854-7.734a1.3,1.3,0,0,1,1.268-1.848,8.753,8.753,0,0,0,1.991-3.034,1.422,1.422,0,0,0,2.24-.1,1.294,1.294,0,0,1,1.724.616l.8,1.708a.333.333,0,0,1,.052.092l.917,1.936a1.426,1.426,0,0,1,.645.2l1.893,1.135a2.341,2.341,0,0,1,.937,1.054l.948,2.1a2.579,2.579,0,0,1,.049,1.977l-.277.7,1.258,2.652,0,.006a.518.518,0,0,1,.031.062l.008.027h0l1.462,3.077A.329.329,0,0,1,2288.452,2366.578Z" transform="translate(-2272.51 -2348.719)" fill="#fcfcfc"/><path d="M2288.281,2366.777a.476.476,0,0,1-.407-.227l-.012-.021-1.858-3.911c0-.01-.006-.019-.009-.029l-.906-1.908a.738.738,0,0,1-.021-.576l.289-.736a1.762,1.762,0,0,0-.034-1.351l-.947-2.1a1.535,1.535,0,0,0-.617-.694l-1.9-1.139-.028-.017a.632.632,0,0,0-.616,1.1l1.485.87.015.009.01.006a.48.48,0,0,1,.131.662,3.8,3.8,0,0,0-.592,2.746v.007a.478.478,0,0,1-.943.156v-.006a4.792,4.792,0,0,1,.482-3l-1.068-.627a1.588,1.588,0,0,1,.03-2.756l-.546-1.151a.38.38,0,0,1-.029-.042l-.01-.019-1.052-2.227a.486.486,0,0,0-.442-.282.5.5,0,0,0-.167.029.492.492,0,0,0-.3.618l1.659,3.494a.477.477,0,0,1-.563.629.469.469,0,0,1-.294-.218l-.008-.015-2-4.2-.008-.017,0,0a.49.49,0,0,0-.879.433l2.2,4.638a.479.479,0,0,1-.2.565.477.477,0,0,1-.657-.157l-.011-.02-1.9-4.01a.485.485,0,0,0-.279-.254.493.493,0,0,0-.611.675l2.008,4.231a.478.478,0,0,1-.562.623.474.474,0,0,1-.293-.211l-.014-.024-1.548-3.263a.483.483,0,0,0-.436-.272.494.494,0,0,0-.207.045.487.487,0,0,0-.255.274.48.48,0,0,0,.013.375l3.9,7.832c.13.239.413.718.538.92a.45.45,0,0,1,.067.056,4.192,4.192,0,0,0,1.3.834l.253.1a.816.816,0,0,1,.432.41l1.184,2.5a.477.477,0,0,1-.45.637.509.509,0,0,1-.108-.012.471.471,0,0,1-.3-.215l-.012-.022-1.156-2.434-.2-.083a5.169,5.169,0,0,1-1.588-1.02.229.229,0,0,1-.023-.021l-.007-.007,0,0a.484.484,0,0,1-.141-.136c-.124-.187-.592-.98-.695-1.2l-3.853-7.731a1.445,1.445,0,0,1,1.2-2.064,1.443,1.443,0,0,1,1.406-1.781h.015a6.268,6.268,0,0,0,2.95-1.341,1.431,1.431,0,0,1,.618-.14,1.446,1.446,0,0,1,1.306.826l.8,1.694a.5.5,0,0,1,.061.111l.877,1.854a1.585,1.585,0,0,1,.624.215l1.893,1.135a2.49,2.49,0,0,1,1,1.121l.948,2.1a2.733,2.733,0,0,1,.052,2.093l-.253.644,1.229,2.588a.671.671,0,0,1,.04.08l.009.027,0,.007,1.462,3.079a.478.478,0,0,1-.45.636Zm-.15-.381a.181.181,0,0,0,.242.055.178.178,0,0,0,.077-.2l-1.472-3.1v-.013l-.013-.028-.009-.011-1.292-2.725.3-.764a2.428,2.428,0,0,0-.047-1.861l-.948-2.1a2.192,2.192,0,0,0-.877-.987l-1.893-1.135a1.276,1.276,0,0,0-.577-.181l-.088-.005-.959-2.028a.177.177,0,0,0-.028-.05l-.011-.014-.008-.016-.8-1.708a1.146,1.146,0,0,0-1.985-.148l-.12.178-.126-.174a1.13,1.13,0,0,0-.654-.439,1.147,1.147,0,0,0-1.41,1.253l.023.193-.192-.026a1.127,1.127,0,0,0-.154-.01,1.153,1.153,0,0,0-1.121.907,1.168,1.168,0,0,0,.059.668l.09.224-.24-.018c-.029,0-.058,0-.086,0a1.145,1.145,0,0,0-1.034,1.637l3.853,7.731c.092.2.545.967.674,1.162a.178.178,0,0,0,.061.055l.019.011.015.016.014.015h0l.013.012a4.869,4.869,0,0,0,1.5.967l.273.113a.172.172,0,0,1,.068.076l1.174,2.473a.175.175,0,0,0,.108.077.208.208,0,0,0,.042.005.181.181,0,0,0,.094-.027.178.178,0,0,0,.076-.2l-1.174-2.479a.517.517,0,0,0-.274-.26l-.253-.1a4.5,4.5,0,0,1-1.392-.9.194.194,0,0,0-.042-.033l-.032-.019-.02-.031c-.115-.184-.428-.713-.566-.967l0,0-3.906-7.839a.79.79,0,0,1,.387-1.051.792.792,0,0,1,.332-.073.782.782,0,0,1,.706.442l1.546,3.257a.175.175,0,0,0,.11.079.178.178,0,0,0,.211-.226l-2-4.208a.792.792,0,1,1,1.432-.678l1.9,4.005a.171.171,0,0,0,.108.076.174.174,0,0,0,.133-.021.18.18,0,0,0,.078-.2l-2.188-4.613a.79.79,0,0,1,1.418-.7l.006.013,0,.007,2,4.2a.178.178,0,0,0,.241.056.179.179,0,0,0,.076-.208l-1.66-3.5a.791.791,0,0,1,.747-1.053.783.783,0,0,1,.713.454l1.051,2.225.011.014.013.015.692,1.458-.142.062a1.288,1.288,0,0,0-.136,2.291l1.321.775-.073.128a4.489,4.489,0,0,0-.519,2.929.18.18,0,0,0,.21.135.178.178,0,0,0,.14-.2,4.1,4.1,0,0,1,.639-2.957.179.179,0,0,0-.046-.244l-.016-.01-1.479-.867a.932.932,0,0,1,.912-1.627l0,0,.04.024,1.89,1.134a1.833,1.833,0,0,1,.737.828l.947,2.1a2.064,2.064,0,0,1,.039,1.584l-.289.735a.436.436,0,0,0,.012.339l.918,1.934,0,.015,0,.008Z" transform="translate(-2272.51 -2348.719)" fill="#fcfcfc"/><path d="M2510.025,2374.866a.328.328,0,0,1,.329-.509,3.633,3.633,0,0,1,3.1,4.091.225.225,0,0,1,0,.026.328.328,0,0,1-.322.269.412.412,0,0,1-.06-.005.329.329,0,0,1-.263-.382,2.977,2.977,0,0,0-2.54-3.349l-.026,0A.327.327,0,0,1,2510.025,2374.866Z" transform="translate(-2498.875 -2373.458)" fill="#fcfcfc"/><path d="M2510.294,2374.2a.475.475,0,0,1,.083.007,3.783,3.783,0,0,1,3.223,4.256c0,.011,0,.025-.006.039a.47.47,0,0,1-.2.3.475.475,0,0,1-.272.085.552.552,0,0,1-.081-.007h-.005a.478.478,0,0,1-.385-.553,2.826,2.826,0,0,0-2.412-3.177l-.036-.006a.478.478,0,0,1,.088-.948Zm2.832,4.391a.176.176,0,0,0,.1-.032.174.174,0,0,0,.073-.114.071.071,0,0,0,0-.011v-.009a3.482,3.482,0,0,0-2.969-3.921h-.007a.179.179,0,0,0-.207.143.181.181,0,0,0,.029.134.177.177,0,0,0,.116.073l.015,0a3.127,3.127,0,0,1,2.672,3.519v.007a.179.179,0,0,0,.141.207Z" transform="translate(-2498.875 -2373.458)" fill="#fcfcfc"/></g><g transform="translate(2250.504 2358.986)"><path d="M2253.45,2574.94a.328.328,0,0,1-.324.277.4.4,0,0,1-.051,0,3.636,3.636,0,0,1-2.9-4.242.328.328,0,0,1,.644.121,2.979,2.979,0,0,0,2.371,3.476h0A.328.328,0,0,1,2253.45,2574.94Z" transform="translate(-2250.117 -2570.714)" fill="#fcfcfc"/><path d="M2253.126,2575.367a.506.506,0,0,1-.07,0h-.009a3.787,3.787,0,0,1-3.015-4.417.483.483,0,0,1,.468-.38.46.46,0,0,1,.073.006.48.48,0,0,1,.4.547,2.831,2.831,0,0,0,2.237,3.3h0l.018,0a.478.478,0,0,1-.1.944Zm-.028-.3h.028a.178.178,0,0,0,.046-.349h0a3.13,3.13,0,0,1-2.491-3.651.178.178,0,0,0-.149-.2l-.027,0a.18.18,0,0,0-.174.141A3.485,3.485,0,0,0,2253.1,2575.066Z" transform="translate(-2250.117 -2570.714)" fill="#fcfcfc"/><path d="M2286.344,2579.511a.326.326,0,0,1-.145.2.326.326,0,0,1-.247.044,2.095,2.095,0,0,1-1.67-2.447.33.33,0,0,1,.586-.125.332.332,0,0,1,.058.244,1.438,1.438,0,0,0,1.142,1.682h.006l.021,0A.33.33,0,0,1,2286.344,2579.511Z" transform="translate(-2282.374 -2577.054)" fill="#fcfcfc"/><path d="M2286.024,2579.917a.468.468,0,0,1-.1-.011,2.245,2.245,0,0,1-1.787-2.622.478.478,0,0,1,.94.171,1.289,1.289,0,0,0,1.014,1.51l.04.007a.481.481,0,0,1,.362.57.475.475,0,0,1-.211.3A.466.466,0,0,1,2286.024,2579.917Zm-1.423-2.712a.178.178,0,0,0-.173.14,1.944,1.944,0,0,0,1.552,2.267h.006a.174.174,0,0,0,.131-.023.176.176,0,0,0,.08-.112.18.18,0,0,0-.13-.212l-.013,0-.014,0a1.588,1.588,0,0,1-1.261-1.857.181.181,0,0,0-.033-.13.177.177,0,0,0-.115-.068Z" transform="translate(-2282.374 -2577.054)" fill="#fcfcfc"/></g></g></svg>