<svg xmlns="http://www.w3.org/2000/svg" width="10.192" height="16.084" viewBox="0 0 10.192 16.084"><g transform="translate(-1345.847 -1272.829)"><path d="M1405.065,1472.078h0a.826.826,0,0,0-.786.542.838.838,0,1,0,.787-.542Z" transform="translate(-54.121 -184.937)" fill="#fcfcfc"/><path d="M1405.064,1471.978h0a.937.937,0,0,1,.935.972.948.948,0,0,1-.924.9h-.012a.939.939,0,0,1-.88-1.262A.923.923,0,0,1,1405.064,1471.978Zm0,1.671h.01a.745.745,0,0,0,.727-.707.736.736,0,0,0-.735-.765h0a.723.723,0,0,0-.691.474.749.749,0,0,0,.091.687A.738.738,0,0,0,1405.063,1473.649Z" transform="translate(-54.121 -184.937)" fill="#fcfcfc"/><path d="M1351.779,1284.884v-2.112l.356-.086a4.957,4.957,0,1,0-4.684-8.357,4.881,4.881,0,0,0-1.5,3.53.836.836,0,1,0,1.672,0,3.224,3.224,0,0,1,.995-2.325,3.356,3.356,0,0,1,2.316-.931c.049,0,.1,0,.148,0a3.308,3.308,0,0,1,3.187,3.14v.008a3.286,3.286,0,0,1-2.6,3.324,1.977,1.977,0,0,0-1.561,1.93v1.875a.837.837,0,0,0,.836.836h0a.835.835,0,0,0,.836-.835" transform="translate(0 0)" fill="#fcfcfc"/><path d="M1350.943,1285.823a.937.937,0,0,1-.937-.936v-1.875a2.077,2.077,0,0,1,1.641-2.028,3.186,3.186,0,0,0,2.518-3.223v-.008a3.208,3.208,0,0,0-3.091-3.043c-.053,0-.1,0-.145,0a3.269,3.269,0,0,0-2.246.9,3.124,3.124,0,0,0-.964,2.253.936.936,0,1,1-1.871,0,4.983,4.983,0,0,1,1.535-3.6,5.117,5.117,0,0,1,3.758-1.424,5.044,5.044,0,0,1,1.018,9.95l-.279.067v2.033h-.2v-2.19l.433-.1a4.857,4.857,0,1,0-4.591-8.188,4.783,4.783,0,0,0-1.474,3.458.736.736,0,1,0,1.472,0,3.324,3.324,0,0,1,1.026-2.4,3.47,3.47,0,0,1,2.385-.959c.048,0,.1,0,.153,0a3.408,3.408,0,0,1,3.282,3.235v.013a3.385,3.385,0,0,1-2.676,3.421,1.877,1.877,0,0,0-1.482,1.832v1.876a.736.736,0,1,0,1.473,0h.2a.935.935,0,0,1-.936.935Z" transform="translate(0 0)" fill="#fcfcfc"/></g></svg>