<svg xmlns="http://www.w3.org/2000/svg" width="22.232" height="22.231" viewBox="0 0 22.232 22.231"><g transform="translate(-596.907 -2297.153)"><g transform="translate(596.907 2297.153)"><path d="M810.707,2352.193a.114.114,0,0,0,.012.019Z" transform="translate(-789.267 -2346.674)" fill="#fcfcfc"/><path d="M619.138,2302.938a.94.94,0,0,0-.009-.147h.005a.976.976,0,0,0-.218-.525h0c-.064-.073-.333-.342-1.8-1.807l-3.018-3.019a.99.99,0,0,0-.694-.287H599.15a2.245,2.245,0,0,0-2.243,2.243v17.745a2.245,2.245,0,0,0,2.243,2.243H616.9a2.245,2.245,0,0,0,2.243-2.243v-13.574C619.138,2303.225,619.138,2303.04,619.138,2302.938Zm-8.452-3.822h.728v3.77a.28.28,0,0,1-.28.28h-.448Zm-1.964,0v4.049h-5.494a.28.28,0,0,1-.28-.28v-3.77Zm2.691,18.3h-8.466v-4.806h8.466Zm0-6.77h-8.466v-.448a.281.281,0,0,1,.28-.28h7.906a.28.28,0,0,1,.28.28Zm5.76,6.49a.28.28,0,0,1-.28.279h-3.517V2310.2a2.246,2.246,0,0,0-2.243-2.243h-7.906a2.246,2.246,0,0,0-2.243,2.243v7.218H599.15a.28.28,0,0,1-.28-.279V2299.4a.28.28,0,0,1,.28-.28h1.835v3.77a2.246,2.246,0,0,0,2.243,2.243h7.906a2.246,2.246,0,0,0,2.243-2.243v-3.39l3.8,3.8Zm1.172-14.469.012.019A.094.094,0,0,1,618.347,2302.673Z" transform="translate(-596.907 -2297.153)" fill="#fcfcfc"/></g></g></svg>