<svg xmlns="http://www.w3.org/2000/svg" width="23.195" height="23.198" viewBox="0 0 23.195 23.198"><g transform="translate(0.1 0.1)"><path d="M1198.574,2599.246a.383.383,0,0,0-.527.125,1.869,1.869,0,0,0,0,1.936.383.383,0,1,0,.652-.4,1.105,1.105,0,0,1,0-1.131.383.383,0,0,0-.122-.528Z" transform="translate(-1193.175 -2586.538)" fill="#fcfcfc"/><path d="M1198.373,2599.089h0a.484.484,0,0,1,.41.74,1,1,0,0,0,0,1.024.449.449,0,0,1,.036.059.483.483,0,0,1-.859.444,1.964,1.964,0,0,1,0-2.037A.481.481,0,0,1,1198.373,2599.089Zm.015,2.326a.283.283,0,0,0,.251-.413.292.292,0,0,0-.023-.038l0-.006a1.2,1.2,0,0,1,0-1.233.284.284,0,0,0-.239-.436h0a.282.282,0,0,0-.242.135,1.764,1.764,0,0,0,0,1.832l0,.006A.283.283,0,0,0,1198.388,2601.415Z" transform="translate(-1193.175 -2586.538)" fill="#fcfcfc"/><path d="M1165.326,2565.546a.383.383,0,0,0-.536.08h0a4.216,4.216,0,0,0,0,5.055.383.383,0,0,0,.613-.459,3.448,3.448,0,0,1,0-4.142A.383.383,0,0,0,1165.326,2565.546Z" transform="translate(-1160.882 -2554.349)" fill="#fcfcfc"/><path d="M1165.1,2565.371h0a.479.479,0,0,1,.287.095.485.485,0,0,1,.1.674,3.365,3.365,0,0,0,0,4.022.483.483,0,0,1-.4.761.483.483,0,0,1-.375-.178,4.316,4.316,0,0,1,0-5.178A.485.485,0,0,1,1165.1,2565.371Zm-.01,5.352a.28.28,0,0,0,.179-.064.286.286,0,0,0,.054-.38,3.564,3.564,0,0,1,0-4.259.281.281,0,0,0-.225-.449h0a.28.28,0,0,0-.228.115,4.137,4.137,0,0,0,0,4.936A.281.281,0,0,0,1165.088,2570.723Z" transform="translate(-1160.882 -2554.349)" fill="#fcfcfc"/><path d="M1132.007,2540.409a.384.384,0,1,0-.595-.484.276.276,0,0,0-.019.024,6.132,6.132,0,0,0,0,7.358.384.384,0,0,0,.614-.46A5.362,5.362,0,0,1,1132.007,2540.409Z" transform="translate(-1128.633 -2529.826)" fill="#fcfcfc"/><path d="M1131.71,2539.683h0a.484.484,0,0,1,.374.79,5.289,5.289,0,0,0,0,6.315.487.487,0,0,1-.091.652.483.483,0,0,1-.68-.069,6.231,6.231,0,0,1,0-7.481.325.325,0,0,1,.023-.03A.48.48,0,0,1,1131.71,2539.683Zm-.019,7.666a.279.279,0,0,0,.178-.064.285.285,0,0,0,.055-.381,5.462,5.462,0,0,1,0-6.554.286.286,0,0,0-.039-.4.279.279,0,0,0-.178-.064.283.283,0,0,0-.22.105l-.014.018a6.065,6.065,0,0,0,0,7.241A.282.282,0,0,0,1131.691,2547.348Z" transform="translate(-1128.633 -2529.826)" fill="#fcfcfc"/><path d="M1097.956,2524.265a.383.383,0,0,0,.613-.459,7.285,7.285,0,0,1,0-8.738.383.383,0,1,0-.594-.484l-.019.025A8.048,8.048,0,0,0,1097.956,2524.265Z" transform="translate(-1096.346 -2505.635)" fill="#fcfcfc"/><path d="M1098.253,2524.506a.482.482,0,0,1-.375-.178,8.148,8.148,0,0,1,0-9.78l.021-.028a.483.483,0,1,1,.749.611,7.222,7.222,0,0,0,0,8.615.483.483,0,0,1-.4.76Zm.019-9.964a.283.283,0,0,0-.22.1l-.016.02a7.99,7.99,0,0,0,0,9.538.283.283,0,0,0,.451-.343,7.385,7.385,0,0,1,0-8.855.285.285,0,0,0-.038-.4A.28.28,0,0,0,1098.272,2514.542Z" transform="translate(-1096.346 -2505.635)" fill="#fcfcfc"/><path d="M1247.069,2330.924a5.407,5.407,0,0,0,1.343-3.4,9.367,9.367,0,0,0-.326-2.648,5.2,5.2,0,0,0-1.871-2.706c-2.46-1.937-4.577-2.292-8.389-1.412a5.863,5.863,0,0,0-3.066,1.508,5.972,5.972,0,0,0-1.254,2.049l-.052.139a9.926,9.926,0,0,0-.753,2.749,1.348,1.348,0,0,0,.495,1.056c.15.144.173.18.173.251a1.269,1.269,0,0,1-.48.9l-.1.1c-.927,1-1.274,1.418-1.234,1.842a.964.964,0,0,0,.48.662,2.254,2.254,0,0,0,.333.195,1.147,1.147,0,0,1,.332.212.458.458,0,0,1-.028.266c-.045.095-.091.178-.132.249-.115.206-.332.59,0,.869a.907.907,0,0,0,.3.161.869.869,0,0,0-.121.493.483.483,0,0,0,.2.334c.071.05.147.094.223.138.172.1.225.137.24.2a.607.607,0,0,1-.026.313,1.819,1.819,0,0,0,.051,1.145,1.229,1.229,0,0,0,1.43.866,24.692,24.692,0,0,0,2.553-.764c.65.593.881,2.8.577,5.759a.767.767,0,0,0,.683.841.7.7,0,0,0,.079,0h8.922a.772.772,0,0,0,.575-.256.755.755,0,0,0,.189-.586,12.909,12.909,0,0,0-1.882-4.935,4.315,4.315,0,0,1-.619-2.208c-.015-.141-.03-.282-.046-.423a5.188,5.188,0,0,1,.4-2.683,6.734,6.734,0,0,1,.807-1.281Zm-1.668,6a3.334,3.334,0,0,0,.364.838c-.953.906-2.993,2.242-6.91,2.648,0-.229,0-.464,0-.7C1242.419,2339.3,1244.381,2337.977,1245.4,2336.924Zm-6.676,5.6c.04-.4.08-.862.1-1.346,3.932-.391,6.147-1.647,7.365-2.771a12.6,12.6,0,0,1,1.453,4.116Zm6.83-10.626a5.945,5.945,0,0,0-.456,3.081c.017.136.031.273.046.412.02.193.041.389.067.584-.774.977-2.578,2.516-6.394,2.967a5.416,5.416,0,0,0-.668-2.52l.207-.072c.234-.081.412-.145.5-.172,1.361-.429,2.038-1.056,2.02-1.867a.393.393,0,0,0-.392-.374.384.384,0,0,0-.374.392c.006.24-.18.707-1.484,1.121-.092.029-.278.094-.523.18-.22.08-.489.171-.783.272h0a25.4,25.4,0,0,1-2.642.8.469.469,0,0,1-.55-.368,1.07,1.07,0,0,1-.03-.72,1.324,1.324,0,0,0,.024-.678,1.061,1.061,0,0,0-.58-.667,2.634,2.634,0,0,1,.224-.32.383.383,0,0,0-.24-.624c-.1-.015-.207-.036-.3-.057.043-.08.091-.164.138-.262a1.216,1.216,0,0,0,.089-.737c-.08-.415-.46-.61-.737-.752a1.919,1.919,0,0,1-.224-.126,1.809,1.809,0,0,1-.166-.134,8.32,8.32,0,0,1,1.024-1.234l.092-.1a2,2,0,0,0,.693-1.427,1.066,1.066,0,0,0-.408-.8.6.6,0,0,1-.261-.5,10.491,10.491,0,0,1,.7-2.481l.055-.146a5.2,5.2,0,0,1,1.09-1.78A5.123,5.123,0,0,1,1238,2321.5c4.011-.926,5.753-.3,7.744,1.269a4.4,4.4,0,0,1,1.608,2.308,8.611,8.611,0,0,1,.3,2.431,4.641,4.641,0,0,1-1.193,2.961,7.385,7.385,0,0,0-.9,1.437Z" transform="translate(-1225.42 -2320.298)" fill="#fcfcfc"/><path d="M1241.208,2320.2a7.7,7.7,0,0,1,5.07,1.889,5.336,5.336,0,0,1,1.9,2.756,9.472,9.472,0,0,1,.33,2.678,5.521,5.521,0,0,1-1.343,3.44l-.019.024a6.65,6.65,0,0,0-.8,1.262,5.088,5.088,0,0,0-.391,2.627c.017.142.031.283.046.425v.01a4.217,4.217,0,0,0,.6,2.157,12.93,12.93,0,0,1,1.895,4.971.858.858,0,0,1-.214.669.874.874,0,0,1-.649.289h-8.922a.769.769,0,0,1-.09,0,.867.867,0,0,1-.771-.951c.289-2.811.091-5-.5-5.634a24.858,24.858,0,0,1-2.5.746,1.332,1.332,0,0,1-1.549-.931,1.932,1.932,0,0,1-.052-1.2l0-.007a.506.506,0,0,0,.023-.258c-.008-.024-.054-.057-.192-.137-.075-.043-.154-.089-.23-.143a.586.586,0,0,1-.239-.4v-.006a.965.965,0,0,1,.081-.445,1.016,1.016,0,0,1-.22-.136c-.4-.333-.146-.779-.026-.993.044-.076.088-.156.13-.245a.352.352,0,0,0,.025-.172,1.047,1.047,0,0,0-.277-.171l0,0a2.338,2.338,0,0,1-.343-.2,1.06,1.06,0,0,1-.525-.728v-.01c-.043-.465.312-.9,1.261-1.919l.11-.115a1.174,1.174,0,0,0,.442-.824c0-.026-.007-.044-.14-.173a1.441,1.441,0,0,1-.528-1.132v-.011a10.021,10.021,0,0,1,.759-2.774l.051-.137a6.035,6.035,0,0,1,1.275-2.083l0,0a5.944,5.944,0,0,1,3.115-1.533A15.132,15.132,0,0,1,1241.208,2320.2Zm5.6,10.878.189-.217a5.32,5.32,0,0,0,1.318-3.342,9.271,9.271,0,0,0-.322-2.619,5.135,5.135,0,0,0-1.834-2.652,7.515,7.515,0,0,0-4.948-1.848,14.945,14.945,0,0,0-3.359.453h-.006a5.747,5.747,0,0,0-3.012,1.48,5.842,5.842,0,0,0-1.231,2.013l-.054.145a9.822,9.822,0,0,0-.744,2.715,1.242,1.242,0,0,0,.458.972l.006.005c.151.146.2.207.2.323v.008a1.375,1.375,0,0,1-.512.965l-.094.1c-.882.951-1.24,1.378-1.208,1.759a.86.86,0,0,0,.43.588l.01.006a2.156,2.156,0,0,0,.316.185,1.242,1.242,0,0,1,.359.23l.024.022.006.032a.557.557,0,0,1-.034.323c-.047.1-.094.183-.137.26-.147.263-.269.535-.022.743a.8.8,0,0,0,.263.142l.12.038-.065.108a.767.767,0,0,0-.107.433.385.385,0,0,0,.156.262c.068.048.143.092.214.132.176.1.262.155.288.266v.005a.707.707,0,0,1-.029.361,1.73,1.73,0,0,0,.049,1.079l0,.008a1.127,1.127,0,0,0,1.314.8,24.69,24.69,0,0,0,2.539-.76l.057-.02.044.041c.682.623.916,2.862.609,5.844a.667.667,0,0,0,.594.732.633.633,0,0,0,.068,0h8.922a.673.673,0,0,0,.5-.223.656.656,0,0,0,.164-.508,12.729,12.729,0,0,0-1.867-4.892,4.42,4.42,0,0,1-.635-2.257c-.015-.139-.029-.278-.046-.417a5.291,5.291,0,0,1,.408-2.734,6.862,6.862,0,0,1,.66-1.094Zm-5.589-10.1a6.85,6.85,0,0,1,4.586,1.722,4.527,4.527,0,0,1,1.642,2.359,8.715,8.715,0,0,1,.3,2.461,4.747,4.747,0,0,1-1.216,3.024,7.3,7.3,0,0,0-.883,1.415h0a5.852,5.852,0,0,0-.445,3.02c.016.127.03.258.043.385l0,.028c.018.174.04.378.067.581l.006.042-.026.033c-.732.923-2.544,2.542-6.461,3l-.11.013,0-.111a5.336,5.336,0,0,0-.655-2.473l-.057-.1.318-.111.241-.084c.115-.04.206-.072.261-.089,1.31-.413,1.966-1.009,1.949-1.77a.292.292,0,0,0-.292-.276.283.283,0,0,0-.274.29c.008.328-.256.806-1.554,1.219-.083.026-.248.083-.52.179-.2.074-.455.16-.721.251l-.063.022a25.606,25.606,0,0,1-2.651.8.567.567,0,0,1-.67-.436,1.171,1.171,0,0,1-.029-.779,1.225,1.225,0,0,0,.022-.623.96.96,0,0,0-.525-.6l-.1-.046.057-.1a2.759,2.759,0,0,1,.233-.333.285.285,0,0,0-.038-.4.281.281,0,0,0-.139-.061c-.095-.014-.206-.035-.306-.059l-.127-.03.092-.17c.035-.063.07-.128.105-.2a1.109,1.109,0,0,0,.081-.675c-.071-.368-.426-.55-.684-.682a2.031,2.031,0,0,1-.233-.132,1.919,1.919,0,0,1-.179-.144l-.064-.058.048-.072a8.431,8.431,0,0,1,1.036-1.249l.1-.1a1.909,1.909,0,0,0,.658-1.352.963.963,0,0,0-.368-.723.7.7,0,0,1-.3-.583v-.014a10.6,10.6,0,0,1,.709-2.505l.053-.142a5.268,5.268,0,0,1,1.111-1.813l.005-.005a5.2,5.2,0,0,1,2.731-1.311A14.591,14.591,0,0,1,1241.216,2320.971Zm4.25,10.891a7.5,7.5,0,0,1,.908-1.453l0,0a4.547,4.547,0,0,0,1.167-2.9,8.509,8.509,0,0,0-.293-2.4,4.328,4.328,0,0,0-1.571-2.254,6.59,6.59,0,0,0-4.465-1.681,14.407,14.407,0,0,0-3.2.429h-.007a5.006,5.006,0,0,0-2.627,1.259,5.071,5.071,0,0,0-1.067,1.743l-.055.147a10.41,10.41,0,0,0-.7,2.454.5.5,0,0,0,.218.412l0,0a1.162,1.162,0,0,1,.447.88v.008a2.109,2.109,0,0,1-.724,1.495l-.089.094a8.243,8.243,0,0,0-.963,1.148c.029.024.059.047.091.07a1.818,1.818,0,0,0,.209.117,1.271,1.271,0,0,1,.792.823,1.309,1.309,0,0,1-.1.8c-.026.055-.052.1-.077.151.055.011.11.021.16.028a.479.479,0,0,1,.238.1.485.485,0,0,1,.065.681,2.579,2.579,0,0,0-.159.218,1.16,1.16,0,0,1,.534.677l0,.006a1.427,1.427,0,0,1-.026.729.971.971,0,0,0,.027.653l.005.018a.37.37,0,0,0,.361.3.36.36,0,0,0,.072-.007,25.391,25.391,0,0,0,2.627-.8l.065-.022c.265-.091.515-.176.718-.25.275-.1.442-.155.527-.181,1.289-.41,1.418-.852,1.414-1.023a.484.484,0,0,1,.471-.494.493.493,0,0,1,.495.469c.019.863-.684,1.524-2.089,1.968-.052.016-.141.047-.254.087l-.241.084-.1.034a5.539,5.539,0,0,1,.621,2.351c3.724-.466,5.47-1.989,6.193-2.884-.025-.191-.045-.382-.062-.544l0-.028c-.014-.131-.027-.256-.042-.381a6.052,6.052,0,0,1,.464-3.133Zm-.015,4.867.047.168a3.23,3.23,0,0,0,.354.813l.042.069-.058.056c-.861.818-2.912,2.254-6.969,2.675l-.11.011v-.111c0-.076,0-.154,0-.231,0-.152,0-.31,0-.463l0-.091.09-.01c3.547-.409,5.485-1.727,6.485-2.761Zm.188,1.015a3.443,3.443,0,0,1-.284-.631,10.627,10.627,0,0,1-6.4,2.69c0,.127,0,.254,0,.378v.118C1242.792,2339.88,1244.771,2338.545,1245.638,2337.744Zm.58.507.062.11a12.665,12.665,0,0,1,1.465,4.149l.019.116h-9.15l.011-.11c.05-.491.083-.93.1-1.341l0-.086.086-.009c4.012-.4,6.188-1.712,7.307-2.744Zm1.31,4.175a12.46,12.46,0,0,0-1.361-3.858c-1.159,1.031-3.339,2.3-7.243,2.7-.018.358-.047.738-.088,1.155Z" transform="translate(-1225.42 -2320.298)" fill="#fcfcfc"/></g></svg>