<svg xmlns="http://www.w3.org/2000/svg" width="22.518" height="22.232" viewBox="0 0 22.518 22.232"><g transform="translate(0 12.952)"><g transform="translate(0 0)"><path d="M289.975,2430.593v5.034a2.972,2.972,0,0,1-2.969,2.969H270.426a2.972,2.972,0,0,1-2.969-2.969v-5.034a1.277,1.277,0,0,1,2.554,0v5.034a.415.415,0,0,0,.414.415h16.581a.415.415,0,0,0,.414-.415v-5.034a1.277,1.277,0,0,1,2.554,0Z" transform="translate(-267.457 -2429.316)" fill="#fcfcfc"/></g></g><g transform="translate(5.921)"><g transform="translate(0 0)"><path d="M332.648,2315.579a1.282,1.282,0,0,1-1.807,0l-1.879-1.88V2325a1.278,1.278,0,0,1-2.555,0v-11.3l-1.879,1.88a1.278,1.278,0,0,1-2.181-.9,1.268,1.268,0,0,1,.374-.9l4.222-4.222a1.05,1.05,0,0,1,1.483,0l4.222,4.222A1.279,1.279,0,0,1,332.648,2315.579Z" transform="translate(-322.347 -2309.244)" fill="#fcfcfc"/></g></g></svg>