<svg xmlns="http://www.w3.org/2000/svg" width="9.105" height="17.466" viewBox="0 0 9.105 17.466"><g transform="translate(-702.418 -820.647)" style="isolation:isolate"><path d="M3.974,16.966A6.571,6.571,0,0,1,1,16.421,2.683,2.683,0,0,1-.5,13.878V8.9c0-1.633.451-2.12.953-2.513a.551.551,0,0,0,.286-.582V1.919a2.126,2.126,0,0,1,1.13-1.99A4.549,4.549,0,0,1,4.039-.5c2.146,0,3.377.882,3.377,2.419V5.673a.711.711,0,0,0,.3.637A3.1,3.1,0,0,1,8.605,8.9v4.977C8.605,16.966,5.24,16.966,3.974,16.966ZM4.039.5c-2.039,0-2.3.758-2.3,1.419V5.805a1.507,1.507,0,0,1-.67,1.37C.789,7.394.5,7.62.5,8.9v4.977c0,.972.395,2.088,3.474,2.088,2.613,0,3.631-.585,3.631-2.088V8.9c0-1.29-.3-1.591-.595-1.882a1.677,1.677,0,0,1-.595-1.346V1.919C6.416.977,5.616.5,4.039.5Z" transform="translate(711.023 837.613) rotate(180)" fill="#25245e"/><rect width="6" height="3" transform="translate(703.958 830.505)" fill="#25245e"/></g></svg>