<svg xmlns="http://www.w3.org/2000/svg" width="9.502" height="14.986" viewBox="0 0 9.502 14.986"><g transform="translate(-1345.847 -1272.829)"><path d="M1405.007,1472.078h0a.769.769,0,0,0-.732.5.78.78,0,1,0,.732-.5Z" transform="translate(-54.409 -185.919)" fill="#25245e"/><path d="M1405.006,1471.978h0a.879.879,0,0,1,.877.912.889.889,0,0,1-.867.843h-.012a.881.881,0,0,1-.825-1.184A.866.866,0,0,1,1405.006,1471.978Zm0,1.556h.009a.687.687,0,0,0,.67-.651.679.679,0,0,0-.677-.7h0a.666.666,0,0,0-.637.437.69.69,0,0,0,.084.633A.68.68,0,0,0,1405.005,1473.534Z" transform="translate(-54.409 -185.919)" fill="#25245e"/><path d="M1351.376,1284.057v-1.966l.332-.08a4.614,4.614,0,1,0-4.36-7.779,4.544,4.544,0,0,0-1.4,3.286.778.778,0,1,0,1.556,0,3,3,0,0,1,.926-2.164,3.124,3.124,0,0,1,2.156-.867c.046,0,.092,0,.138,0a3.079,3.079,0,0,1,2.967,2.923v.007a3.059,3.059,0,0,1-2.418,3.094,1.84,1.84,0,0,0-1.453,1.8v1.746a.779.779,0,0,0,.779.778h0a.777.777,0,0,0,.778-.777" transform="translate(0 0)" fill="#25245e"/><path d="M1350.6,1284.938a.879.879,0,0,1-.879-.878v-1.746a1.941,1.941,0,0,1,1.533-1.895,2.959,2.959,0,0,0,2.338-2.993v-.008a2.979,2.979,0,0,0-2.87-2.826c-.046,0-.09,0-.135,0a3.036,3.036,0,0,0-2.086.839,2.9,2.9,0,0,0-.9,2.092.878.878,0,1,1-1.756,0,4.645,4.645,0,0,1,1.431-3.359,4.766,4.766,0,0,1,3.5-1.327,4.7,4.7,0,0,1,.949,9.276l-.255.061v1.887h-.2v-2.044l.408-.1a4.514,4.514,0,1,0-4.267-7.61,4.446,4.446,0,0,0-1.37,3.214.678.678,0,1,0,1.356,0,3.1,3.1,0,0,1,.957-2.237,3.237,3.237,0,0,1,2.225-.895c.046,0,.093,0,.143,0a3.179,3.179,0,0,1,3.062,3.018v.012a3.158,3.158,0,0,1-2.5,3.192,1.74,1.74,0,0,0-1.374,1.7v1.746a.679.679,0,1,0,1.357,0h.2a.877.877,0,0,1-.878.877Z" transform="translate(0 0)" fill="#25245e"/></g></svg>