<svg xmlns="http://www.w3.org/2000/svg" width="14.152" height="14.032" viewBox="0 0 14.152 14.032"><g transform="translate(7274.382 1634.443)"><g transform="translate(-7274.28 -1634.343)"><path d="M-7273.145-1634.343h0a1.075,1.075,0,0,0-.869,1.754l3.834,4.6a.818.818,0,0,1,0,1.05l-3.859,4.683a1.075,1.075,0,0,0,.874,1.749h.013a1.131,1.131,0,0,0,.874-.407l4.635-5.625a1.438,1.438,0,0,0,0-1.848l-4.63-5.551A1.134,1.134,0,0,0-7273.145-1634.343Z" transform="translate(7274.28 1634.343)" fill="#25245e"/><path d="M-7273.145-1634.443a1.228,1.228,0,0,1,.946.438l.185.222,4.445,5.329a1.529,1.529,0,0,1,.005,1.975l-4.635,5.625a1.224,1.224,0,0,1-.951.443h-.013a1.207,1.207,0,0,1-1.107-.689,1.128,1.128,0,0,1,.156-1.224l3.859-4.683a.715.715,0,0,0,0-.922l-3.834-4.6a1.128,1.128,0,0,1-.162-1.226A1.206,1.206,0,0,1-7273.145-1634.443Zm0,13.832a1.025,1.025,0,0,0,.8-.37l4.635-5.625a1.331,1.331,0,0,0,0-1.72l-4.445-5.329-.185-.222a1.029,1.029,0,0,0-.793-.366,1.007,1.007,0,0,0-.926.577.932.932,0,0,0,.134,1.013l3.834,4.6a.913.913,0,0,1,0,1.177l-3.859,4.683a.933.933,0,0,0-.129,1.011,1.01,1.01,0,0,0,.926.574Z" transform="translate(7274.28 1634.343)" fill="#fcfcfc"/></g><g transform="translate(-7267.306 -1634.343)"><path d="M-7155.7-1634.343h0a1.075,1.075,0,0,0-.87,1.754l3.833,4.6a.818.818,0,0,1,0,1.05l-3.859,4.683a1.075,1.075,0,0,0,.874,1.749h.013a1.13,1.13,0,0,0,.873-.407l4.636-5.625a1.44,1.44,0,0,0-.006-1.848l-4.63-5.551A1.132,1.132,0,0,0-7155.7-1634.343Z" transform="translate(7156.834 1634.343)" fill="#25245e"/><path d="M-7155.7-1634.443a1.226,1.226,0,0,1,.945.438l2.557,3.065,2.073,2.486a1.531,1.531,0,0,1,.006,1.975l-4.636,5.625a1.224,1.224,0,0,1-.95.443h-.013a1.207,1.207,0,0,1-1.107-.689,1.126,1.126,0,0,1,.156-1.223l3.859-4.683a.715.715,0,0,0,0-.922l-3.833-4.6a1.126,1.126,0,0,1-.162-1.226A1.206,1.206,0,0,1-7155.7-1634.443Zm0,13.832a1.025,1.025,0,0,0,.8-.37l4.636-5.625a1.333,1.333,0,0,0-.005-1.72l-2.074-2.486-2.557-3.065a1.026,1.026,0,0,0-.792-.366,1.008,1.008,0,0,0-.927.577.931.931,0,0,0,.134,1.013l3.833,4.6a.912.912,0,0,1,0,1.178l-3.859,4.683a.931.931,0,0,0-.13,1.01,1.01,1.01,0,0,0,.927.575Z" transform="translate(7156.834 1634.343)" fill="#fcfcfc"/></g></g></svg>