<svg xmlns="http://www.w3.org/2000/svg" width="22.51" height="23.568" viewBox="0 0 22.51 23.568"><g transform="translate(-2250.117 -2348.719)"><g transform="translate(2251.442 2348.719)"><path d="M2505.265,2408.53a.433.433,0,0,1,.5-.347,2.758,2.758,0,0,1,2.351,3.106c0,.009,0,.021,0,.034a.433.433,0,0,1-.424.354.449.449,0,0,1-.078-.007.432.432,0,0,1-.347-.5,1.9,1.9,0,0,0-1.617-2.131h-.008l-.027,0A.433.433,0,0,1,2505.265,2408.53Z" transform="translate(-2491.486 -2404.657)" fill="#25245e"/><path d="M2293.491,2372.223a.428.428,0,0,1-.225.064.433.433,0,0,1-.369-.205l0-.009-2.438-5.13a.282.282,0,0,1-.011-.038l-1.2-2.528a.769.769,0,0,1-.021-.6l.38-.967a2.515,2.515,0,0,0-.048-1.931l-1.247-2.763a2.223,2.223,0,0,0-.891-1l-2.491-1.493-.05-.03a1.03,1.03,0,1,0-1,1.8l1.951,1.143.021.014a.432.432,0,0,1,.119.6,5.2,5.2,0,0,0-.81,3.755.431.431,0,0,1-.85.143,6.1,6.1,0,0,1,.7-3.988l-1.571-.922a1.891,1.891,0,0,1,.2-3.365l-.811-1.711a.455.455,0,0,1-.036-.05l0-.009-1.384-2.931a.843.843,0,0,0-1.558.639l2.181,4.594a.431.431,0,0,1-.774.372l0-.008-2.636-5.535-.011-.022a.843.843,0,0,0-1.512.744l2.885,6.082a.434.434,0,0,1-.18.511.432.432,0,0,1-.594-.141l0-.009-2.505-5.278a.845.845,0,1,0-1.527.724l2.634,5.549a.434.434,0,0,1-.181.511.43.43,0,0,1-.593-.142l0-.008-2.039-4.294a.842.842,0,0,0-1.521.723l5.141,10.316c.182.336.59,1.024.739,1.263a.407.407,0,0,1,.092.07,5.749,5.749,0,0,0,1.772,1.14l.333.136a.883.883,0,0,1,.465.441l1.55,3.272a.431.431,0,0,1-.407.575.459.459,0,0,1-.1-.012.429.429,0,0,1-.268-.193l0-.009-1.549-3.264a.025.025,0,0,0-.012-.012l-.332-.136a6.617,6.617,0,0,1-2.039-1.311l-.018-.017a.287.287,0,0,1-.025-.027.439.439,0,0,1-.148-.133c-.163-.249-.771-1.279-.9-1.551l-5.072-10.179a2.967,2.967,0,0,0,1.582-3.425,4.171,4.171,0,0,0,2.707-3,1.871,1.871,0,0,0,2.948-.134,1.7,1.7,0,0,1,2.269.811l1.059,2.249a.419.419,0,0,1,.068.121l1.206,2.547a1.88,1.88,0,0,1,.85.266l2.491,1.493a3.082,3.082,0,0,1,1.233,1.387l1.247,2.762a3.387,3.387,0,0,1,.065,2.6l-.364.927,1.656,3.489.006.009a.511.511,0,0,1,.04.082c0,.012.008.024.01.035h0l1.924,4.049A.434.434,0,0,1,2293.491,2372.223Z" transform="translate(-2272.511 -2348.719)" fill="#25245e"/><path d="M2510.044,2375.029a.431.431,0,0,1,.432-.669,4.781,4.781,0,0,1,4.077,5.384.33.33,0,0,1,0,.034.432.432,0,0,1-.424.354.443.443,0,0,1-.078-.007.432.432,0,0,1-.347-.5,3.919,3.919,0,0,0-3.343-4.408l-.035-.005A.428.428,0,0,1,2510.044,2375.029Z" transform="translate(-2495.916 -2372.835)" fill="#25245e"/></g><g transform="translate(2250.117 2361.855)"><path d="M2254.5,2576.276a.432.432,0,0,1-.426.365.41.41,0,0,1-.067,0,4.783,4.783,0,0,1-3.811-5.581.431.431,0,0,1,.848.158,3.921,3.921,0,0,0,3.121,4.575h0A.432.432,0,0,1,2254.5,2576.276Z" transform="translate(-2250.117 -2570.714)" fill="#25245e"/><path d="M2287.008,2580.287a.433.433,0,0,1-.42.338.477.477,0,0,1-.095-.01,2.756,2.756,0,0,1-2.2-3.22.431.431,0,0,1,.848.158,1.894,1.894,0,0,0,1.5,2.214h.008l.028.006A.433.433,0,0,1,2287.008,2580.287Z" transform="translate(-2282.226 -2576.679)" fill="#25245e"/></g></g></svg>