<svg xmlns="http://www.w3.org/2000/svg" width="15.365" height="13.796" viewBox="0 0 15.365 13.796"><g transform="translate(-698.86 -821.764)" style="isolation:isolate"><path d="M703.819,827.81v7.625a.125.125,0,0,1-.125.125h-4.708a.126.126,0,0,1-.126-.125V821.764H702.4v6.046Z" transform="translate(0 0)" fill="#25245e"/><path d="M765.485,827.819v7.75H761.24v-7.75h1.037v-6.045h2.135v6.045Z" transform="translate(-56.807 -0.009)" fill="#25245e" style="isolation:isolate"/><path d="M820.281,821.764v13.671a.125.125,0,0,1-.125.125h-4.711a.125.125,0,0,1-.125-.125V827.81h1.409v-6.046Z" transform="translate(-106.056 0)" fill="#25245e" style="isolation:isolate"/></g></svg>