<svg xmlns="http://www.w3.org/2000/svg" width="21.806" height="12.264" viewBox="0 0 21.806 12.264"><g transform="translate(-547.388 -1087.326)"><path d="M650.373,1099.583c.75.006,1.5,0,2.248.007.181,0,.233-.043.233-.229-.008-1.587,0-.817,0-2.4q0-2.082,0-4.165a7.129,7.129,0,0,0-.055-.923,5.31,5.31,0,0,0-10.563.861c-.008,3,0,3.638-.007,6.635,0,.191.061.227.237.225.75-.01,1.5,0,2.248-.007C644.831,1099.583,650.23,1099.582,650.373,1099.583Zm1.15-1.52c0,.154-.039.194-.194.194q-3.79-.007-7.581,0c-.155,0-.193-.041-.193-.194,0-2.086,0-5.444,0-5.626a3.986,3.986,0,0,1,7.933-.291C651.568,1092.646,651.517,1095.976,651.522,1098.063Z" transform="translate(-89.247)" fill="#25245e"/><path d="M872.874,1132.378c-.252-.3-.25-.3.019-.568.179-.181.356-.364.538-.551a.157.157,0,0,1,.228,0,5.9,5.9,0,0,1,1.613,4.648,5.835,5.835,0,0,1-1.581,3.547c-.1.114-.166.144-.285.011a9.333,9.333,0,0,0-.669-.67c-.115-.105-.1-.161,0-.27A4.63,4.63,0,0,0,872.874,1132.378Z" transform="translate(-306.101 -41.299)" fill="#25245e"/><path d="M840.676,1163.617c-.065-.083-.065-.124.009-.2.259-.25.512-.506.764-.762.057-.058.093-.07.156,0a3.305,3.305,0,0,1-.008,4.531.117.117,0,0,1-.167,0c-.25-.255-.5-.511-.753-.761-.081-.078-.056-.122,0-.2A1.962,1.962,0,0,0,840.676,1163.617Z" transform="translate(-275.96 -70.848)" fill="#25245e"/><path d="M549.81,1132.738c.252-.3.25-.3-.019-.568-.167-.169-.333-.34-.5-.514a.206.206,0,0,0-.3.007,5.9,5.9,0,0,0-1.576,4.608,5.835,5.835,0,0,0,1.581,3.547c.1.114.166.144.285.011a9.307,9.307,0,0,1,.669-.67c.115-.106.1-.161,0-.271A4.63,4.63,0,0,1,549.81,1132.738Z" transform="translate(0 -41.659)" fill="#25245e"/><path d="M594.263,1163.617c.065-.083.065-.124-.009-.2-.259-.25-.512-.506-.764-.762-.057-.058-.093-.07-.156,0a3.306,3.306,0,0,0,0,4.518.134.134,0,0,0,.192,0c.245-.251.49-.5.74-.748.081-.078.056-.122,0-.2A1.962,1.962,0,0,1,594.263,1163.617Z" transform="translate(-42.396 -70.848)" fill="#25245e"/><path d="M701.837,1161.61c0-.1.029-.124.124-.123.359,0,.718.006,1.077,0,.115,0,.128.047.127.143,0,.352,0,.7,0,1.055,0,.1-.028.14-.136.138-.352-.006-.7-.005-1.055,0-.1,0-.143-.027-.139-.135.008-.183,0-.366,0-.55S701.844,1161.785,701.837,1161.61Z" transform="translate(-145.348 -69.79)" fill="#25245e"/><path d="M740.383,1161.61c0-.1.029-.124.124-.123.359,0,.718.006,1.077,0,.115,0,.128.047.127.143,0,.352,0,.7,0,1.055,0,.1-.028.14-.136.138-.352-.006-.7-.005-1.055,0-.1,0-.143-.027-.139-.135.008-.183,0-.366,0-.55S740.39,1161.785,740.383,1161.61Z" transform="translate(-181.622 -69.79)" fill="#25245e"/></g></svg>